<svg width="1366" height="472" viewBox="0 0 1366 472" fill="none" xmlns="http://www.w3.org/2000/svg">
<path fill-rule="evenodd" clip-rule="evenodd" d="M28.0169 11.4517C28.0169 9.93311 28.7549 8.47671 30.0684 7.4029C31.382 6.32909 33.1635 5.72583 35.0212 5.72583C36.8788 5.72583 38.6604 6.32909 39.9739 7.4029C41.2875 8.47671 42.0254 9.93311 42.0254 11.4517V68.7104C42.0254 70.229 41.2875 71.6854 39.9739 72.7593C38.6604 73.8331 36.8788 74.4363 35.0212 74.4363C33.1635 74.4363 31.382 73.8331 30.0684 72.7593C28.7549 71.6854 28.0169 70.229 28.0169 68.7104V11.4517ZM49.0297 51.5328C49.0297 50.0142 49.7676 48.5578 51.0812 47.484C52.3947 46.4102 54.1763 45.8069 56.0339 45.8069C57.8916 45.8069 59.6732 46.4102 60.9867 47.484C62.3003 48.5578 63.0382 50.0142 63.0382 51.5328V108.792C63.0382 110.31 62.3003 111.767 60.9867 112.84C59.6732 113.914 57.8916 114.517 56.0339 114.517C54.1763 114.517 52.3947 113.914 51.0812 112.84C49.7676 111.767 49.0297 110.31 49.0297 108.792V51.5328ZM28.0169 85.8881C28.0169 84.3695 28.7549 82.9131 30.0684 81.8393C31.382 80.7654 33.1635 80.1622 35.0212 80.1622C36.8788 80.1622 38.6604 80.7654 39.9739 81.8393C41.2875 82.9131 42.0254 84.3695 42.0254 85.8881V108.792C42.0254 110.31 41.2875 111.767 39.9739 112.84C38.6604 113.914 36.8788 114.517 35.0212 114.517C33.1635 114.517 31.382 113.914 30.0684 112.84C28.7549 111.767 28.0169 110.31 28.0169 108.792V85.8881ZM70.0425 11.4517C70.0425 9.93311 70.7804 8.47671 72.094 7.4029C73.4075 6.32909 75.1891 5.72583 77.0467 5.72583C78.9044 5.72583 80.6859 6.32909 81.9995 7.4029C83.313 8.47671 84.051 9.93311 84.051 11.4517V68.7104C84.051 70.229 83.313 71.6854 81.9995 72.7593C80.6859 73.8331 78.9044 74.4363 77.0467 74.4363C75.1891 74.4363 73.4075 73.8331 72.094 72.7593C70.7804 71.6854 70.0425 70.229 70.0425 68.7104V11.4517ZM70.0425 85.8881C70.0425 84.3695 70.7804 82.9131 72.094 81.8393C73.4075 80.7654 75.1891 80.1622 77.0467 80.1622C78.9044 80.1622 80.6859 80.7654 81.9995 81.8393C83.313 82.9131 84.051 84.3695 84.051 85.8881V108.792C84.051 110.31 83.313 111.767 81.9995 112.84C80.6859 113.914 78.9044 114.517 77.0467 114.517C75.1891 114.517 73.4075 113.914 72.094 112.84C70.7804 111.767 70.0425 110.31 70.0425 108.792V85.8881ZM49.0297 11.4517C49.0297 9.93311 49.7676 8.47671 51.0812 7.4029C52.3947 6.32909 54.1763 5.72583 56.0339 5.72583C57.8916 5.72583 59.6732 6.32909 60.9867 7.4029C62.3003 8.47671 63.0382 9.93311 63.0382 11.4517V34.3552C63.0382 35.8738 62.3003 37.3302 60.9867 38.404C59.6732 39.4778 57.8916 40.0811 56.0339 40.0811C54.1763 40.0811 52.3947 39.4778 51.0812 38.404C49.7676 37.3302 49.0297 35.8738 49.0297 34.3552V11.4517ZM7.00415 51.5328C7.00415 50.0142 7.7421 48.5578 9.05565 47.484C10.3692 46.4102 12.1508 45.8069 14.0084 45.8069C15.8661 45.8069 17.6476 46.4102 18.9612 47.484C20.2747 48.5578 21.0127 50.0142 21.0127 51.5328V108.792C21.0127 110.31 20.2747 111.767 18.9612 112.84C17.6476 113.914 15.8661 114.517 14.0084 114.517C12.1508 114.517 10.3692 113.914 9.05565 112.84C7.7421 111.767 7.00415 110.31 7.00415 108.792V51.5328ZM7.00415 11.4517C7.00415 9.93311 7.7421 8.47671 9.05565 7.4029C10.3692 6.32909 12.1508 5.72583 14.0084 5.72583C15.8661 5.72583 17.6476 6.32909 18.9612 7.4029C20.2747 8.47671 21.0127 9.93311 21.0127 11.4517V34.3552C21.0127 35.8738 20.2747 37.3302 18.9612 38.404C17.6476 39.4778 15.8661 40.0811 14.0084 40.0811C12.1508 40.0811 10.3692 39.4778 9.05565 38.404C7.7421 37.3302 7.00415 35.8738 7.00415 34.3552V11.4517ZM91.0552 51.5328C91.0552 50.0142 91.7932 48.5578 93.1067 47.484C94.4203 46.4102 96.2018 45.8069 98.0595 45.8069C99.9171 45.8069 101.699 46.4102 103.012 47.484C104.326 48.5578 105.064 50.0142 105.064 51.5328V108.792C105.064 110.31 104.326 111.767 103.012 112.84C101.699 113.914 99.9171 114.517 98.0595 114.517C96.2018 114.517 94.4203 113.914 93.1067 112.84C91.7932 111.767 91.0552 110.31 91.0552 108.792V51.5328ZM91.0552 11.4517C91.0552 9.93311 91.7932 8.47671 93.1067 7.4029C94.4203 6.32909 96.2018 5.72583 98.0595 5.72583C99.9171 5.72583 101.699 6.32909 103.012 7.4029C104.326 8.47671 105.064 9.93311 105.064 11.4517V34.3552C105.064 35.8738 104.326 37.3302 103.012 38.404C101.699 39.4778 99.9171 40.0811 98.0595 40.0811C96.2018 40.0811 94.4203 39.4778 93.1067 38.404C91.7932 37.3302 91.0552 35.8738 91.0552 34.3552V11.4517Z" fill="#1E2440"/>
<path fill-rule="evenodd" clip-rule="evenodd" d="M247.368 11.4517C247.368 9.93311 248.106 8.47671 249.42 7.4029C250.733 6.32909 252.515 5.72583 254.372 5.72583C256.23 5.72583 258.012 6.32909 259.325 7.4029C260.639 8.47671 261.377 9.93311 261.377 11.4517V68.7104C261.377 70.229 260.639 71.6854 259.325 72.7593C258.012 73.8331 256.23 74.4363 254.372 74.4363C252.515 74.4363 250.733 73.8331 249.42 72.7593C248.106 71.6854 247.368 70.229 247.368 68.7104V11.4517ZM268.381 51.5328C268.381 50.0142 269.119 48.5578 270.433 47.484C271.746 46.4102 273.528 45.8069 275.385 45.8069C277.243 45.8069 279.024 46.4102 280.338 47.484C281.652 48.5578 282.39 50.0142 282.39 51.5328V108.792C282.39 110.31 281.652 111.767 280.338 112.84C279.024 113.914 277.243 114.517 275.385 114.517C273.528 114.517 271.746 113.914 270.433 112.84C269.119 111.767 268.381 110.31 268.381 108.792V51.5328ZM247.368 85.8881C247.368 84.3695 248.106 82.9131 249.42 81.8393C250.733 80.7654 252.515 80.1622 254.372 80.1622C256.23 80.1622 258.012 80.7654 259.325 81.8393C260.639 82.9131 261.377 84.3695 261.377 85.8881V108.792C261.377 110.31 260.639 111.767 259.325 112.84C258.012 113.914 256.23 114.517 254.372 114.517C252.515 114.517 250.733 113.914 249.42 112.84C248.106 111.767 247.368 110.31 247.368 108.792V85.8881ZM289.394 11.4517C289.394 9.93311 290.132 8.47671 291.445 7.4029C292.759 6.32909 294.54 5.72583 296.398 5.72583C298.256 5.72583 300.037 6.32909 301.351 7.4029C302.664 8.47671 303.402 9.93311 303.402 11.4517V68.7104C303.402 70.229 302.664 71.6854 301.351 72.7593C300.037 73.8331 298.256 74.4363 296.398 74.4363C294.54 74.4363 292.759 73.8331 291.445 72.7593C290.132 71.6854 289.394 70.229 289.394 68.7104V11.4517ZM289.394 85.8881C289.394 84.3695 290.132 82.9131 291.445 81.8393C292.759 80.7654 294.54 80.1622 296.398 80.1622C298.256 80.1622 300.037 80.7654 301.351 81.8393C302.664 82.9131 303.402 84.3695 303.402 85.8881V108.792C303.402 110.31 302.664 111.767 301.351 112.84C300.037 113.914 298.256 114.517 296.398 114.517C294.54 114.517 292.759 113.914 291.445 112.84C290.132 111.767 289.394 110.31 289.394 108.792V85.8881ZM268.381 11.4517C268.381 9.93311 269.119 8.47671 270.433 7.4029C271.746 6.32909 273.528 5.72583 275.385 5.72583C277.243 5.72583 279.024 6.32909 280.338 7.4029C281.652 8.47671 282.39 9.93311 282.39 11.4517V34.3552C282.39 35.8738 281.652 37.3302 280.338 38.404C279.024 39.4778 277.243 40.0811 275.385 40.0811C273.528 40.0811 271.746 39.4778 270.433 38.404C269.119 37.3302 268.381 35.8738 268.381 34.3552V11.4517ZM226.355 51.5328C226.355 50.0142 227.093 48.5578 228.407 47.484C229.721 46.4102 231.502 45.8069 233.36 45.8069C235.217 45.8069 236.999 46.4102 238.312 47.484C239.626 48.5578 240.364 50.0142 240.364 51.5328V108.792C240.364 110.31 239.626 111.767 238.312 112.84C236.999 113.914 235.217 114.517 233.36 114.517C231.502 114.517 229.721 113.914 228.407 112.84C227.093 111.767 226.355 110.31 226.355 108.792V51.5328ZM226.355 11.4517C226.355 9.93311 227.093 8.47671 228.407 7.4029C229.721 6.32909 231.502 5.72583 233.36 5.72583C235.217 5.72583 236.999 6.32909 238.312 7.4029C239.626 8.47671 240.364 9.93311 240.364 11.4517V34.3552C240.364 35.8738 239.626 37.3302 238.312 38.404C236.999 39.4778 235.217 40.0811 233.36 40.0811C231.502 40.0811 229.721 39.4778 228.407 38.404C227.093 37.3302 226.355 35.8738 226.355 34.3552V11.4517ZM310.407 51.5328C310.407 50.0142 311.144 48.5578 312.458 47.484C313.772 46.4102 315.553 45.8069 317.411 45.8069C319.268 45.8069 321.05 46.4102 322.364 47.484C323.677 48.5578 324.415 50.0142 324.415 51.5328V108.792C324.415 110.31 323.677 111.767 322.364 112.84C321.05 113.914 319.268 114.517 317.411 114.517C315.553 114.517 313.772 113.914 312.458 112.84C311.144 111.767 310.407 110.31 310.407 108.792V51.5328ZM310.407 11.4517C310.407 9.93311 311.144 8.47671 312.458 7.4029C313.772 6.32909 315.553 5.72583 317.411 5.72583C319.268 5.72583 321.05 6.32909 322.364 7.4029C323.677 8.47671 324.415 9.93311 324.415 11.4517V34.3552C324.415 35.8738 323.677 37.3302 322.364 38.404C321.05 39.4778 319.268 40.0811 317.411 40.0811C315.553 40.0811 313.772 39.4778 312.458 38.404C311.144 37.3302 310.407 35.8738 310.407 34.3552V11.4517Z" fill="#1E2440"/>
<path fill-rule="evenodd" clip-rule="evenodd" d="M466.949 11.4517C466.949 9.93311 467.687 8.47671 469 7.4029C470.314 6.32909 472.095 5.72583 473.953 5.72583C475.811 5.72583 477.592 6.32909 478.906 7.4029C480.219 8.47671 480.957 9.93311 480.957 11.4517V68.7104C480.957 70.229 480.219 71.6854 478.906 72.7593C477.592 73.8331 475.811 74.4363 473.953 74.4363C472.095 74.4363 470.314 73.8331 469 72.7593C467.687 71.6854 466.949 70.229 466.949 68.7104V11.4517ZM487.962 51.5328C487.962 50.0142 488.7 48.5578 490.013 47.484C491.327 46.4102 493.108 45.8069 494.966 45.8069C496.823 45.8069 498.605 46.4102 499.919 47.484C501.232 48.5578 501.97 50.0142 501.97 51.5328V108.792C501.97 110.31 501.232 111.767 499.919 112.84C498.605 113.914 496.823 114.517 494.966 114.517C493.108 114.517 491.327 113.914 490.013 112.84C488.7 111.767 487.962 110.31 487.962 108.792V51.5328ZM466.949 85.8881C466.949 84.3695 467.687 82.9131 469 81.8393C470.314 80.7654 472.095 80.1622 473.953 80.1622C475.811 80.1622 477.592 80.7654 478.906 81.8393C480.219 82.9131 480.957 84.3695 480.957 85.8881V108.792C480.957 110.31 480.219 111.767 478.906 112.84C477.592 113.914 475.811 114.517 473.953 114.517C472.095 114.517 470.314 113.914 469 112.84C467.687 111.767 466.949 110.31 466.949 108.792V85.8881ZM508.974 11.4517C508.974 9.93311 509.712 8.47671 511.026 7.4029C512.339 6.32909 514.121 5.72583 515.979 5.72583C517.836 5.72583 519.618 6.32909 520.931 7.4029C522.245 8.47671 522.983 9.93311 522.983 11.4517V68.7104C522.983 70.229 522.245 71.6854 520.931 72.7593C519.618 73.8331 517.836 74.4363 515.979 74.4363C514.121 74.4363 512.339 73.8331 511.026 72.7593C509.712 71.6854 508.974 70.229 508.974 68.7104V11.4517ZM508.974 85.8881C508.974 84.3695 509.712 82.9131 511.026 81.8393C512.339 80.7654 514.121 80.1622 515.979 80.1622C517.836 80.1622 519.618 80.7654 520.931 81.8393C522.245 82.9131 522.983 84.3695 522.983 85.8881V108.792C522.983 110.31 522.245 111.767 520.931 112.84C519.618 113.914 517.836 114.517 515.979 114.517C514.121 114.517 512.339 113.914 511.026 112.84C509.712 111.767 508.974 110.31 508.974 108.792V85.8881ZM487.962 11.4517C487.962 9.93311 488.7 8.47671 490.013 7.4029C491.327 6.32909 493.108 5.72583 494.966 5.72583C496.823 5.72583 498.605 6.32909 499.919 7.4029C501.232 8.47671 501.97 9.93311 501.97 11.4517V34.3552C501.97 35.8738 501.232 37.3302 499.919 38.404C498.605 39.4778 496.823 40.0811 494.966 40.0811C493.108 40.0811 491.327 39.4778 490.013 38.404C488.7 37.3302 487.962 35.8738 487.962 34.3552V11.4517ZM445.936 51.5328C445.936 50.0142 446.674 48.5578 447.988 47.484C449.301 46.4102 451.083 45.8069 452.94 45.8069C454.798 45.8069 456.579 46.4102 457.893 47.484C459.207 48.5578 459.945 50.0142 459.945 51.5328V108.792C459.945 110.31 459.207 111.767 457.893 112.84C456.579 113.914 454.798 114.517 452.94 114.517C451.083 114.517 449.301 113.914 447.988 112.84C446.674 111.767 445.936 110.31 445.936 108.792V51.5328ZM445.936 11.4517C445.936 9.93311 446.674 8.47671 447.988 7.4029C449.301 6.32909 451.083 5.72583 452.94 5.72583C454.798 5.72583 456.579 6.32909 457.893 7.4029C459.207 8.47671 459.945 9.93311 459.945 11.4517V34.3552C459.945 35.8738 459.207 37.3302 457.893 38.404C456.579 39.4778 454.798 40.0811 452.94 40.0811C451.083 40.0811 449.301 39.4778 447.988 38.404C446.674 37.3302 445.936 35.8738 445.936 34.3552V11.4517ZM529.987 51.5328C529.987 50.0142 530.725 48.5578 532.039 47.484C533.352 46.4102 535.134 45.8069 536.991 45.8069C538.849 45.8069 540.631 46.4102 541.944 47.484C543.258 48.5578 543.996 50.0142 543.996 51.5328V108.792C543.996 110.31 543.258 111.767 541.944 112.84C540.631 113.914 538.849 114.517 536.991 114.517C535.134 114.517 533.352 113.914 532.039 112.84C530.725 111.767 529.987 110.31 529.987 108.792V51.5328ZM529.987 11.4517C529.987 9.93311 530.725 8.47671 532.039 7.4029C533.352 6.32909 535.134 5.72583 536.991 5.72583C538.849 5.72583 540.631 6.32909 541.944 7.4029C543.258 8.47671 543.996 9.93311 543.996 11.4517V34.3552C543.996 35.8738 543.258 37.3302 541.944 38.404C540.631 39.4778 538.849 40.0811 536.991 40.0811C535.134 40.0811 533.352 39.4778 532.039 38.404C530.725 37.3302 529.987 35.8738 529.987 34.3552V11.4517Z" fill="#1E2440"/>
<path fill-rule="evenodd" clip-rule="evenodd" d="M135.913 245.657C135.913 244.138 136.651 242.682 137.965 241.608C139.278 240.534 141.06 239.931 142.917 239.931C144.775 239.931 146.557 240.534 147.87 241.608C149.184 242.682 149.922 244.138 149.922 245.657V302.916C149.922 304.434 149.184 305.891 147.87 306.965C146.557 308.038 144.775 308.642 142.917 308.642C141.06 308.642 139.278 308.038 137.965 306.965C136.651 305.891 135.913 304.434 135.913 302.916V245.657ZM156.926 285.738C156.926 284.22 157.664 282.763 158.977 281.689C160.291 280.616 162.073 280.012 163.93 280.012C165.788 280.012 167.569 280.616 168.883 281.689C170.196 282.763 170.934 284.22 170.934 285.738V342.997C170.934 344.515 170.196 345.972 168.883 347.046C167.569 348.12 165.788 348.723 163.93 348.723C162.073 348.723 160.291 348.12 158.977 347.046C157.664 345.972 156.926 344.515 156.926 342.997V285.738ZM135.913 320.093C135.913 318.575 136.651 317.118 137.965 316.045C139.278 314.971 141.06 314.368 142.917 314.368C144.775 314.368 146.557 314.971 147.87 316.045C149.184 317.118 149.922 318.575 149.922 320.093V342.997C149.922 344.515 149.184 345.972 147.87 347.046C146.557 348.12 144.775 348.723 142.917 348.723C141.06 348.723 139.278 348.12 137.965 347.046C136.651 345.972 135.913 344.515 135.913 342.997V320.093ZM177.939 245.657C177.939 244.138 178.677 242.682 179.99 241.608C181.304 240.534 183.085 239.931 184.943 239.931C186.801 239.931 188.582 240.534 189.896 241.608C191.209 242.682 191.947 244.138 191.947 245.657V302.916C191.947 304.434 191.209 305.891 189.896 306.965C188.582 308.038 186.801 308.642 184.943 308.642C183.085 308.642 181.304 308.038 179.99 306.965C178.677 305.891 177.939 304.434 177.939 302.916V245.657ZM177.939 320.093C177.939 318.575 178.677 317.118 179.99 316.045C181.304 314.971 183.085 314.368 184.943 314.368C186.801 314.368 188.582 314.971 189.896 316.045C191.209 317.118 191.947 318.575 191.947 320.093V342.997C191.947 344.515 191.209 345.972 189.896 347.046C188.582 348.12 186.801 348.723 184.943 348.723C183.085 348.723 181.304 348.12 179.99 347.046C178.677 345.972 177.939 344.515 177.939 342.997V320.093ZM156.926 245.657C156.926 244.138 157.664 242.682 158.977 241.608C160.291 240.534 162.073 239.931 163.93 239.931C165.788 239.931 167.569 240.534 168.883 241.608C170.196 242.682 170.934 244.138 170.934 245.657V268.561C170.934 270.079 170.196 271.536 168.883 272.609C167.569 273.683 165.788 274.286 163.93 274.286C162.073 274.286 160.291 273.683 158.977 272.609C157.664 271.536 156.926 270.079 156.926 268.561V245.657ZM114.9 285.738C114.9 284.22 115.638 282.763 116.952 281.689C118.265 280.616 120.047 280.012 121.905 280.012C123.762 280.012 125.544 280.616 126.857 281.689C128.171 282.763 128.909 284.22 128.909 285.738V342.997C128.909 344.515 128.171 345.972 126.857 347.046C125.544 348.12 123.762 348.723 121.905 348.723C120.047 348.723 118.265 348.12 116.952 347.046C115.638 345.972 114.9 344.515 114.9 342.997V285.738ZM114.9 245.657C114.9 244.138 115.638 242.682 116.952 241.608C118.265 240.534 120.047 239.931 121.905 239.931C123.762 239.931 125.544 240.534 126.857 241.608C128.171 242.682 128.909 244.138 128.909 245.657V268.561C128.909 270.079 128.171 271.536 126.857 272.609C125.544 273.683 123.762 274.286 121.905 274.286C120.047 274.286 118.265 273.683 116.952 272.609C115.638 271.536 114.9 270.079 114.9 268.561V245.657ZM198.951 285.738C198.951 284.22 199.689 282.763 201.003 281.689C202.317 280.616 204.098 280.012 205.956 280.012C207.813 280.012 209.595 280.616 210.908 281.689C212.222 282.763 212.96 284.22 212.96 285.738V342.997C212.96 344.515 212.222 345.972 210.908 347.046C209.595 348.12 207.813 348.723 205.956 348.723C204.098 348.723 202.317 348.12 201.003 347.046C199.689 345.972 198.951 344.515 198.951 342.997V285.738ZM198.951 245.657C198.951 244.138 199.689 242.682 201.003 241.608C202.317 240.534 204.098 239.931 205.956 239.931C207.813 239.931 209.595 240.534 210.908 241.608C212.222 242.682 212.96 244.138 212.96 245.657V268.561C212.96 270.079 212.222 271.536 210.908 272.609C209.595 273.683 207.813 274.286 205.956 274.286C204.098 274.286 202.317 273.683 201.003 272.609C199.689 271.536 198.951 270.079 198.951 268.561V245.657Z" fill="#1E2440"/>
<path fill-rule="evenodd" clip-rule="evenodd" d="M28.0169 245.657C28.0169 244.138 28.7549 242.682 30.0684 241.608C31.382 240.534 33.1635 239.931 35.0212 239.931C36.8788 239.931 38.6604 240.534 39.9739 241.608C41.2875 242.682 42.0254 244.138 42.0254 245.657V302.916C42.0254 304.434 41.2875 305.891 39.9739 306.965C38.6604 308.038 36.8788 308.642 35.0212 308.642C33.1635 308.642 31.382 308.038 30.0684 306.965C28.7549 305.891 28.0169 304.434 28.0169 302.916V245.657ZM49.0297 285.738C49.0297 284.22 49.7676 282.763 51.0812 281.689C52.3947 280.616 54.1763 280.012 56.0339 280.012C57.8916 280.012 59.6732 280.616 60.9867 281.689C62.3003 282.763 63.0382 284.22 63.0382 285.738V342.997C63.0382 344.515 62.3003 345.972 60.9867 347.046C59.6732 348.12 57.8916 348.723 56.0339 348.723C54.1763 348.723 52.3947 348.12 51.0812 347.046C49.7676 345.972 49.0297 344.515 49.0297 342.997V285.738ZM28.0169 320.093C28.0169 318.575 28.7549 317.118 30.0684 316.045C31.382 314.971 33.1635 314.368 35.0212 314.368C36.8788 314.368 38.6604 314.971 39.9739 316.045C41.2875 317.118 42.0254 318.575 42.0254 320.093V342.997C42.0254 344.515 41.2875 345.972 39.9739 347.046C38.6604 348.12 36.8788 348.723 35.0212 348.723C33.1635 348.723 31.382 348.12 30.0684 347.046C28.7549 345.972 28.0169 344.515 28.0169 342.997V320.093ZM70.0425 245.657C70.0425 244.138 70.7804 242.682 72.094 241.608C73.4075 240.534 75.1891 239.931 77.0467 239.931C78.9044 239.931 80.6859 240.534 81.9995 241.608C83.313 242.682 84.051 244.138 84.051 245.657V302.916C84.051 304.434 83.313 305.891 81.9995 306.965C80.6859 308.038 78.9044 308.642 77.0467 308.642C75.1891 308.642 73.4075 308.038 72.094 306.965C70.7804 305.891 70.0425 304.434 70.0425 302.916V245.657ZM70.0425 320.093C70.0425 318.575 70.7804 317.118 72.094 316.045C73.4075 314.971 75.1891 314.368 77.0467 314.368C78.9044 314.368 80.6859 314.971 81.9995 316.045C83.313 317.118 84.051 318.575 84.051 320.093V342.997C84.051 344.515 83.313 345.972 81.9995 347.046C80.6859 348.12 78.9044 348.723 77.0467 348.723C75.1891 348.723 73.4075 348.12 72.094 347.046C70.7804 345.972 70.0425 344.515 70.0425 342.997V320.093ZM49.0297 245.657C49.0297 244.138 49.7676 242.682 51.0812 241.608C52.3947 240.534 54.1763 239.931 56.0339 239.931C57.8916 239.931 59.6732 240.534 60.9867 241.608C62.3003 242.682 63.0382 244.138 63.0382 245.657V268.561C63.0382 270.079 62.3003 271.536 60.9867 272.609C59.6732 273.683 57.8916 274.286 56.0339 274.286C54.1763 274.286 52.3947 273.683 51.0812 272.609C49.7676 271.536 49.0297 270.079 49.0297 268.561V245.657ZM7.00415 285.738C7.00415 284.22 7.7421 282.763 9.05565 281.689C10.3692 280.616 12.1508 280.012 14.0084 280.012C15.8661 280.012 17.6476 280.616 18.9612 281.689C20.2747 282.763 21.0127 284.22 21.0127 285.738V342.997C21.0127 344.515 20.2747 345.972 18.9612 347.046C17.6476 348.12 15.8661 348.723 14.0084 348.723C12.1508 348.723 10.3692 348.12 9.05565 347.046C7.7421 345.972 7.00415 344.515 7.00415 342.997V285.738ZM7.00415 245.657C7.00415 244.138 7.7421 242.682 9.05565 241.608C10.3692 240.534 12.1508 239.931 14.0084 239.931C15.8661 239.931 17.6476 240.534 18.9612 241.608C20.2747 242.682 21.0127 244.138 21.0127 245.657V268.561C21.0127 270.079 20.2747 271.536 18.9612 272.609C17.6476 273.683 15.8661 274.286 14.0084 274.286C12.1508 274.286 10.3692 273.683 9.05565 272.609C7.7421 271.536 7.00415 270.079 7.00415 268.561V245.657ZM91.0552 285.738C91.0552 284.22 91.7932 282.763 93.1067 281.689C94.4203 280.616 96.2018 280.012 98.0595 280.012C99.9171 280.012 101.699 280.616 103.012 281.689C104.326 282.763 105.064 284.22 105.064 285.738V342.997C105.064 344.515 104.326 345.972 103.012 347.046C101.699 348.12 99.9171 348.723 98.0595 348.723C96.2018 348.723 94.4203 348.12 93.1067 347.046C91.7932 345.972 91.0552 344.515 91.0552 342.997V285.738ZM91.0552 245.657C91.0552 244.138 91.7932 242.682 93.1067 241.608C94.4203 240.534 96.2018 239.931 98.0595 239.931C99.9171 239.931 101.699 240.534 103.012 241.608C104.326 242.682 105.064 244.138 105.064 245.657V268.561C105.064 270.079 104.326 271.536 103.012 272.609C101.699 273.683 99.9171 274.286 98.0595 274.286C96.2018 274.286 94.4203 273.683 93.1067 272.609C91.7932 271.536 91.0552 270.079 91.0552 268.561V245.657Z" fill="#1E2440"/>
<path fill-rule="evenodd" clip-rule="evenodd" d="M28.0169 129.003C28.0169 127.484 28.7549 126.028 30.0684 124.954C31.382 123.88 33.1635 123.277 35.0212 123.277C36.8788 123.277 38.6604 123.88 39.9739 124.954C41.2875 126.028 42.0254 127.484 42.0254 129.003V186.262C42.0254 187.78 41.2875 189.237 39.9739 190.311C38.6604 191.384 36.8788 191.988 35.0212 191.988C33.1635 191.988 31.382 191.384 30.0684 190.311C28.7549 189.237 28.0169 187.78 28.0169 186.262V129.003ZM49.0297 169.084C49.0297 167.566 49.7676 166.109 51.0812 165.035C52.3947 163.962 54.1763 163.358 56.0339 163.358C57.8916 163.358 59.6731 163.962 60.9867 165.035C62.3003 166.109 63.0382 167.566 63.0382 169.084V226.343C63.0382 227.862 62.3003 229.318 60.9867 230.392C59.6731 231.466 57.8916 232.069 56.0339 232.069C54.1763 232.069 52.3947 231.466 51.0812 230.392C49.7676 229.318 49.0297 227.862 49.0297 226.343V169.084ZM28.0169 203.439C28.0169 201.921 28.7549 200.464 30.0684 199.391C31.382 198.317 33.1635 197.714 35.0212 197.714C36.8788 197.714 38.6604 198.317 39.9739 199.391C41.2875 200.464 42.0254 201.921 42.0254 203.439V226.343C42.0254 227.862 41.2875 229.318 39.9739 230.392C38.6604 231.466 36.8788 232.069 35.0212 232.069C33.1635 232.069 31.382 231.466 30.0684 230.392C28.7549 229.318 28.0169 227.862 28.0169 226.343V203.439ZM70.0425 129.003C70.0425 127.484 70.7804 126.028 72.094 124.954C73.4075 123.88 75.1891 123.277 77.0467 123.277C78.9044 123.277 80.6859 123.88 81.9995 124.954C83.313 126.028 84.051 127.484 84.051 129.003V186.262C84.051 187.78 83.313 189.237 81.9995 190.311C80.6859 191.384 78.9044 191.988 77.0467 191.988C75.1891 191.988 73.4075 191.384 72.094 190.311C70.7804 189.237 70.0425 187.78 70.0425 186.262V129.003ZM70.0425 203.439C70.0425 201.921 70.7804 200.464 72.094 199.391C73.4075 198.317 75.1891 197.714 77.0467 197.714C78.9044 197.714 80.6859 198.317 81.9995 199.391C83.313 200.464 84.051 201.921 84.051 203.439V226.343C84.051 227.862 83.313 229.318 81.9995 230.392C80.6859 231.466 78.9044 232.069 77.0467 232.069C75.1891 232.069 73.4075 231.466 72.094 230.392C70.7804 229.318 70.0425 227.862 70.0425 226.343V203.439ZM49.0297 129.003C49.0297 127.484 49.7676 126.028 51.0812 124.954C52.3947 123.88 54.1763 123.277 56.0339 123.277C57.8916 123.277 59.6731 123.88 60.9867 124.954C62.3003 126.028 63.0382 127.484 63.0382 129.003V151.907C63.0382 153.425 62.3003 154.882 60.9867 155.955C59.6731 157.029 57.8916 157.632 56.0339 157.632C54.1763 157.632 52.3947 157.029 51.0812 155.955C49.7676 154.882 49.0297 153.425 49.0297 151.907V129.003ZM7.00415 169.084C7.00415 167.566 7.7421 166.109 9.05565 165.035C10.3692 163.962 12.1508 163.358 14.0084 163.358C15.8661 163.358 17.6476 163.962 18.9612 165.035C20.2747 166.109 21.0127 167.566 21.0127 169.084V226.343C21.0127 227.862 20.2747 229.318 18.9612 230.392C17.6476 231.466 15.8661 232.069 14.0084 232.069C12.1508 232.069 10.3692 231.466 9.05565 230.392C7.7421 229.318 7.00415 227.862 7.00415 226.343V169.084ZM7.00415 129.003C7.00415 127.484 7.7421 126.028 9.05565 124.954C10.3692 123.88 12.1508 123.277 14.0084 123.277C15.8661 123.277 17.6476 123.88 18.9612 124.954C20.2747 126.028 21.0127 127.484 21.0127 129.003V151.907C21.0127 153.425 20.2747 154.882 18.9612 155.955C17.6476 157.029 15.8661 157.632 14.0084 157.632C12.1508 157.632 10.3692 157.029 9.05565 155.955C7.7421 154.882 7.00415 153.425 7.00415 151.907V129.003ZM91.0552 169.084C91.0552 167.566 91.7932 166.109 93.1067 165.035C94.4203 163.962 96.2018 163.358 98.0595 163.358C99.9171 163.358 101.699 163.962 103.012 165.035C104.326 166.109 105.064 167.566 105.064 169.084V226.343C105.064 227.862 104.326 229.318 103.012 230.392C101.699 231.466 99.9171 232.069 98.0595 232.069C96.2018 232.069 94.4203 231.466 93.1067 230.392C91.7932 229.318 91.0552 227.862 91.0552 226.343V169.084ZM91.0552 129.003C91.0552 127.484 91.7932 126.028 93.1067 124.954C94.4203 123.88 96.2018 123.277 98.0595 123.277C99.9171 123.277 101.699 123.88 103.012 124.954C104.326 126.028 105.064 127.484 105.064 129.003V151.907C105.064 153.425 104.326 154.882 103.012 155.955C101.699 157.029 99.9171 157.632 98.0595 157.632C96.2018 157.632 94.4203 157.029 93.1067 155.955C91.7932 154.882 91.0552 153.425 91.0552 151.907V129.003Z" fill="#1E2440"/>
<path fill-rule="evenodd" clip-rule="evenodd" d="M245.775 128.106C245.775 126.587 246.513 125.131 247.827 124.057C249.14 122.983 250.922 122.38 252.779 122.38C254.637 122.38 256.419 122.983 257.732 124.057C259.046 125.131 259.784 126.587 259.784 128.106V185.365C259.784 186.883 259.046 188.339 257.732 189.413C256.419 190.487 254.637 191.09 252.779 191.09C250.922 191.09 249.14 190.487 247.827 189.413C246.513 188.339 245.775 186.883 245.775 185.365V128.106ZM266.788 168.187C266.788 166.668 267.526 165.212 268.839 164.138C270.153 163.064 271.935 162.461 273.792 162.461C275.65 162.461 277.431 163.064 278.745 164.138C280.059 165.212 280.797 166.668 280.797 168.187V225.446C280.797 226.964 280.059 228.421 278.745 229.494C277.431 230.568 275.65 231.171 273.792 231.171C271.935 231.171 270.153 230.568 268.839 229.494C267.526 228.421 266.788 226.964 266.788 225.446V168.187ZM245.775 202.542C245.775 201.024 246.513 199.567 247.827 198.493C249.14 197.42 250.922 196.816 252.779 196.816C254.637 196.816 256.419 197.42 257.732 198.493C259.046 199.567 259.784 201.024 259.784 202.542V225.446C259.784 226.964 259.046 228.421 257.732 229.494C256.419 230.568 254.637 231.171 252.779 231.171C250.922 231.171 249.14 230.568 247.827 229.494C246.513 228.421 245.775 226.964 245.775 225.446V202.542ZM287.801 128.106C287.801 126.587 288.539 125.131 289.852 124.057C291.166 122.983 292.947 122.38 294.805 122.38C296.663 122.38 298.444 122.983 299.758 124.057C301.071 125.131 301.809 126.587 301.809 128.106V185.365C301.809 186.883 301.071 188.339 299.758 189.413C298.444 190.487 296.663 191.09 294.805 191.09C292.947 191.09 291.166 190.487 289.852 189.413C288.539 188.339 287.801 186.883 287.801 185.365V128.106ZM287.801 202.542C287.801 201.024 288.539 199.567 289.852 198.493C291.166 197.42 292.947 196.816 294.805 196.816C296.663 196.816 298.444 197.42 299.758 198.493C301.071 199.567 301.809 201.024 301.809 202.542V225.446C301.809 226.964 301.071 228.421 299.758 229.494C298.444 230.568 296.663 231.171 294.805 231.171C292.947 231.171 291.166 230.568 289.852 229.494C288.539 228.421 287.801 226.964 287.801 225.446V202.542ZM266.788 128.106C266.788 126.587 267.526 125.131 268.839 124.057C270.153 122.983 271.935 122.38 273.792 122.38C275.65 122.38 277.431 122.983 278.745 124.057C280.059 125.131 280.797 126.587 280.797 128.106V151.009C280.797 152.528 280.059 153.984 278.745 155.058C277.431 156.132 275.65 156.735 273.792 156.735C271.935 156.735 270.153 156.132 268.839 155.058C267.526 153.984 266.788 152.528 266.788 151.009V128.106ZM224.762 168.187C224.762 166.668 225.5 165.212 226.814 164.138C228.128 163.064 229.909 162.461 231.767 162.461C233.624 162.461 235.406 163.064 236.719 164.138C238.033 165.212 238.771 166.668 238.771 168.187V225.446C238.771 226.964 238.033 228.421 236.719 229.494C235.406 230.568 233.624 231.171 231.767 231.171C229.909 231.171 228.128 230.568 226.814 229.494C225.5 228.421 224.762 226.964 224.762 225.446V168.187ZM224.762 128.106C224.762 126.587 225.5 125.131 226.814 124.057C228.128 122.983 229.909 122.38 231.767 122.38C233.624 122.38 235.406 122.983 236.719 124.057C238.033 125.131 238.771 126.587 238.771 128.106V151.009C238.771 152.528 238.033 153.984 236.719 155.058C235.406 156.132 233.624 156.735 231.767 156.735C229.909 156.735 228.128 156.132 226.814 155.058C225.5 153.984 224.762 152.528 224.762 151.009V128.106ZM308.814 168.187C308.814 166.668 309.551 165.212 310.865 164.138C312.179 163.064 313.96 162.461 315.818 162.461C317.675 162.461 319.457 163.064 320.771 164.138C322.084 165.212 322.822 166.668 322.822 168.187V225.446C322.822 226.964 322.084 228.421 320.771 229.494C319.457 230.568 317.675 231.171 315.818 231.171C313.96 231.171 312.179 230.568 310.865 229.494C309.551 228.421 308.814 226.964 308.814 225.446V168.187ZM308.814 128.106C308.814 126.587 309.551 125.131 310.865 124.057C312.179 122.983 313.96 122.38 315.818 122.38C317.675 122.38 319.457 122.983 320.771 124.057C322.084 125.131 322.822 126.587 322.822 128.106V151.009C322.822 152.528 322.084 153.984 320.771 155.058C319.457 156.132 317.675 156.735 315.818 156.735C313.96 156.735 312.179 156.132 310.865 155.058C309.551 153.984 308.814 152.528 308.814 151.009V128.106Z" fill="#1E2440"/>
<path fill-rule="evenodd" clip-rule="evenodd" d="M28.0169 363.208C28.0169 361.69 28.7549 360.233 30.0684 359.159C31.382 358.086 33.1635 357.482 35.0212 357.482C36.8788 357.482 38.6604 358.086 39.9739 359.159C41.2875 360.233 42.0254 361.69 42.0254 363.208V420.467C42.0254 421.986 41.2875 423.442 39.9739 424.516C38.6604 425.59 36.8788 426.193 35.0212 426.193C33.1635 426.193 31.382 425.59 30.0684 424.516C28.7549 423.442 28.0169 421.986 28.0169 420.467V363.208ZM49.0297 403.289C49.0297 401.771 49.7676 400.314 51.0812 399.241C52.3947 398.167 54.1763 397.564 56.0339 397.564C57.8916 397.564 59.6732 398.167 60.9867 399.241C62.3003 400.314 63.0382 401.771 63.0382 403.289V460.548C63.0382 462.067 62.3003 463.523 60.9867 464.597C59.6732 465.671 57.8916 466.274 56.0339 466.274C54.1763 466.274 52.3947 465.671 51.0812 464.597C49.7676 463.523 49.0297 462.067 49.0297 460.548V403.289ZM28.0169 437.645C28.0169 436.126 28.7549 434.67 30.0684 433.596C31.382 432.522 33.1635 431.919 35.0212 431.919C36.8788 431.919 38.6604 432.522 39.9739 433.596C41.2875 434.67 42.0254 436.126 42.0254 437.645V460.548C42.0254 462.067 41.2875 463.523 39.9739 464.597C38.6604 465.671 36.8788 466.274 35.0212 466.274C33.1635 466.274 31.382 465.671 30.0684 464.597C28.7549 463.523 28.0169 462.067 28.0169 460.548V437.645ZM70.0425 363.208C70.0425 361.69 70.7804 360.233 72.094 359.159C73.4075 358.086 75.1891 357.482 77.0467 357.482C78.9044 357.482 80.6859 358.086 81.9995 359.159C83.313 360.233 84.051 361.69 84.051 363.208V420.467C84.051 421.986 83.313 423.442 81.9995 424.516C80.6859 425.59 78.9044 426.193 77.0467 426.193C75.1891 426.193 73.4075 425.59 72.094 424.516C70.7804 423.442 70.0425 421.986 70.0425 420.467V363.208ZM70.0425 437.645C70.0425 436.126 70.7804 434.67 72.094 433.596C73.4075 432.522 75.1891 431.919 77.0467 431.919C78.9044 431.919 80.6859 432.522 81.9995 433.596C83.313 434.67 84.051 436.126 84.051 437.645V460.548C84.051 462.067 83.313 463.523 81.9995 464.597C80.6859 465.671 78.9044 466.274 77.0467 466.274C75.1891 466.274 73.4075 465.671 72.094 464.597C70.7804 463.523 70.0425 462.067 70.0425 460.548V437.645ZM49.0297 363.208C49.0297 361.69 49.7676 360.233 51.0812 359.159C52.3947 358.086 54.1763 357.482 56.0339 357.482C57.8916 357.482 59.6732 358.086 60.9867 359.159C62.3003 360.233 63.0382 361.69 63.0382 363.208V386.112C63.0382 387.63 62.3003 389.087 60.9867 390.161C59.6732 391.234 57.8916 391.838 56.0339 391.838C54.1763 391.838 52.3947 391.234 51.0812 390.161C49.7676 389.087 49.0297 387.63 49.0297 386.112V363.208ZM7.00415 403.289C7.00415 401.771 7.7421 400.314 9.05565 399.241C10.3692 398.167 12.1508 397.564 14.0084 397.564C15.8661 397.564 17.6476 398.167 18.9612 399.241C20.2747 400.314 21.0127 401.771 21.0127 403.289V460.548C21.0127 462.067 20.2747 463.523 18.9612 464.597C17.6476 465.671 15.8661 466.274 14.0084 466.274C12.1508 466.274 10.3692 465.671 9.05565 464.597C7.7421 463.523 7.00415 462.067 7.00415 460.548V403.289ZM7.00415 363.208C7.00415 361.69 7.7421 360.233 9.05565 359.159C10.3692 358.086 12.1508 357.482 14.0084 357.482C15.8661 357.482 17.6476 358.086 18.9612 359.159C20.2747 360.233 21.0127 361.69 21.0127 363.208V386.112C21.0127 387.63 20.2747 389.087 18.9612 390.161C17.6476 391.234 15.8661 391.838 14.0084 391.838C12.1508 391.838 10.3692 391.234 9.05565 390.161C7.7421 389.087 7.00415 387.63 7.00415 386.112V363.208ZM91.0552 403.289C91.0552 401.771 91.7932 400.314 93.1067 399.241C94.4203 398.167 96.2018 397.564 98.0595 397.564C99.9171 397.564 101.699 398.167 103.012 399.241C104.326 400.314 105.064 401.771 105.064 403.289V460.548C105.064 462.067 104.326 463.523 103.012 464.597C101.699 465.671 99.9171 466.274 98.0595 466.274C96.2018 466.274 94.4203 465.671 93.1067 464.597C91.7932 463.523 91.0552 462.067 91.0552 460.548V403.289ZM91.0552 363.208C91.0552 361.69 91.7932 360.233 93.1067 359.159C94.4203 358.086 96.2018 357.482 98.0595 357.482C99.9171 357.482 101.699 358.086 103.012 359.159C104.326 360.233 105.064 361.69 105.064 363.208V386.112C105.064 387.63 104.326 389.087 103.012 390.161C101.699 391.234 99.9171 391.838 98.0595 391.838C96.2018 391.838 94.4203 391.234 93.1067 390.161C91.7932 389.087 91.0552 387.63 91.0552 386.112V363.208Z" fill="#1E2440"/>
<path fill-rule="evenodd" clip-rule="evenodd" d="M135.528 11.4517C135.528 9.93311 136.296 8.47671 137.663 7.4029C139.03 6.32909 140.884 5.72583 142.817 5.72583C144.75 5.72583 146.604 6.32909 147.971 7.4029C149.338 8.47671 150.106 9.93311 150.106 11.4517V68.7104C150.106 70.229 149.338 71.6854 147.971 72.7593C146.604 73.8331 144.75 74.4363 142.817 74.4363C140.884 74.4363 139.03 73.8331 137.663 72.7593C136.296 71.6854 135.528 70.229 135.528 68.7104V11.4517ZM157.395 51.5328C157.395 50.0142 158.163 48.5578 159.53 47.484C160.897 46.4102 162.751 45.8069 164.684 45.8069C166.617 45.8069 168.471 46.4102 169.838 47.484C171.205 48.5578 171.973 50.0142 171.973 51.5328V108.792C171.973 110.31 171.205 111.767 169.838 112.84C168.471 113.914 166.617 114.517 164.684 114.517C162.751 114.517 160.897 113.914 159.53 112.84C158.163 111.767 157.395 110.31 157.395 108.792V51.5328ZM135.528 85.8881C135.528 84.3695 136.296 82.9131 137.663 81.8393C139.03 80.7654 140.884 80.1622 142.817 80.1622C144.75 80.1622 146.604 80.7654 147.971 81.8393C149.338 82.9131 150.106 84.3695 150.106 85.8881V108.792C150.106 110.31 149.338 111.767 147.971 112.84C146.604 113.914 144.75 114.517 142.817 114.517C140.884 114.517 139.03 113.914 137.663 112.84C136.296 111.767 135.528 110.31 135.528 108.792V85.8881ZM179.262 11.4517C179.262 9.93311 180.03 8.47671 181.397 7.4029C182.764 6.32909 184.618 5.72583 186.551 5.72583C188.484 5.72583 190.338 6.32909 191.705 7.4029C193.072 8.47671 193.84 9.93311 193.84 11.4517V68.7104C193.84 70.229 193.072 71.6854 191.705 72.7593C190.338 73.8331 188.484 74.4363 186.551 74.4363C184.618 74.4363 182.764 73.8331 181.397 72.7593C180.03 71.6854 179.262 70.229 179.262 68.7104V11.4517ZM179.262 85.8881C179.262 84.3695 180.03 82.9131 181.397 81.8393C182.764 80.7654 184.618 80.1622 186.551 80.1622C188.484 80.1622 190.338 80.7654 191.705 81.8393C193.072 82.9131 193.84 84.3695 193.84 85.8881V108.792C193.84 110.31 193.072 111.767 191.705 112.84C190.338 113.914 188.484 114.517 186.551 114.517C184.618 114.517 182.764 113.914 181.397 112.84C180.03 111.767 179.262 110.31 179.262 108.792V85.8881ZM157.395 11.4517C157.395 9.93311 158.163 8.47671 159.53 7.4029C160.897 6.32909 162.751 5.72583 164.684 5.72583C166.617 5.72583 168.471 6.32909 169.838 7.4029C171.205 8.47671 171.973 9.93311 171.973 11.4517V34.3552C171.973 35.8738 171.205 37.3302 169.838 38.404C168.471 39.4778 166.617 40.0811 164.684 40.0811C162.751 40.0811 160.897 39.4778 159.53 38.404C158.163 37.3302 157.395 35.8738 157.395 34.3552V11.4517ZM113.661 51.5328C113.661 50.0142 114.429 48.5578 115.796 47.484C117.163 46.4102 119.017 45.8069 120.95 45.8069C122.883 45.8069 124.737 46.4102 126.104 47.484C127.471 48.5578 128.239 50.0142 128.239 51.5328V108.792C128.239 110.31 127.471 111.767 126.104 112.84C124.737 113.914 122.883 114.517 120.95 114.517C119.017 114.517 117.163 113.914 115.796 112.84C114.429 111.767 113.661 110.31 113.661 108.792V51.5328ZM113.661 11.4517C113.661 9.93311 114.429 8.47671 115.796 7.4029C117.163 6.32909 119.017 5.72583 120.95 5.72583C122.883 5.72583 124.737 6.32909 126.104 7.4029C127.471 8.47671 128.239 9.93311 128.239 11.4517V34.3552C128.239 35.8738 127.471 37.3302 126.104 38.404C124.737 39.4778 122.883 40.0811 120.95 40.0811C119.017 40.0811 117.163 39.4778 115.796 38.404C114.429 37.3302 113.661 35.8738 113.661 34.3552V11.4517ZM201.129 51.5328C201.129 50.0142 201.897 48.5578 203.264 47.484C204.631 46.4102 206.485 45.8069 208.418 45.8069C210.351 45.8069 212.205 46.4102 213.572 47.484C214.939 48.5578 215.707 50.0142 215.707 51.5328V108.792C215.707 110.31 214.939 111.767 213.572 112.84C212.205 113.914 210.351 114.517 208.418 114.517C206.485 114.517 204.631 113.914 203.264 112.84C201.897 111.767 201.129 110.31 201.129 108.792V51.5328ZM201.129 11.4517C201.129 9.93311 201.897 8.47671 203.264 7.4029C204.631 6.32909 206.485 5.72583 208.418 5.72583C210.351 5.72583 212.205 6.32909 213.572 7.4029C214.939 8.47671 215.707 9.93311 215.707 11.4517V34.3552C215.707 35.8738 214.939 37.3302 213.572 38.404C212.205 39.4778 210.351 40.0811 208.418 40.0811C206.485 40.0811 204.631 39.4778 203.264 38.404C201.897 37.3302 201.129 35.8738 201.129 34.3552V11.4517Z" fill="#1E2440"/>
<path fill-rule="evenodd" clip-rule="evenodd" d="M355.109 11.4517C355.109 9.93311 355.877 8.47671 357.244 7.4029C358.61 6.32909 360.464 5.72583 362.398 5.72583C364.331 5.72583 366.185 6.32909 367.552 7.4029C368.919 8.47671 369.687 9.93311 369.687 11.4517V68.7104C369.687 70.229 368.919 71.6854 367.552 72.7593C366.185 73.8331 364.331 74.4363 362.398 74.4363C360.464 74.4363 358.61 73.8331 357.244 72.7593C355.877 71.6854 355.109 70.229 355.109 68.7104V11.4517ZM376.976 51.5328C376.976 50.0142 377.744 48.5578 379.11 47.484C380.477 46.4102 382.331 45.8069 384.265 45.8069C386.198 45.8069 388.052 46.4102 389.419 47.484C390.786 48.5578 391.554 50.0142 391.554 51.5328V108.792C391.554 110.31 390.786 111.767 389.419 112.84C388.052 113.914 386.198 114.517 384.265 114.517C382.331 114.517 380.477 113.914 379.11 112.84C377.744 111.767 376.976 110.31 376.976 108.792V51.5328ZM355.109 85.8881C355.109 84.3695 355.877 82.9131 357.244 81.8393C358.61 80.7654 360.464 80.1622 362.398 80.1622C364.331 80.1622 366.185 80.7654 367.552 81.8393C368.919 82.9131 369.687 84.3695 369.687 85.8881V108.792C369.687 110.31 368.919 111.767 367.552 112.84C366.185 113.914 364.331 114.517 362.398 114.517C360.464 114.517 358.61 113.914 357.244 112.84C355.877 111.767 355.109 110.31 355.109 108.792V85.8881ZM398.843 11.4517C398.843 9.93311 399.61 8.47671 400.977 7.4029C402.344 6.32909 404.198 5.72583 406.132 5.72583C408.065 5.72583 409.919 6.32909 411.286 7.4029C412.653 8.47671 413.421 9.93311 413.421 11.4517V68.7104C413.421 70.229 412.653 71.6854 411.286 72.7593C409.919 73.8331 408.065 74.4363 406.132 74.4363C404.198 74.4363 402.344 73.8331 400.977 72.7593C399.61 71.6854 398.843 70.229 398.843 68.7104V11.4517ZM398.843 85.8881C398.843 84.3695 399.61 82.9131 400.977 81.8393C402.344 80.7654 404.198 80.1622 406.132 80.1622C408.065 80.1622 409.919 80.7654 411.286 81.8393C412.653 82.9131 413.421 84.3695 413.421 85.8881V108.792C413.421 110.31 412.653 111.767 411.286 112.84C409.919 113.914 408.065 114.517 406.132 114.517C404.198 114.517 402.344 113.914 400.977 112.84C399.61 111.767 398.843 110.31 398.843 108.792V85.8881ZM376.976 11.4517C376.976 9.93311 377.744 8.47671 379.11 7.4029C380.477 6.32909 382.331 5.72583 384.265 5.72583C386.198 5.72583 388.052 6.32909 389.419 7.4029C390.786 8.47671 391.554 9.93311 391.554 11.4517V34.3552C391.554 35.8738 390.786 37.3302 389.419 38.404C388.052 39.4778 386.198 40.0811 384.265 40.0811C382.331 40.0811 380.477 39.4778 379.11 38.404C377.744 37.3302 376.976 35.8738 376.976 34.3552V11.4517ZM333.242 51.5328C333.242 50.0142 334.01 48.5578 335.377 47.484C336.744 46.4102 338.598 45.8069 340.531 45.8069C342.464 45.8069 344.318 46.4102 345.685 47.484C347.052 48.5578 347.82 50.0142 347.82 51.5328V108.792C347.82 110.31 347.052 111.767 345.685 112.84C344.318 113.914 342.464 114.517 340.531 114.517C338.598 114.517 336.744 113.914 335.377 112.84C334.01 111.767 333.242 110.31 333.242 108.792V51.5328ZM333.242 11.4517C333.242 9.93311 334.01 8.47671 335.377 7.4029C336.744 6.32909 338.598 5.72583 340.531 5.72583C342.464 5.72583 344.318 6.32909 345.685 7.4029C347.052 8.47671 347.82 9.93311 347.82 11.4517V34.3552C347.82 35.8738 347.052 37.3302 345.685 38.404C344.318 39.4778 342.464 40.0811 340.531 40.0811C338.598 40.0811 336.744 39.4778 335.377 38.404C334.01 37.3302 333.242 35.8738 333.242 34.3552V11.4517ZM420.709 51.5328C420.709 50.0142 421.477 48.5578 422.844 47.484C424.211 46.4102 426.065 45.8069 427.998 45.8069C429.932 45.8069 431.786 46.4102 433.153 47.484C434.52 48.5578 435.287 50.0142 435.287 51.5328V108.792C435.287 110.31 434.52 111.767 433.153 112.84C431.786 113.914 429.932 114.517 427.998 114.517C426.065 114.517 424.211 113.914 422.844 112.84C421.477 111.767 420.709 110.31 420.709 108.792V51.5328ZM420.709 11.4517C420.709 9.93311 421.477 8.47671 422.844 7.4029C424.211 6.32909 426.065 5.72583 427.998 5.72583C429.932 5.72583 431.786 6.32909 433.153 7.4029C434.52 8.47671 435.287 9.93311 435.287 11.4517V34.3552C435.287 35.8738 434.52 37.3302 433.153 38.404C431.786 39.4778 429.932 40.0811 427.998 40.0811C426.065 40.0811 424.211 39.4778 422.844 38.404C421.477 37.3302 420.709 35.8738 420.709 34.3552V11.4517Z" fill="#1E2440"/>
<path fill-rule="evenodd" clip-rule="evenodd" d="M243.654 245.657C243.654 244.138 244.422 242.682 245.788 241.608C247.155 240.534 249.009 239.931 250.943 239.931C252.876 239.931 254.73 240.534 256.097 241.608C257.464 242.682 258.232 244.138 258.232 245.657V302.916C258.232 304.434 257.464 305.891 256.097 306.965C254.73 308.038 252.876 308.642 250.943 308.642C249.009 308.642 247.155 308.038 245.788 306.965C244.422 305.891 243.654 304.434 243.654 302.916V245.657ZM265.521 285.738C265.521 284.22 266.288 282.763 267.655 281.689C269.022 280.616 270.876 280.012 272.809 280.012C274.743 280.012 276.597 280.616 277.964 281.689C279.331 282.763 280.098 284.22 280.098 285.738V342.997C280.098 344.515 279.331 345.972 277.964 347.046C276.597 348.12 274.743 348.723 272.809 348.723C270.876 348.723 269.022 348.12 267.655 347.046C266.288 345.972 265.521 344.515 265.521 342.997V285.738ZM243.654 320.093C243.654 318.575 244.422 317.118 245.788 316.045C247.155 314.971 249.009 314.368 250.943 314.368C252.876 314.368 254.73 314.971 256.097 316.045C257.464 317.118 258.232 318.575 258.232 320.093V342.997C258.232 344.515 257.464 345.972 256.097 347.046C254.73 348.12 252.876 348.723 250.943 348.723C249.009 348.723 247.155 348.12 245.788 347.046C244.422 345.972 243.654 344.515 243.654 342.997V320.093ZM287.387 245.657C287.387 244.138 288.155 242.682 289.522 241.608C290.889 240.534 292.743 239.931 294.676 239.931C296.61 239.931 298.464 240.534 299.831 241.608C301.197 242.682 301.965 244.138 301.965 245.657V302.916C301.965 304.434 301.197 305.891 299.831 306.965C298.464 308.038 296.61 308.642 294.676 308.642C292.743 308.642 290.889 308.038 289.522 306.965C288.155 305.891 287.387 304.434 287.387 302.916V245.657ZM287.387 320.093C287.387 318.575 288.155 317.118 289.522 316.045C290.889 314.971 292.743 314.368 294.676 314.368C296.61 314.368 298.464 314.971 299.831 316.045C301.197 317.118 301.965 318.575 301.965 320.093V342.997C301.965 344.515 301.197 345.972 299.831 347.046C298.464 348.12 296.61 348.723 294.676 348.723C292.743 348.723 290.889 348.12 289.522 347.046C288.155 345.972 287.387 344.515 287.387 342.997V320.093ZM265.521 245.657C265.521 244.138 266.288 242.682 267.655 241.608C269.022 240.534 270.876 239.931 272.809 239.931C274.743 239.931 276.597 240.534 277.964 241.608C279.331 242.682 280.098 244.138 280.098 245.657V268.561C280.098 270.079 279.331 271.536 277.964 272.609C276.597 273.683 274.743 274.286 272.809 274.286C270.876 274.286 269.022 273.683 267.655 272.609C266.288 271.536 265.521 270.079 265.521 268.561V245.657ZM221.787 285.738C221.787 284.22 222.555 282.763 223.922 281.689C225.288 280.616 227.142 280.012 229.076 280.012C231.009 280.012 232.863 280.616 234.23 281.689C235.597 282.763 236.365 284.22 236.365 285.738V342.997C236.365 344.515 235.597 345.972 234.23 347.046C232.863 348.12 231.009 348.723 229.076 348.723C227.142 348.723 225.288 348.12 223.922 347.046C222.555 345.972 221.787 344.515 221.787 342.997V285.738ZM221.787 245.657C221.787 244.138 222.555 242.682 223.922 241.608C225.288 240.534 227.142 239.931 229.076 239.931C231.009 239.931 232.863 240.534 234.23 241.608C235.597 242.682 236.365 244.138 236.365 245.657V268.561C236.365 270.079 235.597 271.536 234.23 272.609C232.863 273.683 231.009 274.286 229.076 274.286C227.142 274.286 225.288 273.683 223.922 272.609C222.555 271.536 221.787 270.079 221.787 268.561V245.657ZM309.254 285.738C309.254 284.22 310.022 282.763 311.389 281.689C312.756 280.616 314.61 280.012 316.543 280.012C318.477 280.012 320.331 280.616 321.697 281.689C323.064 282.763 323.832 284.22 323.832 285.738V342.997C323.832 344.515 323.064 345.972 321.697 347.046C320.331 348.12 318.477 348.723 316.543 348.723C314.61 348.723 312.756 348.12 311.389 347.046C310.022 345.972 309.254 344.515 309.254 342.997V285.738ZM309.254 245.657C309.254 244.138 310.022 242.682 311.389 241.608C312.756 240.534 314.61 239.931 316.543 239.931C318.477 239.931 320.331 240.534 321.697 241.608C323.064 242.682 323.832 244.138 323.832 245.657V268.561C323.832 270.079 323.064 271.536 321.697 272.609C320.331 273.683 318.477 274.286 316.543 274.286C314.61 274.286 312.756 273.683 311.389 272.609C310.022 271.536 309.254 270.079 309.254 268.561V245.657Z" fill="#1E2440"/>
<path fill-rule="evenodd" clip-rule="evenodd" d="M135.757 129.003C135.757 127.484 136.525 126.028 137.892 124.954C139.259 123.88 141.113 123.277 143.046 123.277C144.979 123.277 146.833 123.88 148.2 124.954C149.567 126.028 150.335 127.484 150.335 129.003V186.262C150.335 187.78 149.567 189.237 148.2 190.311C146.833 191.384 144.979 191.988 143.046 191.988C141.113 191.988 139.259 191.384 137.892 190.311C136.525 189.237 135.757 187.78 135.757 186.262V129.003ZM157.624 169.084C157.624 167.566 158.392 166.109 159.759 165.035C161.126 163.962 162.98 163.358 164.913 163.358C166.846 163.358 168.7 163.962 170.067 165.035C171.434 166.109 172.202 167.566 172.202 169.084V226.343C172.202 227.862 171.434 229.318 170.067 230.392C168.7 231.466 166.846 232.069 164.913 232.069C162.98 232.069 161.126 231.466 159.759 230.392C158.392 229.318 157.624 227.862 157.624 226.343V169.084ZM135.757 203.439C135.757 201.921 136.525 200.464 137.892 199.391C139.259 198.317 141.113 197.714 143.046 197.714C144.979 197.714 146.833 198.317 148.2 199.391C149.567 200.464 150.335 201.921 150.335 203.439V226.343C150.335 227.862 149.567 229.318 148.2 230.392C146.833 231.466 144.979 232.069 143.046 232.069C141.113 232.069 139.259 231.466 137.892 230.392C136.525 229.318 135.757 227.862 135.757 226.343V203.439ZM179.491 129.003C179.491 127.484 180.259 126.028 181.626 124.954C182.993 123.88 184.847 123.277 186.78 123.277C188.713 123.277 190.567 123.88 191.934 124.954C193.301 126.028 194.069 127.484 194.069 129.003V186.262C194.069 187.78 193.301 189.237 191.934 190.311C190.567 191.384 188.713 191.988 186.78 191.988C184.847 191.988 182.993 191.384 181.626 190.311C180.259 189.237 179.491 187.78 179.491 186.262V129.003ZM179.491 203.439C179.491 201.921 180.259 200.464 181.626 199.391C182.993 198.317 184.847 197.714 186.78 197.714C188.713 197.714 190.567 198.317 191.934 199.391C193.301 200.464 194.069 201.921 194.069 203.439V226.343C194.069 227.862 193.301 229.318 191.934 230.392C190.567 231.466 188.713 232.069 186.78 232.069C184.847 232.069 182.993 231.466 181.626 230.392C180.259 229.318 179.491 227.862 179.491 226.343V203.439ZM157.624 129.003C157.624 127.484 158.392 126.028 159.759 124.954C161.126 123.88 162.98 123.277 164.913 123.277C166.846 123.277 168.7 123.88 170.067 124.954C171.434 126.028 172.202 127.484 172.202 129.003V151.907C172.202 153.425 171.434 154.882 170.067 155.955C168.7 157.029 166.846 157.632 164.913 157.632C162.98 157.632 161.126 157.029 159.759 155.955C158.392 154.882 157.624 153.425 157.624 151.907V129.003ZM113.89 169.084C113.89 167.566 114.658 166.109 116.025 165.035C117.392 163.962 119.246 163.358 121.179 163.358C123.113 163.358 124.967 163.962 126.333 165.035C127.7 166.109 128.468 167.566 128.468 169.084V226.343C128.468 227.862 127.7 229.318 126.333 230.392C124.967 231.466 123.113 232.069 121.179 232.069C119.246 232.069 117.392 231.466 116.025 230.392C114.658 229.318 113.89 227.862 113.89 226.343V169.084ZM113.89 129.003C113.89 127.484 114.658 126.028 116.025 124.954C117.392 123.88 119.246 123.277 121.179 123.277C123.113 123.277 124.967 123.88 126.333 124.954C127.7 126.028 128.468 127.484 128.468 129.003V151.907C128.468 153.425 127.7 154.882 126.333 155.955C124.967 157.029 123.113 157.632 121.179 157.632C119.246 157.632 117.392 157.029 116.025 155.955C114.658 154.882 113.89 153.425 113.89 151.907V129.003ZM201.358 169.084C201.358 167.566 202.126 166.109 203.493 165.035C204.86 163.962 206.714 163.358 208.647 163.358C210.58 163.358 212.434 163.962 213.801 165.035C215.168 166.109 215.936 167.566 215.936 169.084V226.343C215.936 227.862 215.168 229.318 213.801 230.392C212.434 231.466 210.58 232.069 208.647 232.069C206.714 232.069 204.86 231.466 203.493 230.392C202.126 229.318 201.358 227.862 201.358 226.343V169.084ZM201.358 129.003C201.358 127.484 202.126 126.028 203.493 124.954C204.86 123.88 206.714 123.277 208.647 123.277C210.58 123.277 212.434 123.88 213.801 124.954C215.168 126.028 215.936 127.484 215.936 129.003V151.907C215.936 153.425 215.168 154.882 213.801 155.955C212.434 157.029 210.58 157.632 208.647 157.632C206.714 157.632 204.86 157.029 203.493 155.955C202.126 154.882 201.358 153.425 201.358 151.907V129.003Z" fill="#1E2440"/>
<path fill-rule="evenodd" clip-rule="evenodd" d="M353.516 128.106C353.516 126.587 354.284 125.131 355.651 124.057C357.017 122.983 358.871 122.38 360.805 122.38C362.738 122.38 364.592 122.983 365.959 124.057C367.326 125.131 368.094 126.587 368.094 128.106V185.365C368.094 186.883 367.326 188.339 365.959 189.413C364.592 190.487 362.738 191.09 360.805 191.09C358.871 191.09 357.017 190.487 355.651 189.413C354.284 188.339 353.516 186.883 353.516 185.365V128.106ZM375.383 168.187C375.383 166.668 376.151 165.212 377.517 164.138C378.884 163.064 380.738 162.461 382.672 162.461C384.605 162.461 386.459 163.064 387.826 164.138C389.193 165.212 389.961 166.668 389.961 168.187V225.446C389.961 226.964 389.193 228.421 387.826 229.494C386.459 230.568 384.605 231.171 382.672 231.171C380.738 231.171 378.884 230.568 377.517 229.494C376.151 228.421 375.383 226.964 375.383 225.446V168.187ZM353.516 202.542C353.516 201.024 354.284 199.567 355.651 198.493C357.017 197.42 358.871 196.816 360.805 196.816C362.738 196.816 364.592 197.42 365.959 198.493C367.326 199.567 368.094 201.024 368.094 202.542V225.446C368.094 226.964 367.326 228.421 365.959 229.494C364.592 230.568 362.738 231.171 360.805 231.171C358.871 231.171 357.017 230.568 355.651 229.494C354.284 228.421 353.516 226.964 353.516 225.446V202.542ZM397.25 128.106C397.25 126.587 398.017 125.131 399.384 124.057C400.751 122.983 402.605 122.38 404.539 122.38C406.472 122.38 408.326 122.983 409.693 124.057C411.06 125.131 411.827 126.587 411.827 128.106V185.365C411.827 186.883 411.06 188.339 409.693 189.413C408.326 190.487 406.472 191.09 404.539 191.09C402.605 191.09 400.751 190.487 399.384 189.413C398.017 188.339 397.25 186.883 397.25 185.365V128.106ZM397.25 202.542C397.25 201.024 398.017 199.567 399.384 198.493C400.751 197.42 402.605 196.816 404.539 196.816C406.472 196.816 408.326 197.42 409.693 198.493C411.06 199.567 411.827 201.024 411.827 202.542V225.446C411.827 226.964 411.06 228.421 409.693 229.494C408.326 230.568 406.472 231.171 404.539 231.171C402.605 231.171 400.751 230.568 399.384 229.494C398.017 228.421 397.25 226.964 397.25 225.446V202.542ZM375.383 128.106C375.383 126.587 376.151 125.131 377.517 124.057C378.884 122.983 380.738 122.38 382.672 122.38C384.605 122.38 386.459 122.983 387.826 124.057C389.193 125.131 389.961 126.587 389.961 128.106V151.009C389.961 152.528 389.193 153.984 387.826 155.058C386.459 156.132 384.605 156.735 382.672 156.735C380.738 156.735 378.884 156.132 377.517 155.058C376.151 153.984 375.383 152.528 375.383 151.009V128.106ZM331.649 168.187C331.649 166.668 332.417 165.212 333.784 164.138C335.151 163.064 337.005 162.461 338.938 162.461C340.871 162.461 342.725 163.064 344.092 164.138C345.459 165.212 346.227 166.668 346.227 168.187V225.446C346.227 226.964 345.459 228.421 344.092 229.494C342.725 230.568 340.871 231.171 338.938 231.171C337.005 231.171 335.151 230.568 333.784 229.494C332.417 228.421 331.649 226.964 331.649 225.446V168.187ZM331.649 128.106C331.649 126.587 332.417 125.131 333.784 124.057C335.151 122.983 337.005 122.38 338.938 122.38C340.871 122.38 342.725 122.983 344.092 124.057C345.459 125.131 346.227 126.587 346.227 128.106V151.009C346.227 152.528 345.459 153.984 344.092 155.058C342.725 156.132 340.871 156.735 338.938 156.735C337.005 156.735 335.151 156.132 333.784 155.058C332.417 153.984 331.649 152.528 331.649 151.009V128.106ZM419.116 168.187C419.116 166.668 419.884 165.212 421.251 164.138C422.618 163.064 424.472 162.461 426.405 162.461C428.339 162.461 430.193 163.064 431.56 164.138C432.926 165.212 433.694 166.668 433.694 168.187V225.446C433.694 226.964 432.926 228.421 431.56 229.494C430.193 230.568 428.339 231.171 426.405 231.171C424.472 231.171 422.618 230.568 421.251 229.494C419.884 228.421 419.116 226.964 419.116 225.446V168.187ZM419.116 128.106C419.116 126.587 419.884 125.131 421.251 124.057C422.618 122.983 424.472 122.38 426.405 122.38C428.339 122.38 430.193 122.983 431.56 124.057C432.926 125.131 433.694 126.587 433.694 128.106V151.009C433.694 152.528 432.926 153.984 431.56 155.058C430.193 156.132 428.339 156.735 426.405 156.735C424.472 156.735 422.618 156.132 421.251 155.058C419.884 153.984 419.116 152.528 419.116 151.009V128.106Z" fill="#1E2440"/>
<path fill-rule="evenodd" clip-rule="evenodd" d="M135.757 363.208C135.757 361.69 136.525 360.233 137.892 359.159C139.259 358.086 141.113 357.482 143.046 357.482C144.979 357.482 146.833 358.086 148.2 359.159C149.567 360.233 150.335 361.69 150.335 363.208V420.467C150.335 421.986 149.567 423.442 148.2 424.516C146.833 425.59 144.979 426.193 143.046 426.193C141.113 426.193 139.259 425.59 137.892 424.516C136.525 423.442 135.757 421.986 135.757 420.467V363.208ZM157.624 403.289C157.624 401.771 158.392 400.314 159.759 399.241C161.126 398.167 162.98 397.564 164.913 397.564C166.846 397.564 168.7 398.167 170.067 399.241C171.434 400.314 172.202 401.771 172.202 403.289V460.548C172.202 462.067 171.434 463.523 170.067 464.597C168.7 465.671 166.846 466.274 164.913 466.274C162.98 466.274 161.126 465.671 159.759 464.597C158.392 463.523 157.624 462.067 157.624 460.548V403.289ZM135.757 437.645C135.757 436.126 136.525 434.67 137.892 433.596C139.259 432.522 141.113 431.919 143.046 431.919C144.979 431.919 146.833 432.522 148.2 433.596C149.567 434.67 150.335 436.126 150.335 437.645V460.548C150.335 462.067 149.567 463.523 148.2 464.597C146.833 465.671 144.979 466.274 143.046 466.274C141.113 466.274 139.259 465.671 137.892 464.597C136.525 463.523 135.757 462.067 135.757 460.548V437.645ZM179.491 363.208C179.491 361.69 180.259 360.233 181.626 359.159C182.993 358.086 184.847 357.482 186.78 357.482C188.713 357.482 190.567 358.086 191.934 359.159C193.301 360.233 194.069 361.69 194.069 363.208V420.467C194.069 421.986 193.301 423.442 191.934 424.516C190.567 425.59 188.713 426.193 186.78 426.193C184.847 426.193 182.993 425.59 181.626 424.516C180.259 423.442 179.491 421.986 179.491 420.467V363.208ZM179.491 437.645C179.491 436.126 180.259 434.67 181.626 433.596C182.993 432.522 184.847 431.919 186.78 431.919C188.713 431.919 190.567 432.522 191.934 433.596C193.301 434.67 194.069 436.126 194.069 437.645V460.548C194.069 462.067 193.301 463.523 191.934 464.597C190.567 465.671 188.713 466.274 186.78 466.274C184.847 466.274 182.993 465.671 181.626 464.597C180.259 463.523 179.491 462.067 179.491 460.548V437.645ZM157.624 363.208C157.624 361.69 158.392 360.233 159.759 359.159C161.126 358.086 162.98 357.482 164.913 357.482C166.846 357.482 168.7 358.086 170.067 359.159C171.434 360.233 172.202 361.69 172.202 363.208V386.112C172.202 387.63 171.434 389.087 170.067 390.161C168.7 391.234 166.846 391.838 164.913 391.838C162.98 391.838 161.126 391.234 159.759 390.161C158.392 389.087 157.624 387.63 157.624 386.112V363.208ZM113.89 403.289C113.89 401.771 114.658 400.314 116.025 399.241C117.392 398.167 119.246 397.564 121.179 397.564C123.113 397.564 124.967 398.167 126.333 399.241C127.7 400.314 128.468 401.771 128.468 403.289V460.548C128.468 462.067 127.7 463.523 126.333 464.597C124.967 465.671 123.113 466.274 121.179 466.274C119.246 466.274 117.392 465.671 116.025 464.597C114.658 463.523 113.89 462.067 113.89 460.548V403.289ZM113.89 363.208C113.89 361.69 114.658 360.233 116.025 359.159C117.392 358.086 119.246 357.482 121.179 357.482C123.113 357.482 124.967 358.086 126.333 359.159C127.7 360.233 128.468 361.69 128.468 363.208V386.112C128.468 387.63 127.7 389.087 126.333 390.161C124.967 391.234 123.113 391.838 121.179 391.838C119.246 391.838 117.392 391.234 116.025 390.161C114.658 389.087 113.89 387.63 113.89 386.112V363.208ZM201.358 403.289C201.358 401.771 202.126 400.314 203.493 399.241C204.86 398.167 206.714 397.564 208.647 397.564C210.58 397.564 212.434 398.167 213.801 399.241C215.168 400.314 215.936 401.771 215.936 403.289V460.548C215.936 462.067 215.168 463.523 213.801 464.597C212.434 465.671 210.58 466.274 208.647 466.274C206.714 466.274 204.86 465.671 203.493 464.597C202.126 463.523 201.358 462.067 201.358 460.548V403.289ZM201.358 363.208C201.358 361.69 202.126 360.233 203.493 359.159C204.86 358.086 206.714 357.482 208.647 357.482C210.58 357.482 212.434 358.086 213.801 359.159C215.168 360.233 215.936 361.69 215.936 363.208V386.112C215.936 387.63 215.168 389.087 213.801 390.161C212.434 391.234 210.58 391.838 208.647 391.838C206.714 391.838 204.86 391.234 203.493 390.161C202.126 389.087 201.358 387.63 201.358 386.112V363.208Z" fill="#1E2440"/>
<g clip-path="url(#clip0_474_8480)">
<path fill-rule="evenodd" clip-rule="evenodd" d="M1090.61 334.08C1090.61 332.046 1091.5 330.095 1093.08 328.657C1094.65 327.218 1096.79 326.41 1099.02 326.41C1101.25 326.41 1103.38 327.218 1104.96 328.657C1106.54 330.095 1107.42 332.046 1107.42 334.08V410.773C1107.42 412.807 1106.54 414.758 1104.96 416.196C1103.38 417.634 1101.25 418.442 1099.02 418.442C1096.79 418.442 1094.65 417.634 1093.08 416.196C1091.5 414.758 1090.61 412.807 1090.61 410.773V334.08ZM1115.82 387.765C1115.82 385.731 1116.71 383.78 1118.29 382.342C1119.86 380.904 1122 380.096 1124.23 380.096C1126.46 380.096 1128.59 380.904 1130.17 382.342C1131.75 383.78 1132.63 385.731 1132.63 387.765V464.458C1132.63 466.492 1131.75 468.443 1130.17 469.881C1128.59 471.32 1126.46 472.128 1124.23 472.128C1122 472.128 1119.86 471.32 1118.29 469.881C1116.71 468.443 1115.82 466.492 1115.82 464.458V387.765ZM1090.61 433.781C1090.61 431.747 1091.5 429.796 1093.08 428.358C1094.65 426.92 1096.79 426.112 1099.02 426.112C1101.25 426.112 1103.38 426.92 1104.96 428.358C1106.54 429.796 1107.42 431.747 1107.42 433.781V464.458C1107.42 466.492 1106.54 468.443 1104.96 469.881C1103.38 471.32 1101.25 472.128 1099.02 472.128C1096.79 472.128 1094.65 471.32 1093.08 469.881C1091.5 468.443 1090.61 466.492 1090.61 464.458V433.781ZM1141.03 334.08C1141.03 332.046 1141.92 330.095 1143.5 328.657C1145.07 327.218 1147.21 326.41 1149.44 326.41C1151.67 326.41 1153.8 327.218 1155.38 328.657C1156.96 330.095 1157.84 332.046 1157.84 334.08V410.773C1157.84 412.807 1156.96 414.758 1155.38 416.196C1153.8 417.634 1151.67 418.442 1149.44 418.442C1147.21 418.442 1145.07 417.634 1143.5 416.196C1141.92 414.758 1141.03 412.807 1141.03 410.773V334.08ZM1141.03 433.781C1141.03 431.747 1141.92 429.796 1143.5 428.358C1145.07 426.92 1147.21 426.112 1149.44 426.112C1151.67 426.112 1153.8 426.92 1155.38 428.358C1156.96 429.796 1157.84 431.747 1157.84 433.781V464.458C1157.84 466.492 1156.96 468.443 1155.38 469.881C1153.8 471.32 1151.67 472.128 1149.44 472.128C1147.21 472.128 1145.07 471.32 1143.5 469.881C1141.92 468.443 1141.03 466.492 1141.03 464.458V433.781ZM1115.82 334.08C1115.82 332.046 1116.71 330.095 1118.29 328.657C1119.86 327.218 1122 326.41 1124.23 326.41C1126.46 326.41 1128.59 327.218 1130.17 328.657C1131.75 330.095 1132.63 332.046 1132.63 334.08V364.757C1132.63 366.791 1131.75 368.742 1130.17 370.18C1128.59 371.618 1126.46 372.426 1124.23 372.426C1122 372.426 1119.86 371.618 1118.29 370.18C1116.71 368.742 1115.82 366.791 1115.82 364.757V334.08ZM1065.4 387.765C1065.4 385.731 1066.29 383.78 1067.86 382.342C1069.44 380.904 1071.58 380.096 1073.81 380.096C1076.04 380.096 1078.17 380.904 1079.75 382.342C1081.33 383.78 1082.21 385.731 1082.21 387.765V464.458C1082.21 466.492 1081.33 468.443 1079.75 469.881C1078.17 471.32 1076.04 472.128 1073.81 472.128C1071.58 472.128 1069.44 471.32 1067.86 469.881C1066.29 468.443 1065.4 466.492 1065.4 464.458V387.765ZM1065.4 334.08C1065.4 332.046 1066.29 330.095 1067.86 328.657C1069.44 327.218 1071.58 326.41 1073.81 326.41C1076.04 326.41 1078.17 327.218 1079.75 328.657C1081.33 330.095 1082.21 332.046 1082.21 334.08V364.757C1082.21 366.791 1081.33 368.742 1079.75 370.18C1078.17 371.618 1076.04 372.426 1073.81 372.426C1071.58 372.426 1069.44 371.618 1067.86 370.18C1066.29 368.742 1065.4 366.791 1065.4 364.757V334.08ZM1166.25 387.765C1166.25 385.731 1167.13 383.78 1168.71 382.342C1170.28 380.904 1172.42 380.096 1174.65 380.096C1176.88 380.096 1179.01 380.904 1180.59 382.342C1182.17 383.78 1183.05 385.731 1183.05 387.765V464.458C1183.05 466.492 1182.17 468.443 1180.59 469.881C1179.01 471.32 1176.88 472.128 1174.65 472.128C1172.42 472.128 1170.28 471.32 1168.71 469.881C1167.13 468.443 1166.25 466.492 1166.25 464.458V387.765ZM1166.25 334.08C1166.25 332.046 1167.13 330.095 1168.71 328.657C1170.28 327.218 1172.42 326.41 1174.65 326.41C1176.88 326.41 1179.01 327.218 1180.59 328.657C1182.17 330.095 1183.05 332.046 1183.05 334.08V364.757C1183.05 366.791 1182.17 368.742 1180.59 370.18C1179.01 371.618 1176.88 372.426 1174.65 372.426C1172.42 372.426 1170.28 371.618 1168.71 370.18C1167.13 368.742 1166.25 366.791 1166.25 364.757V334.08Z" fill="#1E2440"/>
</g>
<path fill-rule="evenodd" clip-rule="evenodd" d="M1272.16 112.339C1272.16 110.305 1273.04 108.354 1274.62 106.916C1276.2 105.477 1278.33 104.669 1280.56 104.669C1282.79 104.669 1284.93 105.477 1286.5 106.916C1288.08 108.354 1288.97 110.305 1288.97 112.339V189.032C1288.97 191.066 1288.08 193.017 1286.5 194.455C1284.93 195.893 1282.79 196.701 1280.56 196.701C1278.33 196.701 1276.2 195.893 1274.62 194.455C1273.04 193.017 1272.16 191.066 1272.16 189.032V112.339ZM1297.37 166.024C1297.37 163.99 1298.25 162.039 1299.83 160.601C1301.41 159.163 1303.54 158.355 1305.77 158.355C1308 158.355 1310.14 159.163 1311.71 160.601C1313.29 162.039 1314.18 163.99 1314.18 166.024V242.717C1314.18 244.751 1313.29 246.702 1311.71 248.14C1310.14 249.578 1308 250.386 1305.77 250.386C1303.54 250.386 1301.41 249.578 1299.83 248.14C1298.25 246.702 1297.37 244.751 1297.37 242.717V166.024ZM1272.16 212.04C1272.16 210.006 1273.04 208.055 1274.62 206.617C1276.2 205.179 1278.33 204.371 1280.56 204.371C1282.79 204.371 1284.93 205.179 1286.5 206.617C1288.08 208.055 1288.97 210.006 1288.97 212.04V242.717C1288.97 244.751 1288.08 246.702 1286.5 248.14C1284.93 249.578 1282.79 250.386 1280.56 250.386C1278.33 250.386 1276.2 249.578 1274.62 248.14C1273.04 246.702 1272.16 244.751 1272.16 242.717V212.04ZM1322.58 112.339C1322.58 110.305 1323.46 108.354 1325.04 106.916C1326.62 105.477 1328.75 104.669 1330.98 104.669C1333.21 104.669 1335.35 105.477 1336.92 106.916C1338.5 108.354 1339.39 110.305 1339.39 112.339V189.032C1339.39 191.066 1338.5 193.017 1336.92 194.455C1335.35 195.893 1333.21 196.701 1330.98 196.701C1328.75 196.701 1326.62 195.893 1325.04 194.455C1323.46 193.017 1322.58 191.066 1322.58 189.032V112.339ZM1322.58 212.04C1322.58 210.006 1323.46 208.055 1325.04 206.617C1326.62 205.179 1328.75 204.371 1330.98 204.371C1333.21 204.371 1335.35 205.179 1336.92 206.617C1338.5 208.055 1339.39 210.006 1339.39 212.04V242.717C1339.39 244.751 1338.5 246.702 1336.92 248.14C1335.35 249.578 1333.21 250.386 1330.98 250.386C1328.75 250.386 1326.62 249.578 1325.04 248.14C1323.46 246.702 1322.58 244.751 1322.58 242.717V212.04ZM1297.37 112.339C1297.37 110.305 1298.25 108.354 1299.83 106.916C1301.41 105.477 1303.54 104.669 1305.77 104.669C1308 104.669 1310.14 105.477 1311.71 106.916C1313.29 108.354 1314.18 110.305 1314.18 112.339V143.016C1314.18 145.05 1313.29 147.001 1311.71 148.439C1310.14 149.877 1308 150.685 1305.77 150.685C1303.54 150.685 1301.41 149.877 1299.83 148.439C1298.25 147.001 1297.37 145.05 1297.37 143.016V112.339ZM1246.95 166.024C1246.95 163.99 1247.83 162.039 1249.41 160.601C1250.98 159.163 1253.12 158.355 1255.35 158.355C1257.58 158.355 1259.72 159.163 1261.29 160.601C1262.87 162.039 1263.75 163.99 1263.75 166.024V242.717C1263.75 244.751 1262.87 246.702 1261.29 248.14C1259.72 249.578 1257.58 250.386 1255.35 250.386C1253.12 250.386 1250.98 249.578 1249.41 248.14C1247.83 246.702 1246.95 244.751 1246.95 242.717V166.024ZM1246.95 112.339C1246.95 110.305 1247.83 108.354 1249.41 106.916C1250.98 105.477 1253.12 104.669 1255.35 104.669C1257.58 104.669 1259.72 105.477 1261.29 106.916C1262.87 108.354 1263.75 110.305 1263.75 112.339V143.016C1263.75 145.05 1262.87 147.001 1261.29 148.439C1259.72 149.877 1257.58 150.685 1255.35 150.685C1253.12 150.685 1250.98 149.877 1249.41 148.439C1247.83 147.001 1246.95 145.05 1246.95 143.016V112.339ZM1347.79 166.024C1347.79 163.99 1348.67 162.039 1350.25 160.601C1351.83 159.163 1353.96 158.355 1356.19 158.355C1358.42 158.355 1360.56 159.163 1362.14 160.601C1363.71 162.039 1364.6 163.99 1364.6 166.024V242.717C1364.6 244.751 1363.71 246.702 1362.14 248.14C1360.56 249.578 1358.42 250.386 1356.19 250.386C1353.96 250.386 1351.83 249.578 1350.25 248.14C1348.67 246.702 1347.79 244.751 1347.79 242.717V166.024ZM1347.79 112.339C1347.79 110.305 1348.67 108.354 1350.25 106.916C1351.83 105.477 1353.96 104.669 1356.19 104.669C1358.42 104.669 1360.56 105.477 1362.14 106.916C1363.71 108.354 1364.6 110.305 1364.6 112.339V143.016C1364.6 145.05 1363.71 147.001 1362.14 148.439C1360.56 149.877 1358.42 150.685 1356.19 150.685C1353.96 150.685 1351.83 149.877 1350.25 148.439C1348.67 147.001 1347.79 145.05 1347.79 143.016V112.339Z" fill="#1E2440"/>
<g clip-path="url(#clip1_474_8480)">
<path fill-rule="evenodd" clip-rule="evenodd" d="M1229.58 266.485C1229.58 263.457 1230.89 260.553 1233.22 258.412C1235.55 256.271 1238.72 255.068 1242.02 255.068C1245.32 255.068 1248.48 256.271 1250.81 258.412C1253.14 260.553 1254.46 263.457 1254.46 266.485V380.66C1254.46 383.688 1253.14 386.592 1250.81 388.733C1248.48 390.875 1245.32 392.078 1242.02 392.078C1238.72 392.078 1235.55 390.875 1233.22 388.733C1230.89 386.592 1229.58 383.688 1229.58 380.66V266.485ZM1266.89 346.408C1266.89 343.379 1268.2 340.475 1270.54 338.334C1272.87 336.193 1276.03 334.99 1279.33 334.99C1282.63 334.99 1285.8 336.193 1288.13 338.334C1290.46 340.475 1291.77 343.379 1291.77 346.408V460.583C1291.77 463.611 1290.46 466.515 1288.13 468.656C1285.8 470.797 1282.63 472 1279.33 472C1276.03 472 1272.87 470.797 1270.54 468.656C1268.2 466.515 1266.89 463.611 1266.89 460.583V346.408ZM1229.58 414.913C1229.58 411.884 1230.89 408.98 1233.22 406.839C1235.55 404.698 1238.72 403.495 1242.02 403.495C1245.32 403.495 1248.48 404.698 1250.81 406.839C1253.14 408.98 1254.46 411.884 1254.46 414.913V460.583C1254.46 463.611 1253.14 466.515 1250.81 468.656C1248.48 470.797 1245.32 472 1242.02 472C1238.72 472 1235.55 470.797 1233.22 468.656C1230.89 466.515 1229.58 463.611 1229.58 460.583V414.913ZM1304.21 266.485C1304.21 263.457 1305.52 260.553 1307.85 258.412C1310.19 256.271 1313.35 255.068 1316.65 255.068C1319.95 255.068 1323.11 256.271 1325.45 258.412C1327.78 260.553 1329.09 263.457 1329.09 266.485V380.66C1329.09 383.688 1327.78 386.592 1325.45 388.733C1323.11 390.875 1319.95 392.078 1316.65 392.078C1313.35 392.078 1310.19 390.875 1307.85 388.733C1305.52 386.592 1304.21 383.688 1304.21 380.66V266.485ZM1304.21 414.913C1304.21 411.884 1305.52 408.98 1307.85 406.839C1310.19 404.698 1313.35 403.495 1316.65 403.495C1319.95 403.495 1323.11 404.698 1325.45 406.839C1327.78 408.98 1329.09 411.884 1329.09 414.913V460.583C1329.09 463.611 1327.78 466.515 1325.45 468.656C1323.11 470.797 1319.95 472 1316.65 472C1313.35 472 1310.19 470.797 1307.85 468.656C1305.52 466.515 1304.21 463.611 1304.21 460.583V414.913ZM1266.89 266.485C1266.89 263.457 1268.2 260.553 1270.54 258.412C1272.87 256.271 1276.03 255.068 1279.33 255.068C1282.63 255.068 1285.8 256.271 1288.13 258.412C1290.46 260.553 1291.77 263.457 1291.77 266.485V312.155C1291.77 315.183 1290.46 318.087 1288.13 320.228C1285.8 322.37 1282.63 323.573 1279.33 323.573C1276.03 323.573 1272.87 322.37 1270.54 320.228C1268.2 318.087 1266.89 315.183 1266.89 312.155V266.485ZM1192.26 346.408C1192.26 343.379 1193.57 340.475 1195.9 338.334C1198.24 336.193 1201.4 334.99 1204.7 334.99C1208 334.99 1211.16 336.193 1213.49 338.334C1215.83 340.475 1217.14 343.379 1217.14 346.408V460.583C1217.14 463.611 1215.83 466.515 1213.49 468.656C1211.16 470.797 1208 472 1204.7 472C1201.4 472 1198.24 470.797 1195.9 468.656C1193.57 466.515 1192.26 463.611 1192.26 460.583V346.408ZM1192.26 266.485C1192.26 263.457 1193.57 260.553 1195.9 258.412C1198.24 256.271 1201.4 255.068 1204.7 255.068C1208 255.068 1211.16 256.271 1213.49 258.412C1215.83 260.553 1217.14 263.457 1217.14 266.485V312.155C1217.14 315.183 1215.83 318.087 1213.49 320.228C1211.16 322.37 1208 323.573 1204.7 323.573C1201.4 323.573 1198.24 322.37 1195.9 320.228C1193.57 318.087 1192.26 315.183 1192.26 312.155V266.485ZM1341.53 346.408C1341.53 343.379 1342.84 340.475 1345.17 338.334C1347.5 336.193 1350.67 334.99 1353.97 334.99C1357.27 334.99 1360.43 336.193 1362.76 338.334C1365.1 340.475 1366.41 343.379 1366.41 346.408V460.583C1366.41 463.611 1365.1 466.515 1362.76 468.656C1360.43 470.797 1357.27 472 1353.97 472C1350.67 472 1347.5 470.797 1345.17 468.656C1342.84 466.515 1341.53 463.611 1341.53 460.583V346.408ZM1341.53 266.485C1341.53 263.457 1342.84 260.553 1345.17 258.412C1347.5 256.271 1350.67 255.068 1353.97 255.068C1357.27 255.068 1360.43 256.271 1362.76 258.412C1365.1 260.553 1366.41 263.457 1366.41 266.485V312.155C1366.41 315.183 1365.1 318.087 1362.76 320.228C1360.43 322.37 1357.27 323.573 1353.97 323.573C1350.67 323.573 1347.5 322.37 1345.17 320.228C1342.84 318.087 1341.53 315.183 1341.53 312.155V266.485Z" fill="#1E2440"/>
</g>
<defs>
<clipPath id="clip0_474_8480">
<rect width="134.456" height="161.056" fill="white" transform="translate(1057 310.741)"/>
</clipPath>
<clipPath id="clip1_474_8480">
<rect width="199.025" height="227.779" fill="white" transform="translate(1166.82 244.221)"/>
</clipPath>
</defs>
</svg>
