<svg width="20" height="20" viewBox="0 0 20 20" fill="none" xmlns="http://www.w3.org/2000/svg">
<path fill-rule="evenodd" clip-rule="evenodd" d="M9.99992 0.833374C4.93742 0.833374 0.833252 4.93754 0.833252 10C0.833252 15.0625 4.93742 19.1667 9.99992 19.1667C15.0624 19.1667 19.1666 15.0625 19.1666 10C19.1666 4.93754 15.0624 0.833374 9.99992 0.833374ZM13.9733 8.45004C14.0464 8.36641 14.1021 8.26899 14.1371 8.16351C14.172 8.05804 14.1855 7.94664 14.1768 7.83586C14.1681 7.72509 14.1373 7.61718 14.0862 7.51848C14.0352 7.41978 13.9649 7.3323 13.8795 7.26116C13.7942 7.19002 13.6955 7.13668 13.5892 7.10426C13.4829 7.07184 13.3712 7.06101 13.2607 7.0724C13.1501 7.08379 13.043 7.11716 12.9455 7.17057C12.8481 7.22397 12.7623 7.29633 12.6933 7.38337L9.10992 11.6825L7.25575 9.82754C7.09858 9.67574 6.88808 9.59175 6.66958 9.59365C6.45109 9.59554 6.24208 9.68319 6.08757 9.83769C5.93306 9.9922 5.84542 10.2012 5.84352 10.4197C5.84163 10.6382 5.92562 10.8487 6.07742 11.0059L8.57742 13.5059C8.6593 13.5877 8.75733 13.6516 8.86526 13.6934C8.9732 13.7353 9.08867 13.7542 9.20431 13.7489C9.31995 13.7437 9.43323 13.7144 9.53693 13.6629C9.64062 13.6115 9.73246 13.539 9.80659 13.45L13.9733 8.45004Z" fill="#001341"/>
</svg>
