<svg width="66" height="50" viewBox="0 0 66 50" fill="none" xmlns="http://www.w3.org/2000/svg">
<g clip-path="url(#clip0_310_1457)">
<path fill-rule="evenodd" clip-rule="evenodd" d="M44.3107 9.72224C39.3182 9.72224 34.7859 11.6883 31.4348 14.8945C30.6082 15.6853 29.8537 16.5514 29.1824 17.4817C28.7342 18.1028 27.8694 18.2414 27.251 17.7913C26.6325 17.3411 26.4945 16.4728 26.9427 15.8517C27.7132 14.784 28.5788 13.7904 29.5269 12.8833C33.3718 9.20475 38.5799 6.94446 44.3107 6.94446C56.1496 6.94446 65.7469 16.5828 65.7469 28.4722C65.7469 40.3617 56.1496 50 44.3107 50C38.5799 50 33.3718 47.7397 29.5269 44.0613C28.9739 43.5321 28.9527 42.6529 29.4796 42.0977C30.0064 41.5422 30.8818 41.521 31.4348 42.05C34.7859 45.2561 39.3182 47.2222 44.3107 47.2222C54.6219 47.2222 62.9809 38.8275 62.9809 28.4722C62.9809 18.117 54.6219 9.72224 44.3107 9.72224Z" fill="#0C1128"/>
<path fill-rule="evenodd" clip-rule="evenodd" d="M36.7035 1.38889C36.7035 0.621828 37.3227 1.15984e-06 38.0865 1.09278e-06L50.5333 0C51.2971 -6.70587e-08 51.9163 0.621826 51.9163 1.38889C51.9163 2.15594 51.2971 2.77778 50.5333 2.77778H38.0865C37.3227 2.77778 36.7035 2.15596 36.7035 1.38889Z" fill="#0C1128"/>
<path fill-rule="evenodd" clip-rule="evenodd" d="M45.693 2.77777V8.33333H42.927V2.77777H45.693Z" fill="#0C1128"/>
<path fill-rule="evenodd" clip-rule="evenodd" d="M32.5546 25H0.746094L0.746094 22.2222H32.5546V25Z" fill="#0C1128"/>
<path fill-rule="evenodd" clip-rule="evenodd" d="M27.0226 31.9445H6.27795V29.1667H27.0226V31.9445Z" fill="#0C1128"/>
<path fill-rule="evenodd" clip-rule="evenodd" d="M27.0226 38.8889H17.3418V36.1111H27.0226V38.8889Z" fill="#0C1128"/>
<path d="M42.927 18.0556C42.927 17.2885 43.5462 16.6667 44.31 16.6667C45.0738 16.6667 45.693 17.2885 45.693 18.0556V23.6111C45.693 24.3782 45.0738 25 44.31 25C43.5462 25 42.927 24.3782 42.927 23.6111V18.0556Z" fill="#0C1128"/>
<path d="M42.2355 29.8611C42.2355 28.7105 43.1643 27.7778 44.3099 27.7778C45.4556 27.7778 46.3844 28.7105 46.3844 29.8611C46.3844 31.0117 45.4556 31.9444 44.3099 31.9444C43.1643 31.9444 42.2355 31.0117 42.2355 29.8611Z" fill="#0C1128"/>
</g>
<defs>
<clipPath id="clip0_310_1457">
<rect width="65" height="50" fill="white" transform="translate(0.746094)"/>
</clipPath>
</defs>
</svg>
