<svg width="59" height="58" viewBox="0 0 59 58" fill="none" xmlns="http://www.w3.org/2000/svg">
<path d="M43.6992 58C43.5397 58 43.3802 57.9686 43.2304 57.9058C42.6552 57.6617 29.1992 51.8472 29.1992 39.962V29.8628C29.1992 29.3432 29.5303 28.884 30.0209 28.7173L43.3126 24.2295C43.5639 24.1449 43.837 24.1449 44.0859 24.2295L57.3776 28.7173C57.8681 28.8816 58.1992 29.3432 58.1992 29.8628V39.962C58.1992 51.8472 44.7432 57.6617 44.1681 57.9058C44.0182 57.9686 43.8587 58 43.6992 58ZM31.6159 30.7328V39.962C31.6159 49.1067 41.4155 54.3605 43.6992 55.4601C45.9806 54.3581 55.7826 49.0825 55.7826 39.962V30.7328L43.6992 26.651L31.6159 30.7328Z" fill="#0C1128"/>
<path d="M42.4907 45.9167C42.469 45.9167 42.4448 45.9167 42.4255 45.9143C42.0799 45.8949 41.7633 45.733 41.5482 45.4623L36.7149 39.4207C36.2992 38.8987 36.3814 38.1398 36.9034 37.7218C37.4302 37.3085 38.189 37.3931 38.6023 37.9103L42.5898 42.8958L50.0935 35.3945C50.5648 34.9233 51.3309 34.9233 51.8021 35.3945C52.2734 35.8658 52.2734 36.6318 51.8021 37.1031L43.3438 45.5614C43.119 45.7886 42.8097 45.9167 42.4907 45.9167Z" fill="#0C1128"/>
<path d="M23.1576 50.75H6.24089C2.9083 50.75 0.199219 48.0409 0.199219 44.7084V13.2917C0.199219 9.95908 2.9083 7.25 6.24089 7.25H11.0742C11.7412 7.25 12.2826 7.79133 12.2826 8.45833C12.2826 9.12533 11.7412 9.66667 11.0742 9.66667H6.24089C4.2423 9.66667 2.61589 11.2931 2.61589 13.2917V44.7084C2.61589 46.7069 4.2423 48.3334 6.24089 48.3334H23.1576C23.8246 48.3334 24.3659 48.8747 24.3659 49.5417C24.3659 50.2087 23.8246 50.75 23.1576 50.75Z" fill="#0C1128"/>
<path d="M40.0742 20.5417C39.4072 20.5417 38.8659 20.0003 38.8659 19.3334V13.2917C38.8659 11.2931 37.2395 9.66667 35.2409 9.66667H30.4076C29.7406 9.66667 29.1992 9.12533 29.1992 8.45833C29.1992 7.79133 29.7406 7.25 30.4076 7.25H35.2409C38.5735 7.25 41.2826 9.95908 41.2826 13.2917V19.3334C41.2826 20.0003 40.7412 20.5417 40.0742 20.5417Z" fill="#0C1128"/>
<path d="M27.9914 14.5H13.4913C11.4927 14.5 9.86633 12.8736 9.86633 10.875V6.04166C9.86633 5.37466 10.4077 4.83333 11.0747 4.83333H14.8205C15.3812 2.07833 17.8244 0 20.7414 0C23.6583 0 26.1015 2.07833 26.6622 4.83333H30.408C31.075 4.83333 31.6164 5.37466 31.6164 6.04166V10.875C31.6164 12.8736 29.9899 14.5 27.9914 14.5ZM12.283 7.25V10.875C12.283 11.5396 12.8267 12.0833 13.4913 12.0833H27.9914C28.6559 12.0833 29.1997 11.5396 29.1997 10.875V7.25H25.5747C24.9077 7.25 24.3664 6.70866 24.3664 6.04166C24.3664 4.04308 22.7399 2.41666 20.7414 2.41666C18.7428 2.41666 17.1164 4.04308 17.1164 6.04166C17.1164 6.70866 16.575 7.25 15.908 7.25H12.283Z" fill="#0C1128"/>
<path d="M32.8242 21.75H8.65755C7.99055 21.75 7.44922 21.2086 7.44922 20.5416C7.44922 19.8746 7.99055 19.3333 8.65755 19.3333H32.8242C33.4912 19.3333 34.0326 19.8746 34.0326 20.5416C34.0326 21.2086 33.4912 21.75 32.8242 21.75Z" fill="#0C1128"/>
<path d="M23.1576 29H8.65755C7.99055 29 7.44922 28.4586 7.44922 27.7916C7.44922 27.1246 7.99055 26.5833 8.65755 26.5833H23.1576C23.8246 26.5833 24.3659 27.1246 24.3659 27.7916C24.3659 28.4586 23.8246 29 23.1576 29Z" fill="#0C1128"/>
<path d="M23.1576 36.25H8.65755C7.99055 36.25 7.44922 35.7086 7.44922 35.0416C7.44922 34.3746 7.99055 33.8333 8.65755 33.8333H23.1576C23.8246 33.8333 24.3659 34.3746 24.3659 35.0416C24.3659 35.7086 23.8246 36.25 23.1576 36.25Z" fill="#0C1128"/>
</svg>
