<svg width="54" height="53" viewBox="0 0 54 53" fill="none" xmlns="http://www.w3.org/2000/svg">
<g clip-path="url(#clip0_310_1434)">
<path fill-rule="evenodd" clip-rule="evenodd" d="M10.1626 4.77869C10.1626 2.13949 12.5695 0 15.5386 0H42.1744C48.2477 0 53.1709 4.37624 53.1709 9.7746H50.2385C50.2385 5.81581 46.628 2.60655 42.1744 2.60655H15.5386C14.189 2.60655 13.095 3.57906 13.095 4.77869V16.7255H10.1626V4.77869ZM51.7046 13.4672C52.5145 13.4672 53.1709 14.0507 53.1709 14.7705V45.6147C53.1709 48.254 50.764 50.3934 47.7948 50.3934H41.6858C40.8758 50.3934 40.2195 49.81 40.2195 49.0902C40.2195 48.3704 40.8758 47.7869 41.6858 47.7869H47.7948C49.1443 47.7869 50.2385 46.8145 50.2385 45.6147V14.7705C50.2385 14.0507 50.8948 13.4672 51.7046 13.4672Z" fill="#0C1128"/>
<path fill-rule="evenodd" clip-rule="evenodd" d="M39.4866 1.61158C39.4866 0.721529 40.2983 0 41.2995 0H42.0904C48.21 0 53.171 4.40972 53.171 9.84937C53.171 10.6478 52.4428 11.2951 51.5446 11.2951H46.8175C42.7688 11.2951 39.4866 8.37761 39.4866 4.77869V1.61158ZM42.419 2.61234V4.77869C42.419 6.93804 44.3882 8.68854 46.8175 8.68854H50.1344C49.5266 5.33382 46.3266 2.75005 42.419 2.61234Z" fill="#0C1128"/>
<path fill-rule="evenodd" clip-rule="evenodd" d="M14.5599 23.459C13.2997 23.459 11.7189 24.6422 11.255 27.0206L10.9362 28.6549L9.22517 27.9928C8.90683 27.8696 8.56457 27.8032 8.20641 27.8032C6.72838 27.8032 5.27401 29.0322 5.27401 30.8442C5.27401 31.278 5.36146 31.6859 5.51596 32.0532L5.89915 32.9642L5.02559 33.55C4.05535 34.2006 3.31909 35.4299 3.31909 36.9263C3.31909 38.3804 4.00523 39.5582 4.91564 40.2239L8.22438 37.6784L10.1433 39.6495L6.36371 42.5571C6.29075 42.8384 6.25148 43.1349 6.25148 43.4426C6.25148 45.4817 7.91154 46.9181 9.67258 46.9181C9.83836 46.9181 10.0013 46.9062 10.1608 46.8829C10.4674 46.8385 10.7611 46.7523 11.0374 46.6294L12.872 45.8138L13.1463 47.6208C13.1915 47.9189 13.26 48.1914 13.3466 48.4391C13.3628 48.4748 13.3782 48.5113 13.3926 48.5483C13.5514 48.9543 13.7503 49.2857 13.97 49.5497C14.4587 50.1242 15.0612 50.3934 15.5373 50.3934C16.0324 50.3934 16.6088 50.1508 17.1163 49.5306C17.6227 48.9115 17.9811 47.9921 17.9811 46.9181V34.478C17.0314 35.178 15.8686 35.6229 14.5599 35.6229H13.0937V33.0164H14.5599C15.3131 33.0164 16.1333 32.6387 16.8226 31.7809C17.51 30.9254 17.9811 29.6769 17.9811 28.2377C17.9811 26.7986 17.51 25.55 16.8226 24.6946C16.1333 23.8368 15.3131 23.459 14.5599 23.459ZM20.9135 33.0164V35.6229H29.2219V38.2295H20.9135V39.9673H26.0579V45.1803H29.2219V47.7869H23.1255V42.5737H20.9135V46.9181C20.9135 48.4832 20.3964 49.9531 19.4878 51.0636C18.5801 52.1729 17.2016 53 15.5373 53C13.8691 53 12.5283 52.2143 11.604 51.0793C11.199 50.5878 10.8762 50.0345 10.6453 49.4608C10.64 49.459 10.6347 49.4577 10.6298 49.457L10.6265 49.4565C10.6023 49.4599 10.5781 49.4633 10.5539 49.4665C10.2659 49.5048 9.97162 49.5247 9.67258 49.5247C6.03528 49.5247 3.31909 46.682 3.31909 43.4426C3.31909 43.1142 3.34637 42.791 3.39909 42.4754C1.53026 41.2953 0.386719 39.1934 0.386719 36.9263C0.386719 35.0454 1.16667 33.299 2.48305 32.0824C2.39027 31.6827 2.34164 31.2682 2.34164 30.8442C2.34164 27.8578 4.8259 25.1968 8.20641 25.1968C8.39151 25.1968 8.57466 25.205 8.75545 25.2212C9.67555 22.8298 11.7387 20.8524 14.5599 20.8524C16.5059 20.8524 18.1293 21.8363 19.2088 23.1796C20.2904 24.5255 20.9135 26.3179 20.9135 28.2377V30.4098H23.1255V25.1968H29.2219V27.8032H26.0579V33.0164H20.9135Z" fill="#0C1128"/>
<path d="M38.0189 26.9344C38.0189 28.134 36.9249 29.1066 35.5752 29.1066C34.2257 29.1066 33.1316 28.134 33.1316 26.9344C33.1316 25.7347 34.2257 24.7623 35.5752 24.7623C36.9249 24.7623 38.0189 25.7347 38.0189 26.9344Z" fill="#0C1128"/>
<path d="M38.0189 36.4918C38.0189 37.6914 36.9249 38.6639 35.5752 38.6639C34.2257 38.6639 33.1316 37.6914 33.1316 36.4918C33.1316 35.2921 34.2257 34.3197 35.5752 34.3197C36.9249 34.3197 38.0189 35.2921 38.0189 36.4918Z" fill="#0C1128"/>
<path d="M38.0189 46.0492C38.0189 47.2489 36.9249 48.2213 35.5752 48.2213C34.2257 48.2213 33.1316 47.2489 33.1316 46.0492C33.1316 44.8496 34.2257 43.8771 35.5752 43.8771C36.9249 43.8771 38.0189 44.8496 38.0189 46.0492Z" fill="#0C1128"/>
</g>
<defs>
<clipPath id="clip0_310_1434">
<rect width="53" height="53" fill="white" transform="translate(0.386719)"/>
</clipPath>
</defs>
</svg>
