<svg width="625" height="104" viewBox="0 0 625 104" fill="none" xmlns="http://www.w3.org/2000/svg">
<path d="M0 104C81.9189 52.3318 361.563 -14.2407 625 104H0Z" fill="#8090B7"/>
<path d="M133.746 43.07L129.844 86.46C129.811 86.7315 129.676 86.9825 129.464 87.1664C129.252 87.3502 128.977 87.4545 128.69 87.46L86.6364 87.55C86.5014 87.5519 86.3675 87.5267 86.2434 87.4762C86.1192 87.4257 86.0075 87.3509 85.9156 87.2566C85.8237 87.1624 85.7535 87.0508 85.7096 86.9291C85.6657 86.8073 85.6491 86.6782 85.6609 86.55L90.738 30.1C90.7687 29.8276 90.9031 29.5754 91.1158 29.3912C91.3284 29.2069 91.6045 29.1033 91.8918 29.1L120.214 29.05L133.746 43.07Z" fill="#628FCE"/>
<g opacity="0.6">
<path d="M133.746 43.07L129.844 86.46C129.811 86.7315 129.676 86.9825 129.464 87.1664C129.252 87.3502 128.977 87.4545 128.69 87.46L86.6364 87.55C86.5014 87.5519 86.3675 87.5267 86.2434 87.4762C86.1192 87.4257 86.0075 87.3509 85.9156 87.2566C85.8237 87.1624 85.7535 87.0508 85.7096 86.9291C85.6657 86.8073 85.6491 86.6782 85.6609 86.55L90.738 30.1C90.7687 29.8276 90.9031 29.5754 91.1158 29.3912C91.3284 29.2069 91.6045 29.1033 91.8918 29.1L120.214 29.05L133.746 43.07Z" fill="white"/>
</g>
<path opacity="0.2" d="M125.302 56.15L95.5844 56.29C95.356 56.2938 95.1369 56.3773 94.9687 56.5247C94.8005 56.6722 94.6949 56.8733 94.6718 57.09V57.35C94.6614 57.4511 94.6736 57.5532 94.7076 57.6495C94.7415 57.7458 94.7964 57.8341 94.8688 57.9087C94.9411 57.9834 95.0292 58.0426 95.1272 58.0824C95.2252 58.1223 95.331 58.1419 95.4376 58.14L125.166 58.01C125.394 58.0035 125.612 57.9175 125.778 57.7683C125.944 57.619 126.047 57.4168 126.068 57.2V56.95C126.08 56.8481 126.069 56.7449 126.036 56.6474C126.002 56.5499 125.948 56.4603 125.875 56.3845C125.803 56.3088 125.714 56.2487 125.615 56.2082C125.516 56.1678 125.41 56.1479 125.302 56.15Z" fill="black"/>
<path opacity="0.2" d="M124.651 63.73L94.9233 63.87C94.696 63.874 94.4782 63.9579 94.3117 64.1055C94.1452 64.2531 94.0418 64.4541 94.0212 64.67V64.93C94.009 65.0314 94.02 65.1342 94.0533 65.2312C94.0866 65.3282 94.1415 65.4173 94.2141 65.4923C94.2868 65.5672 94.3756 65.6264 94.4745 65.6657C94.5733 65.705 94.6799 65.7235 94.7869 65.72L124.505 65.59C124.733 65.5817 124.951 65.4953 125.119 65.3467C125.286 65.198 125.392 64.9969 125.417 64.78V64.52C125.428 64.4189 125.415 64.3168 125.381 64.2205C125.347 64.1242 125.292 64.0358 125.22 63.9612C125.148 63.8866 125.06 63.8274 124.962 63.7876C124.864 63.7477 124.758 63.7281 124.651 63.73Z" fill="black"/>
<path opacity="0.2" d="M123.991 71.31L94.2626 71.44C94.0351 71.4486 93.8184 71.5353 93.6526 71.6841C93.4869 71.833 93.3831 72.034 93.3605 72.25V72.51C93.3484 72.6114 93.3593 72.7142 93.3926 72.8112C93.4259 72.9082 93.4808 72.9973 93.5535 73.0723C93.6262 73.1472 93.715 73.2064 93.8138 73.2457C93.9127 73.285 94.0192 73.3035 94.1263 73.3L123.844 73.16C124.072 73.1562 124.291 73.0727 124.46 72.9253C124.628 72.7778 124.733 72.5767 124.756 72.36V72.1C124.769 71.9985 124.758 71.8958 124.724 71.7988C124.691 71.7017 124.636 71.6127 124.564 71.5377C124.491 71.4627 124.402 71.4036 124.303 71.3643C124.204 71.325 124.098 71.3065 123.991 71.31Z" fill="black"/>
<path d="M120.204 29L119.019 42.09C119.007 42.2182 119.023 42.3474 119.067 42.4691C119.111 42.5908 119.181 42.7024 119.273 42.7966C119.365 42.8909 119.477 42.9657 119.601 43.0162C119.725 43.0667 119.859 43.0919 119.994 43.09H133.631L120.204 29Z" fill="#628FCE"/>
<path opacity="0.8" d="M120.204 29L119.019 42.09C119.007 42.2182 119.023 42.3474 119.067 42.4691C119.111 42.5908 119.181 42.7024 119.273 42.7966C119.365 42.8909 119.477 42.9657 119.601 43.0162C119.725 43.0667 119.859 43.0919 119.994 43.09H133.631L120.204 29Z" fill="white"/>
<path d="M113.05 90.02H82L83.2798 76.13H114.33L113.05 90.02Z" fill="#1E2440"/>
<path d="M95.5948 82.23C95.5637 82.4693 95.4834 82.7003 95.3583 82.9098C95.2333 83.1194 95.0661 83.3033 94.8662 83.451C94.6664 83.5988 94.4379 83.7074 94.1939 83.7708C93.9499 83.8341 93.6952 83.8508 93.4444 83.82H92.5213L92.4059 85.03H91.3569L91.766 80.64H93.7591C94.9654 80.68 95.6787 81.24 95.5948 82.23ZM94.5458 82.23C94.5458 81.75 94.2836 81.46 93.6332 81.46H92.7626L92.6262 82.99H93.4969C94.1158 82.99 94.4724 82.68 94.5144 82.23H94.5458Z" fill="white"/>
<path d="M100.347 82.23C100.286 82.7046 100.032 83.1374 99.6395 83.435C99.2469 83.7325 98.7473 83.8708 98.2486 83.82H97.3255L97.2101 85.03H96.1611L96.5597 80.64H98.5528C99.7172 80.68 100.43 81.24 100.347 82.23ZM99.2976 82.23C99.2976 81.75 99.0353 81.46 98.385 81.46H97.5143L97.3779 82.99H98.1752C98.8675 82.99 99.2242 82.68 99.2242 82.23H99.2976Z" fill="white"/>
<path d="M102.004 81.46H100.535L100.609 80.64H104.626L104.543 81.46H103.074L102.749 85.03H101.7L102.004 81.46Z" fill="white"/>
<path d="M236.777 24.06L232.886 67.46C232.855 67.7323 232.721 67.9845 232.508 68.1688C232.295 68.3531 232.019 68.4566 231.732 68.46L189.626 68.54C189.491 68.542 189.358 68.5169 189.234 68.4663C189.11 68.4156 188.999 68.3406 188.908 68.2462C188.817 68.1518 188.748 68.04 188.705 67.9183C188.663 67.7966 188.647 67.6677 188.661 67.54L193.727 11.09C193.758 10.8176 193.892 10.5654 194.105 10.3811C194.318 10.1969 194.594 10.0933 194.881 10.09H223.204L236.777 24.06Z" fill="#628FCE"/>
<g opacity="0.6">
<path d="M236.777 24.06L232.886 67.46C232.855 67.7323 232.721 67.9845 232.508 68.1688C232.295 68.3531 232.019 68.4566 231.732 68.46L189.626 68.54C189.491 68.542 189.358 68.5169 189.234 68.4663C189.11 68.4156 188.999 68.3406 188.908 68.2462C188.817 68.1518 188.748 68.04 188.705 67.9183C188.663 67.7966 188.647 67.6677 188.661 67.54L193.727 11.09C193.758 10.8176 193.892 10.5654 194.105 10.3811C194.318 10.1969 194.594 10.0933 194.881 10.09H223.204L236.777 24.06Z" fill="white"/>
</g>
<path opacity="0.2" d="M228.302 37.15L198.574 37.28C198.346 37.284 198.129 37.3679 197.962 37.5155C197.796 37.6631 197.692 37.8641 197.672 38.08V38.34C197.66 38.4419 197.671 38.545 197.704 38.6425C197.737 38.7401 197.792 38.8297 197.864 38.9054C197.937 38.9812 198.025 39.0413 198.124 39.0817C198.223 39.1222 198.33 39.142 198.437 39.14L228.155 39C228.384 38.9962 228.603 38.9127 228.771 38.7652C228.939 38.6178 229.045 38.4167 229.068 38.2V37.94C229.08 37.8385 229.069 37.7358 229.036 37.6388C229.002 37.5417 228.947 37.4527 228.875 37.3777C228.802 37.3027 228.713 37.2435 228.614 37.2042C228.516 37.1649 228.409 37.1464 228.302 37.15Z" fill="black"/>
<path opacity="0.2" d="M227.641 44.72L197.913 44.86C197.686 44.864 197.468 44.9479 197.301 45.0955C197.135 45.2432 197.031 45.4441 197.011 45.66V45.92C196.999 46.0219 197.01 46.1251 197.043 46.2226C197.076 46.3201 197.131 46.4097 197.203 46.4855C197.276 46.5612 197.365 46.6213 197.463 46.6618C197.562 46.7022 197.669 46.7221 197.777 46.72L227.505 46.58C227.732 46.576 227.95 46.4921 228.116 46.3445C228.283 46.1968 228.386 45.9958 228.407 45.78V45.52C228.419 45.4181 228.408 45.3149 228.375 45.2174C228.341 45.1199 228.287 45.0303 228.214 44.9545C228.142 44.8788 228.053 44.8187 227.954 44.7782C227.855 44.7378 227.749 44.7179 227.641 44.72Z" fill="black"/>
<path opacity="0.2" d="M226.98 52.27L197.263 52.41C197.034 52.4138 196.815 52.4973 196.647 52.6447C196.479 52.7922 196.373 52.9933 196.35 53.21V53.47C196.34 53.5724 196.352 53.6758 196.387 53.7733C196.421 53.8708 196.477 53.9603 196.55 54.0358C196.623 54.1113 196.713 54.1713 196.812 54.2116C196.911 54.252 197.018 54.2719 197.126 54.27L226.844 54.13C227.071 54.126 227.289 54.0421 227.455 53.8945C227.622 53.7468 227.725 53.5458 227.746 53.33V53.07C227.758 52.9681 227.747 52.8649 227.714 52.7674C227.68 52.6699 227.626 52.5803 227.553 52.5045C227.481 52.4288 227.392 52.3687 227.293 52.3282C227.194 52.2878 227.088 52.2679 226.98 52.27Z" fill="black"/>
<path d="M223.235 10L222.092 23.09C222.079 23.2177 222.094 23.3466 222.136 23.4683C222.179 23.5901 222.248 23.7018 222.339 23.7962C222.43 23.8907 222.541 23.9657 222.665 24.0163C222.789 24.0669 222.922 24.092 223.057 24.09H236.757L223.235 10Z" fill="#628FCE"/>
<path opacity="0.8" d="M223.235 10L222.092 23.09C222.079 23.2177 222.094 23.3466 222.136 23.4683C222.179 23.5901 222.248 23.7018 222.339 23.7962C222.43 23.8907 222.541 23.9657 222.665 24.0163C222.789 24.0669 222.922 24.092 223.057 24.09H236.757L223.235 10Z" fill="white"/>
<path d="M216.05 71.02H185L186.269 57.12H217.319L216.05 71.02Z" fill="#1E2440"/>
<path d="M196.056 62.63H194.64L194.735 61.63H198.847L198.752 62.63H197.357L197.042 66.03H195.742L196.056 62.63Z" fill="white"/>
<path d="M201.637 66.03L200.808 64.67L199.759 66.03H198.28L200.158 63.81L198.752 61.64H200.21L201.018 62.91L202.067 61.64H203.472L201.679 63.76L203.179 66.03H201.637Z" fill="white"/>
<path d="M204.679 62.63H203.263L203.357 61.63H207.469L207.385 62.63H205.98L205.665 66.03H204.364L204.679 62.63Z" fill="white"/>
<path d="M339.6 14.07L335.698 57.46C335.665 57.7316 335.53 57.9825 335.317 58.1664C335.105 58.3503 334.83 58.4546 334.544 58.46L292.448 58.53C292.313 58.5335 292.178 58.5094 292.053 58.4595C291.928 58.4095 291.816 58.3347 291.723 58.2401C291.631 58.1455 291.561 58.0332 291.518 57.9108C291.474 57.7884 291.459 57.6586 291.472 57.53L296.55 1.08003C296.58 0.807661 296.715 0.55549 296.927 0.371216C297.14 0.186942 297.416 0.0833456 297.703 0.0800285L326.026 0.0300293L339.6 14.07Z" fill="#628FCE"/>
<g opacity="0.6">
<path d="M339.6 14.07L335.698 57.46C335.665 57.7316 335.53 57.9825 335.317 58.1664C335.105 58.3503 334.83 58.4546 334.544 58.46L292.448 58.53C292.313 58.5335 292.178 58.5094 292.053 58.4595C291.928 58.4095 291.816 58.3347 291.723 58.2401C291.631 58.1455 291.561 58.0332 291.518 57.9108C291.474 57.7884 291.459 57.6586 291.472 57.53L296.55 1.08003C296.58 0.807661 296.715 0.55549 296.927 0.371216C297.14 0.186942 297.416 0.0833456 297.703 0.0800285L326.026 0.0300293L339.6 14.07Z" fill="white"/>
</g>
<path opacity="0.2" d="M330.987 25.44L301.27 25.57C301.041 25.5765 300.824 25.6625 300.657 25.8118C300.491 25.961 300.388 26.1632 300.368 26.38V26.64C300.359 26.7417 300.372 26.8439 300.408 26.9402C300.443 27.0365 300.499 27.1248 300.572 27.1992C300.645 27.2736 300.734 27.3326 300.832 27.3724C300.931 27.4121 301.037 27.4318 301.144 27.43L330.84 27.3C331.069 27.2962 331.288 27.2127 331.456 27.0653C331.624 26.9179 331.73 26.7167 331.753 26.5V26.24C331.765 26.1381 331.754 26.035 331.721 25.9375C331.688 25.8399 331.633 25.7503 331.56 25.6746C331.488 25.5988 331.399 25.5387 331.3 25.4983C331.202 25.4578 331.095 25.438 330.987 25.44Z" fill="black"/>
<path opacity="0.2" d="M330.348 33.02L300.619 33.15C300.391 33.1565 300.173 33.2425 300.007 33.3917C299.841 33.541 299.738 33.7432 299.717 33.96V34.21C299.705 34.3119 299.716 34.4151 299.75 34.5126C299.783 34.6101 299.838 34.6997 299.91 34.7755C299.983 34.8512 300.071 34.9113 300.17 34.9518C300.269 34.9922 300.376 35.0121 300.483 35.01L330.201 34.87C330.429 34.8662 330.648 34.7827 330.816 34.6353C330.985 34.4878 331.09 34.2867 331.113 34.07V33.81C331.125 33.7086 331.115 33.6058 331.081 33.5088C331.048 33.4118 330.993 33.3227 330.92 33.2477C330.848 33.1728 330.759 33.1136 330.66 33.0743C330.561 33.035 330.455 33.0165 330.348 33.02Z" fill="black"/>
<path opacity="0.2" d="M329.686 40.6L299.969 40.73C299.74 40.7338 299.521 40.8173 299.353 40.9647C299.185 41.1121 299.079 41.3133 299.056 41.53V41.79C299.046 41.8915 299.058 41.9941 299.092 42.0909C299.126 42.1877 299.181 42.2766 299.253 42.352C299.325 42.4274 299.413 42.4875 299.511 42.5285C299.609 42.5695 299.715 42.5904 299.822 42.59L329.55 42.45C329.777 42.4459 329.995 42.3621 330.162 42.2144C330.328 42.0668 330.432 41.8658 330.452 41.65V41.39C330.464 41.2885 330.453 41.1858 330.42 41.0888C330.387 40.9917 330.332 40.9027 330.259 40.8277C330.187 40.7527 330.098 40.6935 329.999 40.6542C329.9 40.615 329.794 40.5964 329.686 40.6Z" fill="black"/>
<path d="M326.089 0L324.914 13.09C324.9 13.2185 324.916 13.3483 324.959 13.4708C325.002 13.5932 325.072 13.7055 325.165 13.8001C325.257 13.8947 325.369 13.9694 325.494 14.0194C325.619 14.0694 325.754 14.0935 325.889 14.09H339.578L326.089 0Z" fill="#628FCE"/>
<path opacity="0.8" d="M326.089 0L324.914 13.09C324.9 13.2185 324.916 13.3483 324.959 13.4708C325.002 13.5932 325.072 13.7055 325.165 13.8001C325.257 13.8947 325.369 13.9694 325.494 14.0194C325.619 14.0694 325.754 14.0935 325.889 14.09H339.578L326.089 0Z" fill="white"/>
<path d="M319.05 60.43H288L289.28 46.53H320.33L319.05 60.43Z" fill="#1E2440"/>
<path d="M296.371 51.05H298.542C300.063 51.05 301.029 51.9 300.913 53.24C300.849 53.88 300.522 54.4698 300.003 54.8803C299.484 55.2908 298.815 55.4884 298.144 55.43H295.972L296.371 51.05ZM298.175 54.45C298.352 54.4622 298.53 54.4403 298.698 54.3856C298.866 54.3309 299.021 54.2445 299.153 54.1315C299.285 54.0186 299.392 53.8815 299.467 53.7283C299.543 53.5751 299.585 53.4091 299.591 53.24C299.628 53.0805 299.623 52.9149 299.577 52.7576C299.531 52.6003 299.445 52.4562 299.327 52.3379C299.209 52.2195 299.063 52.1304 298.9 52.0785C298.738 52.0266 298.565 52.0134 298.396 52.04H297.577L297.357 54.45H298.175Z" fill="white"/>
<path d="M301.354 53.24C301.423 52.5965 301.746 52.0024 302.259 51.5787C302.772 51.155 303.435 50.9337 304.112 50.96C304.431 50.935 304.752 50.9772 305.052 51.0835C305.352 51.1898 305.623 51.3577 305.848 51.5753C306.072 51.7928 306.243 52.0547 306.349 52.3424C306.455 52.6301 306.494 52.9365 306.462 53.24C306.391 53.8843 306.065 54.4785 305.55 54.902C305.036 55.3255 304.372 55.5464 303.693 55.52C303.374 55.547 303.053 55.5062 302.752 55.4005C302.452 55.2947 302.18 55.1267 301.956 54.9085C301.733 54.6903 301.562 54.4274 301.458 54.1389C301.354 53.8503 301.318 53.5433 301.354 53.24ZM305.14 53.24C305.17 53.0849 305.163 52.9255 305.12 52.7733C305.077 52.6212 304.999 52.4801 304.891 52.3603C304.784 52.2406 304.65 52.1452 304.499 52.0811C304.347 52.0171 304.183 51.9859 304.018 51.99C303.668 51.9947 303.333 52.1268 303.081 52.3591C302.83 52.5914 302.681 52.9065 302.665 53.24C302.635 53.395 302.642 53.5545 302.685 53.7066C302.728 53.8588 302.806 53.9999 302.914 54.1196C303.022 54.2394 303.156 54.3348 303.307 54.3988C303.458 54.4629 303.622 54.494 303.787 54.49C304.139 54.4901 304.477 54.3597 304.73 54.1264C304.982 53.8931 305.13 53.5751 305.14 53.24Z" fill="white"/>
<path d="M306.913 53.24C306.977 52.5982 307.297 52.0042 307.806 51.5801C308.315 51.156 308.976 50.9341 309.651 50.96C310.015 50.9404 310.378 51.0058 310.709 51.1505C311.04 51.2951 311.328 51.5147 311.55 51.79L310.658 52.5C310.542 52.3386 310.385 52.2075 310.202 52.1185C310.018 52.0294 309.815 51.9853 309.609 51.99C309.252 51.9844 308.906 52.1119 308.646 52.3452C308.385 52.5786 308.231 52.8996 308.214 53.24C308.184 53.3985 308.191 53.5616 308.237 53.7169C308.282 53.8721 308.364 54.0155 308.476 54.136C308.589 54.2565 308.728 54.351 308.885 54.4124C309.041 54.4737 309.21 54.5003 309.379 54.49C309.595 54.4872 309.808 54.4402 310.003 54.3522C310.199 54.2643 310.372 54.1373 310.511 53.98L311.277 54.7C311.012 54.9748 310.686 55.1907 310.324 55.3324C309.961 55.4741 309.571 55.5381 309.179 55.52C308.864 55.5473 308.545 55.5061 308.249 55.3993C307.952 55.2926 307.685 55.1231 307.467 54.9037C307.248 54.6842 307.085 54.4205 306.99 54.1324C306.894 53.8442 306.868 53.5391 306.913 53.24Z" fill="white"/>
<path d="M441.599 23.07L437.697 66.47C437.666 66.7424 437.532 66.9946 437.319 67.1789C437.107 67.3631 436.831 67.4667 436.543 67.47L394.448 67.55C394.313 67.5519 394.179 67.5268 394.055 67.4762C393.93 67.4257 393.819 67.3509 393.727 67.2567C393.635 67.1624 393.565 67.0508 393.521 66.9291C393.477 66.8074 393.46 66.6783 393.472 66.55L398.591 10.1C398.626 9.82932 398.762 9.57955 398.974 9.39607C399.185 9.21259 399.459 9.10756 399.745 9.10004H428.068L441.599 23.07Z" fill="#628FCE"/>
<g opacity="0.6">
<path d="M441.599 23.07L437.697 66.47C437.666 66.7424 437.532 66.9946 437.319 67.1789C437.107 67.3631 436.831 67.4667 436.543 67.47L394.448 67.55C394.313 67.5519 394.179 67.5268 394.055 67.4762C393.93 67.4257 393.819 67.3509 393.727 67.2567C393.635 67.1624 393.565 67.0508 393.521 66.9291C393.477 66.8074 393.46 66.6783 393.472 66.55L398.591 10.1C398.626 9.82932 398.762 9.57955 398.974 9.39607C399.185 9.21259 399.459 9.10756 399.745 9.10004H428.068L441.599 23.07Z" fill="white"/>
</g>
<path opacity="0.2" d="M432.997 34.45L403.28 34.58C403.053 34.5841 402.835 34.6679 402.668 34.8156C402.502 34.9632 402.398 35.1642 402.378 35.38V35.64C402.366 35.7419 402.377 35.8451 402.41 35.9426C402.443 36.0401 402.498 36.1298 402.57 36.2055C402.643 36.2812 402.732 36.3413 402.83 36.3818C402.929 36.4222 403.036 36.4421 403.144 36.44L432.861 36.3C433.09 36.2963 433.309 36.2127 433.477 36.0653C433.645 35.9179 433.751 35.7167 433.774 35.5V35.24C433.784 35.1381 433.772 35.0351 433.737 34.9381C433.703 34.8411 433.647 34.7522 433.573 34.6774C433.5 34.6026 433.41 34.5437 433.311 34.5045C433.212 34.4653 433.105 34.4467 432.997 34.45Z" fill="black"/>
<path opacity="0.2" d="M432.347 42.02L402.619 42.16C402.392 42.164 402.174 42.2479 402.008 42.3955C401.841 42.5431 401.738 42.7441 401.717 42.96V43.22C401.705 43.3219 401.716 43.425 401.749 43.5225C401.783 43.6201 401.837 43.7097 401.91 43.7854C401.982 43.8612 402.071 43.9213 402.17 43.9617C402.269 44.0022 402.375 44.022 402.483 44.02L432.2 43.88C432.429 43.8762 432.648 43.7927 432.816 43.6452C432.984 43.4978 433.09 43.2967 433.113 43.08V42.82C433.125 42.7181 433.114 42.6149 433.081 42.5174C433.048 42.4199 432.993 42.3302 432.92 42.2545C432.848 42.1788 432.759 42.1187 432.66 42.0782C432.562 42.0378 432.455 42.0179 432.347 42.02Z" fill="black"/>
<path opacity="0.2" d="M431.687 49.6L401.969 49.74C401.74 49.7438 401.521 49.8273 401.353 49.9747C401.185 50.1222 401.079 50.3233 401.056 50.54V50.8C401.044 50.9014 401.055 51.0042 401.088 51.1012C401.122 51.1982 401.177 51.2873 401.249 51.3623C401.322 51.4373 401.411 51.4964 401.51 51.5357C401.608 51.575 401.715 51.5935 401.822 51.59L431.55 51.46C431.778 51.456 431.995 51.3721 432.162 51.2245C432.328 51.0768 432.432 50.8758 432.452 50.66V50.4C432.464 50.2981 432.453 50.1949 432.42 50.0974C432.387 49.9999 432.332 49.9103 432.26 49.8345C432.187 49.7588 432.098 49.6987 432 49.6582C431.901 49.6178 431.794 49.5979 431.687 49.6Z" fill="black"/>
<path d="M428.089 9L426.914 22.09C426.9 22.2185 426.916 22.3484 426.959 22.4708C427.002 22.5932 427.072 22.7055 427.165 22.8C427.257 22.8946 427.369 22.9694 427.494 23.0194C427.619 23.0694 427.754 23.0935 427.889 23.09H441.578L428.089 9Z" fill="#628FCE"/>
<path opacity="0.8" d="M428.089 9L426.914 22.09C426.9 22.2185 426.916 22.3484 426.959 22.4708C427.002 22.5932 427.072 22.7055 427.165 22.8C427.257 22.8946 427.369 22.9694 427.494 23.0194C427.619 23.0694 427.754 23.0935 427.889 23.09H441.578L428.089 9Z" fill="white"/>
<path d="M421.05 70.3H390L391.269 56.4H422.33L421.05 70.3Z" fill="#1E2440"/>
<path d="M396.556 60.92H398.728C400.249 60.92 401.214 61.76 401.088 63.11C401.058 63.4274 400.962 63.736 400.806 64.018C400.65 64.3001 400.438 64.55 400.181 64.7535C399.923 64.957 399.626 65.11 399.307 65.2038C398.987 65.2976 398.651 65.3303 398.319 65.3H396.147L396.556 60.92ZM398.361 64.31C398.537 64.3236 398.715 64.303 398.882 64.2494C399.05 64.1959 399.205 64.1105 399.337 63.9983C399.47 63.8862 399.577 63.7497 399.652 63.597C399.728 63.4443 399.77 63.2787 399.777 63.11C399.813 62.9505 399.808 62.7849 399.762 62.6276C399.716 62.4703 399.63 62.3262 399.512 62.2079C399.394 62.0895 399.248 62.0004 399.085 61.9485C398.923 61.8966 398.75 61.8834 398.581 61.91H397.763L397.542 64.31H398.361Z" fill="white"/>
<path d="M401.539 63.11C401.613 62.4667 401.939 61.8738 402.453 61.4508C402.967 61.0278 403.63 60.806 404.308 60.83C404.627 60.8048 404.947 60.8469 405.246 60.9533C405.546 61.0597 405.817 61.2278 406.04 61.4455C406.264 61.6633 406.434 61.9254 406.539 62.2131C406.644 62.5009 406.681 62.8071 406.647 63.11C406.579 63.7535 406.255 64.3477 405.742 64.7713C405.229 65.195 404.567 65.4163 403.889 65.39C403.57 65.415 403.249 65.3728 402.949 65.2665C402.649 65.1602 402.378 64.9923 402.154 64.7747C401.929 64.5572 401.758 64.2953 401.652 64.0076C401.546 63.7199 401.507 63.4135 401.539 63.11ZM405.336 63.11C405.366 62.955 405.359 62.7956 405.316 62.6434C405.273 62.4912 405.195 62.3501 405.087 62.2304C404.98 62.1107 404.845 62.0153 404.694 61.9512C404.543 61.8871 404.379 61.856 404.214 61.86C403.862 61.8599 403.524 61.9903 403.272 62.2236C403.019 62.457 402.872 62.7749 402.861 63.11C402.831 63.2651 402.838 63.4245 402.881 63.5767C402.924 63.7289 403.002 63.87 403.11 63.9897C403.217 64.1094 403.351 64.2048 403.503 64.2689C403.654 64.333 403.818 64.3641 403.983 64.36C404.334 64.3577 404.67 64.2265 404.923 63.9937C405.175 63.7609 405.323 63.4444 405.336 63.11Z" fill="white"/>
<path d="M407.109 63.11C407.17 62.4691 407.488 61.8751 407.995 61.4508C408.503 61.0265 409.162 60.8043 409.836 60.83C410.201 60.8096 410.566 60.8746 410.899 61.0193C411.232 61.1639 411.522 61.3839 411.746 61.66L410.843 62.37C410.729 62.2066 410.572 62.074 410.389 61.9847C410.205 61.8954 410 61.8525 409.794 61.86C409.436 61.8519 409.089 61.9784 408.828 62.2123C408.567 62.4463 408.413 62.7687 408.399 63.11C408.369 63.2685 408.376 63.4316 408.422 63.5869C408.467 63.7421 408.549 63.8855 408.661 64.006C408.774 64.1265 408.913 64.221 409.07 64.2824C409.226 64.3437 409.395 64.3703 409.564 64.36C409.78 64.3572 409.993 64.3102 410.188 64.2223C410.384 64.1343 410.557 64.0073 410.697 63.85L411.452 64.56C411.195 64.8322 410.879 65.0475 410.525 65.1909C410.172 65.3343 409.79 65.4022 409.406 65.39C409.088 65.4222 408.766 65.3846 408.466 65.2801C408.165 65.1755 407.893 65.0067 407.672 64.7867C407.45 64.5666 407.284 64.3011 407.186 64.0105C407.089 63.7199 407.062 63.4119 407.109 63.11Z" fill="white"/>
<path d="M414.808 65.3L413.99 63.94L412.941 65.3H411.462L413.34 63.09L411.934 60.92H413.392L414.2 62.18L415.249 60.92H416.655L414.861 63.04L416.361 65.3H414.808Z" fill="white"/>
<path d="M543.589 40.08L539.718 83.47C539.685 83.7415 539.55 83.9925 539.338 84.1764C539.126 84.3602 538.851 84.4646 538.564 84.47L496.458 84.54C496.324 84.542 496.19 84.5169 496.066 84.4663C495.943 84.4157 495.832 84.3407 495.741 84.2462C495.649 84.1518 495.58 84.0401 495.538 83.9183C495.495 83.7966 495.48 83.6677 495.493 83.54L500.56 27.09C500.593 26.8185 500.728 26.5675 500.94 26.3836C501.152 26.1998 501.427 26.0954 501.714 26.09L530.068 26L543.589 40.08Z" fill="#628FCE"/>
<g opacity="0.6">
<path d="M543.589 40.08L539.718 83.47C539.685 83.7415 539.55 83.9925 539.338 84.1764C539.126 84.3602 538.851 84.4646 538.564 84.47L496.458 84.54C496.324 84.542 496.19 84.5169 496.066 84.4663C495.943 84.4157 495.832 84.3407 495.741 84.2462C495.649 84.1518 495.58 84.0401 495.538 83.9183C495.495 83.7966 495.48 83.6677 495.493 83.54L500.56 27.09C500.593 26.8185 500.728 26.5675 500.94 26.3836C501.152 26.1998 501.427 26.0954 501.714 26.09L530.068 26L543.589 40.08Z" fill="white"/>
</g>
<path opacity="0.2" d="M534.998 51.45L505.28 51.59C505.052 51.5938 504.832 51.6773 504.664 51.8248C504.496 51.9722 504.39 52.1733 504.367 52.39V52.65C504.355 52.7515 504.366 52.8542 504.399 52.9513C504.433 53.0483 504.488 53.1373 504.56 53.2123C504.633 53.2873 504.722 53.3465 504.821 53.3858C504.92 53.4251 505.026 53.4436 505.133 53.44L534.861 53.31C535.089 53.3036 535.307 53.2176 535.474 53.0683C535.64 52.919 535.743 52.7169 535.763 52.5V52.25C535.775 52.1481 535.764 52.045 535.731 51.9475C535.698 51.8499 535.643 51.7603 535.571 51.6846C535.498 51.6088 535.41 51.5487 535.311 51.5083C535.212 51.4678 535.105 51.448 534.998 51.45Z" fill="black"/>
<path opacity="0.2" d="M534.337 59L504.619 59.14C504.392 59.144 504.174 59.2279 504.008 59.3755C503.841 59.5231 503.738 59.7241 503.717 59.94V60.2C503.708 60.3016 503.722 60.4039 503.757 60.5002C503.792 60.5965 503.848 60.6847 503.921 60.7591C503.994 60.8336 504.083 60.8926 504.182 60.9323C504.28 60.9721 504.386 60.9917 504.493 60.99L534.211 60.86C534.44 60.8517 534.658 60.7654 534.825 60.6167C534.993 60.468 535.098 60.2669 535.123 60.05V59.79C535.134 59.6871 535.121 59.5833 535.086 59.4856C535.051 59.3878 534.994 59.2984 534.92 59.2235C534.845 59.1485 534.754 59.0898 534.654 59.0512C534.553 59.0126 534.445 58.9952 534.337 59Z" fill="black"/>
<path opacity="0.2" d="M533.686 66.61L503.958 66.74C503.731 66.7486 503.514 66.8353 503.348 66.9841C503.182 67.133 503.079 67.3339 503.056 67.55V67.81C503.044 67.9114 503.055 68.0142 503.088 68.1112C503.122 68.2082 503.176 68.2973 503.249 68.3723C503.322 68.4473 503.411 68.5064 503.509 68.5457C503.608 68.585 503.715 68.6035 503.822 68.6L533.539 68.46C533.768 68.4562 533.987 68.3727 534.155 68.2252C534.323 68.0778 534.429 67.8767 534.452 67.66V67.4C534.464 67.2985 534.453 67.1958 534.42 67.0988C534.387 67.0017 534.332 66.9127 534.259 66.8377C534.186 66.7627 534.098 66.7036 533.999 66.6643C533.9 66.625 533.793 66.6065 533.686 66.61Z" fill="black"/>
<path d="M530.088 26L528.914 39.1C528.9 39.2277 528.915 39.3566 528.958 39.4783C529.001 39.6001 529.07 39.7118 529.161 39.8062C529.252 39.9007 529.363 39.9757 529.487 40.0263C529.611 40.0769 529.744 40.102 529.879 40.1H543.578L530.088 26Z" fill="#628FCE"/>
<path opacity="0.8" d="M530.088 26L528.914 39.1C528.9 39.2277 528.915 39.3566 528.958 39.4783C529.001 39.6001 529.07 39.7118 529.161 39.8062C529.252 39.9007 529.363 39.9757 529.487 40.0263C529.611 40.0769 529.744 40.102 529.879 40.1H543.578L530.088 26Z" fill="white"/>
<path d="M523.05 87.3H492L493.269 73.41H524.319L523.05 87.3Z" fill="#1E2440"/>
<path d="M504.661 82.31L503.832 80.95L502.784 82.31H501.294L503.172 80.09L501.776 77.93H503.235L504.042 79.19L505.091 77.93H506.497L504.661 80L506.161 82.27L504.661 82.31Z" fill="white"/>
<path d="M506.874 77.93H508.165L507.86 81.33H510.053L509.958 82.33H506.465L506.874 77.93Z" fill="white"/>
<path d="M510.179 81.91L510.693 81C511.127 81.2788 511.638 81.4284 512.162 81.43C512.707 81.43 512.927 81.29 512.948 81.08C513.011 80.38 510.347 80.89 510.504 79.26C510.578 78.48 511.301 77.84 512.665 77.84C513.236 77.8279 513.8 77.959 514.301 78.22L513.819 79.14C513.441 78.9246 513.011 78.8074 512.571 78.8C512.025 78.8 511.815 78.98 511.794 79.2C511.731 79.87 514.385 79.37 514.239 80.98C514.165 81.74 513.441 82.4 512.067 82.4C511.401 82.4185 510.744 82.2479 510.179 81.91Z" fill="white"/>
</svg>
