<svg width="447" height="316" viewBox="0 0 447 316" fill="none" xmlns="http://www.w3.org/2000/svg">
<path d="M447 277.659H0V277.871H447V277.659Z" fill="#EBEBEB"/>
<path d="M402.211 291.304H372.601V291.516H402.211V291.304Z" fill="#EBEBEB"/>
<path d="M244.259 288.65H232.735V288.862H244.259V288.65Z" fill="#EBEBEB"/>
<path d="M312.605 289.54H288.342V289.752H312.605V289.54Z" fill="#EBEBEB"/>
<path d="M371.707 283.434H321.545V283.646H371.707V283.434Z" fill="#EBEBEB"/>
<path d="M70.617 293.246H46.8992V293.458H70.617V293.246Z" fill="#EBEBEB"/>
<path d="M99.1357 293.246H78.5737V293.458H99.1357V293.246Z" fill="#EBEBEB"/>
<path d="M171.478 288.539H117.114V288.751H171.478V288.539Z" fill="#EBEBEB"/>
<path d="M211.878 239.835H39.2555C37.9032 239.832 36.607 239.321 35.6517 238.413C34.6963 237.505 34.1597 236.275 34.1597 234.992V4.80009C34.1714 3.52461 34.7132 2.30504 35.6673 1.40629C36.6215 0.507535 37.9109 0.00218496 39.2555 0H211.878C213.232 0 214.53 0.51019 215.488 1.41833C216.445 2.32648 216.983 3.55818 216.983 4.84249V234.992C216.983 236.277 216.445 237.508 215.488 238.416C214.53 239.325 213.232 239.835 211.878 239.835V239.835ZM39.2555 0.169615C37.9624 0.171862 36.7232 0.660703 35.8097 1.52884C34.8962 2.39698 34.3832 3.57348 34.3832 4.80009V234.992C34.3832 236.219 34.8962 237.395 35.8097 238.263C36.7232 239.132 37.9624 239.62 39.2555 239.623H211.878C213.172 239.62 214.412 239.132 215.327 238.264C216.242 237.396 216.757 236.22 216.759 234.992V4.80009C216.757 3.5727 216.242 2.39622 215.327 1.52832C214.412 0.660428 213.172 0.171857 211.878 0.169615H39.2555Z" fill="#EBEBEB"/>
<path d="M405.259 239.835H232.628C231.275 239.832 229.978 239.322 229.021 238.414C228.064 237.506 227.525 236.276 227.523 234.992V4.80009C227.537 3.52383 228.081 2.30428 229.036 1.40576C229.992 0.507239 231.282 0.00216113 232.628 0H405.259C406.602 0.00441379 407.889 0.51075 408.841 1.40926C409.794 2.30778 410.334 3.52607 410.346 4.80009V234.992C410.346 236.274 409.811 237.503 408.857 238.41C407.904 239.318 406.61 239.83 405.259 239.835V239.835ZM232.628 0.169615C231.334 0.171857 230.094 0.660428 229.179 1.52832C228.264 2.39622 227.749 3.5727 227.746 4.80009V234.992C227.749 236.22 228.264 237.396 229.179 238.264C230.094 239.132 231.334 239.62 232.628 239.623H405.259C406.553 239.62 407.793 239.132 408.708 238.264C409.623 237.396 410.138 236.22 410.14 234.992V4.80009C410.138 3.5727 409.623 2.39622 408.708 1.52832C407.793 0.660428 406.553 0.171857 405.259 0.169615H232.628Z" fill="#EBEBEB"/>
<path d="M236.821 204.716C235.033 199.84 220.916 206.472 215.186 214.554C211.368 219.93 209.035 225.68 207.953 233.398C208.078 224.595 208.23 215.13 208.373 206.2C209.536 203.978 212.182 198.847 214.077 194.777C220.434 181.207 235.533 176.119 240.745 167.587C247.584 156.359 247.54 139.525 241.729 133.444C236.669 128.169 219.924 163.873 218.038 167.859C212.891 178.534 209.649 189.946 208.445 201.629C208.588 193.242 208.722 185.516 208.829 179.579C209.187 160.201 209.625 153.967 209.831 152.051C210.528 151.118 211.35 150.024 211.833 149.439C215.883 144.494 224.877 138.6 229.365 131.409C235.927 120.901 234.872 108.333 230.259 103.651C225.449 98.7579 216.938 110.326 212.423 121.783C207.909 133.241 209.84 144.215 208.57 153.738C208.311 155.604 208.034 162.694 207.783 172.532C206.407 161.948 203.68 154.858 198.62 148.251C192.362 140.127 186.998 130.23 181.911 131.51C176.824 132.791 179.542 145.877 183.601 155.07C187.177 163.262 205.057 171.421 207.649 178.01C207.336 191.342 207.059 208.236 206.863 223.959C205.459 215.834 206.425 215.156 200.667 202.715C197.252 195.319 183.225 186.203 181.553 191.283C179.882 196.363 182.447 205.963 187.713 212.688C191.986 218.116 201.463 218.107 203.653 221.474C204.172 222.263 205.861 225.273 206.827 227.003C206.594 246.204 206.496 263.157 206.612 268.932L207.506 268.991C207.506 267.499 207.578 257.729 207.757 244.804C210.063 237.927 225.556 233.915 230.339 226.757C235.372 219.303 238.975 210.568 236.821 204.716Z" fill="#E6E6E6"/>
<path d="M222.257 277.659H192.523C191.734 277.66 190.969 277.402 190.358 276.929C189.747 276.456 189.327 275.797 189.17 275.064L187.061 265.192H227.72L225.601 275.064C225.446 275.796 225.028 276.455 224.418 276.928C223.809 277.401 223.045 277.66 222.257 277.659Z" fill="#F0F0F0"/>
<path d="M228.569 269.017H186.211C185.718 269.017 185.242 268.844 184.875 268.531C184.509 268.217 184.277 267.786 184.227 267.321L183.333 260.019C183.303 259.754 183.331 259.487 183.417 259.233C183.503 258.98 183.644 258.746 183.832 258.548C184.019 258.35 184.248 258.191 184.504 258.082C184.759 257.973 185.037 257.916 185.317 257.916H229.409C229.69 257.916 229.966 257.973 230.222 258.082C230.478 258.191 230.706 258.35 230.892 258.549C231.079 258.747 231.219 258.981 231.304 259.234C231.389 259.487 231.416 259.755 231.385 260.019L230.491 267.321C230.443 267.777 230.222 268.201 229.868 268.513C229.514 268.826 229.052 269.005 228.569 269.017V269.017Z" fill="#F0F0F0"/>
<path d="M358.288 274.122H386.762V158.861H358.288V274.122Z" fill="#F0F0F0"/>
<path d="M237.312 277.659H384.84V274.122H237.312V277.659Z" fill="#F0F0F0"/>
<path d="M358.279 158.861H235.399V274.122H358.279V158.861Z" fill="#F5F5F5"/>
<path d="M347.087 204.292H246.592V228.7H347.087V204.292Z" fill="#F0F0F0"/>
<path d="M347.087 235.705H246.592V260.112H347.087V235.705Z" fill="#F0F0F0"/>
<path d="M285.562 208.498H308.117C309.653 208.498 310.897 207.319 310.897 205.865C310.897 204.411 309.653 203.232 308.117 203.232H285.562C284.026 203.232 282.781 204.411 282.781 205.865C282.781 207.319 284.026 208.498 285.562 208.498Z" fill="#F5F5F5"/>
<path d="M347.087 172.879H246.592V197.287H347.087V172.879Z" fill="#F0F0F0"/>
<path d="M285.562 177.086H308.117C308.852 177.084 309.557 176.806 310.077 176.314C310.598 175.822 310.893 175.154 310.898 174.457C310.895 173.758 310.602 173.088 310.081 172.594C309.56 172.1 308.854 171.822 308.117 171.819H285.562C284.825 171.822 284.119 172.1 283.598 172.594C283.077 173.088 282.784 173.758 282.781 174.457V174.457C282.786 175.154 283.081 175.822 283.601 176.314C284.122 176.806 284.826 177.084 285.562 177.086Z" fill="#F5F5F5"/>
<path d="M285.562 239.911H308.117C308.853 239.911 309.559 239.634 310.08 239.142C310.601 238.649 310.895 237.98 310.898 237.282V237.282C310.895 236.583 310.602 235.914 310.081 235.419C309.56 234.925 308.854 234.647 308.117 234.645H285.562C284.825 234.647 284.119 234.925 283.598 235.419C283.077 235.914 282.784 236.583 282.781 237.282V237.282C282.784 237.98 283.078 238.649 283.599 239.142C284.12 239.634 284.826 239.911 285.562 239.911V239.911Z" fill="#F5F5F5"/>
<path d="M232.869 158.861L358.279 158.861V155.57L232.869 155.57V158.861Z" fill="#F0F0F0"/>
<path d="M389.462 155.57H358.28V158.861H389.462V155.57Z" fill="#E6E6E6"/>
<path d="M131.785 277.659H159.919L159.919 105.051H131.785L131.785 277.659Z" fill="#E0E0E0"/>
<path d="M60.0857 277.659H154.286L164.183 65.1998H69.9823L60.0857 277.659Z" fill="#E6E6E6"/>
<path d="M46.345 277.659H150.55L160.437 65.1998H56.2416L46.345 277.659Z" fill="#F0F0F0"/>
<path d="M140.349 267.244L148.681 75.6141H66.4421L58.1011 267.244H140.349Z" fill="white"/>
<path d="M105.009 267.244L132.965 75.6141H124.194L96.239 267.244H105.009Z" fill="#FAFAFA"/>
<path d="M92.5201 267.244L120.475 75.6141H105.519L77.5635 267.244H92.5201Z" fill="#FAFAFA"/>
<path d="M262.362 123.072L376.374 123.072V21.8972L262.362 21.8972V123.072Z" fill="#E6E6E6"/>
<path d="M258.813 123.072L374.711 123.072V21.8972L258.813 21.8972V123.072Z" fill="#F5F5F5"/>
<path d="M262.362 127.202L376.374 127.202V123.064L262.362 123.064V127.202Z" fill="#E6E6E6"/>
<path d="M255.648 127.202L363.804 127.202V123.064L255.648 123.064V127.202Z" fill="#F5F5F5"/>
<path d="M369.758 116.796V28.1645L263.766 28.1645V116.796H369.758Z" fill="#FAFAFA"/>
<path d="M264.481 116.796V28.1645H263.775V116.796H264.481Z" fill="#E6E6E6"/>
<path d="M352.182 116.796L333.855 28.1645H309.833L328.16 116.796H352.182Z" fill="white"/>
<path d="M324.272 116.796L305.945 28.1645H295.101L313.428 116.796H324.272Z" fill="white"/>
<path d="M366.218 111.996V18.4201C366.218 18.1344 365.974 17.9028 365.673 17.9028H365.628C365.327 17.9028 365.083 18.1344 365.083 18.4201V111.996C365.083 112.282 365.327 112.514 365.628 112.514H365.673C365.974 112.514 366.218 112.282 366.218 111.996Z" fill="#EBEBEB"/>
<path opacity="0.5" d="M256.22 33.3801L378.296 33.3801V17.8943L256.22 17.8943V33.3801Z" fill="#E6E6E6"/>
<path d="M256.22 19.8194L378.296 19.8194V17.8943L256.22 17.8943V19.8194Z" fill="#E0E0E0"/>
<path d="M256.426 18.7424L378.099 18.7424C378.529 18.7424 378.877 18.412 378.877 18.0046V17.7925C378.877 17.3851 378.529 17.0547 378.099 17.0547L256.426 17.0547C255.996 17.0547 255.648 17.3851 255.648 17.7925V18.0046C255.648 18.412 255.996 18.7424 256.426 18.7424Z" fill="#EBEBEB"/>
<path d="M256.069 33.7872H378.448C378.504 33.7872 378.559 33.7766 378.611 33.756C378.663 33.7355 378.709 33.7054 378.748 33.6674C378.788 33.6295 378.818 33.5846 378.839 33.5352C378.86 33.4859 378.87 33.4332 378.868 33.3801V33.3801C378.868 33.2744 378.824 33.173 378.745 33.0983C378.666 33.0235 378.56 32.9815 378.448 32.9815H256.069C255.956 32.9815 255.848 33.0232 255.768 33.0977C255.688 33.1722 255.642 33.2736 255.639 33.3801V33.3801C255.639 33.4881 255.685 33.5916 255.765 33.6679C255.846 33.7443 255.955 33.7872 256.069 33.7872Z" fill="white"/>
<path d="M223.5 315.958C319.232 315.958 396.838 311.659 396.838 306.357C396.838 301.055 319.232 296.757 223.5 296.757C127.768 296.757 50.1624 301.055 50.1624 306.357C50.1624 311.659 127.768 315.958 223.5 315.958Z" fill="#F5F5F5"/>
<path d="M57.9655 184.101L57.0598 184.201L58.6693 197.257L59.575 197.157L57.9655 184.101Z" fill="#1E2440"/>
<path d="M60.1752 202.004L59.2695 202.105L60.0815 208.692L60.9873 208.591L60.1752 202.004Z" fill="#1E2440"/>
<path d="M120.324 157.478L119.251 154.62C118.513 152.656 117.094 150.987 115.226 149.887C113.359 148.787 111.153 148.321 108.97 148.565L66.2454 153.306C63.686 153.591 61.3506 154.828 59.7529 156.746C58.1552 158.664 57.426 161.106 57.7256 163.534L69.884 262.164C69.985 262.989 70.2564 263.787 70.6827 264.513C71.109 265.238 71.6819 265.877 72.3686 266.392C73.0553 266.907 73.8423 267.288 74.6846 267.515C75.5269 267.741 76.4079 267.808 77.2774 267.711L230.151 250.749C231.023 250.656 231.866 250.4 232.632 249.996C233.399 249.593 234.074 249.05 234.619 248.398C235.164 247.746 235.568 246.999 235.808 246.199C236.047 245.399 236.118 244.562 236.016 243.736L225.467 158.471C225.263 156.806 224.37 155.287 222.985 154.247C221.601 153.207 219.837 152.731 218.082 152.924L129.308 162.779C127.4 162.988 125.472 162.579 123.841 161.616C122.209 160.653 120.969 159.195 120.324 157.478Z" fill="#1E2440"/>
<path d="M124.59 114.587L76.2888 123.718L89.5498 186.846L137.851 177.715L124.59 114.587Z" fill="#1E2440"/>
<path opacity="0.7" d="M124.59 114.587L76.2888 123.718L89.5498 186.846L137.851 177.715L124.59 114.587Z" fill="white"/>
<g opacity="0.4">
<path d="M118.142 129.755L88.3897 135.386C87.6966 135.514 86.9784 135.377 86.391 135.005C85.8035 134.634 85.3942 134.058 85.2518 133.402C85.1173 132.744 85.2614 132.063 85.6531 131.506C86.0447 130.948 86.6522 130.56 87.3437 130.425L117.114 124.819C117.807 124.692 118.525 124.828 119.113 125.2C119.7 125.571 120.109 126.148 120.252 126.804C120.378 127.46 120.228 128.137 119.833 128.689C119.439 129.241 118.831 129.624 118.142 129.755Z" fill="#1E2440"/>
<path d="M120.332 140.212L90.5801 145.868C89.8883 145.993 89.1724 145.856 88.587 145.484C88.0015 145.113 87.5935 144.538 87.4511 143.884C87.3191 143.228 87.4646 142.549 87.856 141.993C88.2474 141.438 88.8534 141.051 89.543 140.916L119.295 135.293C119.987 135.168 120.703 135.306 121.288 135.677C121.874 136.048 122.282 136.623 122.424 137.277C122.546 137.928 122.396 138.599 122.005 139.147C121.615 139.694 121.015 140.076 120.332 140.212Z" fill="#1E2440"/>
<path d="M122.523 150.651L92.7702 156.274C92.0785 156.399 91.3626 156.261 90.7772 155.89C90.1917 155.519 89.7837 154.944 89.6412 154.29C89.5093 153.633 89.6548 152.954 90.0462 152.399C90.4376 151.844 91.0435 151.457 91.7332 151.321L121.486 145.69C122.177 145.565 122.893 145.703 123.479 146.074C124.064 146.446 124.472 147.02 124.615 147.675C124.749 148.332 124.605 149.014 124.213 149.571C123.822 150.128 123.214 150.516 122.523 150.651Z" fill="#1E2440"/>
<path d="M124.722 161.134L94.9696 166.756C94.2765 166.884 93.5583 166.747 92.9708 166.376C92.3833 166.004 91.974 165.428 91.8316 164.772C91.6971 164.114 91.8413 163.433 92.2329 162.876C92.6246 162.319 93.232 161.93 93.9236 161.795L123.676 156.172C124.369 156.045 125.087 156.182 125.675 156.553C126.262 156.925 126.671 157.501 126.814 158.157C126.948 158.814 126.804 159.496 126.413 160.053C126.021 160.61 125.413 160.999 124.722 161.134Z" fill="#1E2440"/>
<path d="M118.777 173.066L97.1598 177.154C96.4681 177.279 95.7522 177.141 95.1667 176.77C94.5813 176.398 94.1733 175.823 94.0308 175.169C93.8963 174.512 94.0405 173.83 94.4321 173.273C94.8238 172.716 95.4313 172.328 96.1228 172.192L117.74 168.105C118.431 167.98 119.147 168.118 119.733 168.489C120.318 168.86 120.726 169.435 120.869 170.089C121.003 170.747 120.859 171.428 120.467 171.985C120.076 172.543 119.468 172.931 118.777 173.066Z" fill="#1E2440"/>
</g>
<path d="M193.412 102.422L144.616 108.754L153.813 172.529L202.609 166.196L193.412 102.422Z" fill="#1E2440"/>
<path opacity="0.7" d="M193.412 102.422L144.616 108.754L153.813 172.529L202.609 166.196L193.412 102.422Z" fill="white"/>
<g opacity="0.4">
<path d="M186.006 117.204L155.949 121.105C155.249 121.192 154.541 121.014 153.979 120.609C153.417 120.204 153.045 119.605 152.945 118.942C152.854 118.278 153.041 117.607 153.468 117.073C153.895 116.54 154.526 116.187 155.225 116.093L185.281 112.191C185.981 112.104 186.689 112.283 187.252 112.687C187.814 113.092 188.185 113.691 188.285 114.354C188.377 115.018 188.189 115.69 187.762 116.223C187.336 116.756 186.704 117.109 186.006 117.204Z" fill="#1E2440"/>
<path d="M187.525 127.745L157.469 131.646C156.769 131.733 156.061 131.555 155.499 131.15C154.937 130.745 154.565 130.147 154.465 129.484C154.376 128.821 154.565 128.152 154.992 127.62C155.418 127.088 156.048 126.737 156.745 126.643L186.801 122.741C187.5 122.654 188.207 122.831 188.769 123.234C189.331 123.637 189.703 124.234 189.805 124.896C189.897 125.56 189.709 126.231 189.282 126.765C188.855 127.298 188.224 127.65 187.525 127.745Z" fill="#1E2440"/>
<path d="M167.267 141.119L158.989 142.196C158.289 142.283 157.581 142.105 157.019 141.7C156.456 141.295 156.085 140.697 155.985 140.034C155.893 139.37 156.081 138.698 156.508 138.165C156.935 137.631 157.566 137.279 158.265 137.184L166.552 136.107C167.251 136.022 167.956 136.202 168.517 136.606C169.077 137.011 169.447 137.608 169.547 138.27C169.639 138.934 169.451 139.605 169.024 140.139C168.597 140.672 167.966 141.024 167.267 141.119Z" fill="#1E2440"/>
<path d="M183.332 139.033L175.045 140.11C174.347 140.195 173.641 140.015 173.081 139.611C172.52 139.206 172.15 138.609 172.05 137.947C171.958 137.283 172.146 136.612 172.573 136.078C173 135.545 173.631 135.193 174.33 135.098L182.608 134.029C183.307 133.942 184.014 134.119 184.576 134.522C185.138 134.925 185.51 135.522 185.612 136.183C185.704 136.847 185.516 137.519 185.089 138.052C184.663 138.586 184.031 138.938 183.332 139.033Z" fill="#1E2440"/>
<path d="M190.565 148.837L160.509 152.738C159.809 152.825 159.101 152.647 158.538 152.242C157.976 151.837 157.605 151.238 157.505 150.575C157.416 149.912 157.605 149.243 158.031 148.712C158.458 148.18 159.087 147.829 159.785 147.734L189.841 143.824C190.541 143.737 191.249 143.916 191.811 144.32C192.373 144.725 192.745 145.324 192.845 145.987C192.936 146.651 192.749 147.323 192.322 147.856C191.895 148.389 191.264 148.742 190.565 148.837Z" fill="#1E2440"/>
<path d="M183.878 160.447L162.028 163.279C161.331 163.364 160.627 163.186 160.067 162.783C159.507 162.38 159.136 161.785 159.033 161.125C158.941 160.462 159.128 159.792 159.553 159.259C159.978 158.726 160.607 158.372 161.304 158.276L183.154 155.443C183.851 155.358 184.555 155.536 185.115 155.939C185.675 156.342 186.046 156.937 186.148 157.597C186.24 158.26 186.054 158.93 185.629 159.464C185.204 159.997 184.575 160.35 183.878 160.447Z" fill="#1E2440"/>
</g>
<path d="M147.368 111.727L98.303 115.782L104.193 179.908L153.258 175.852L147.368 111.727Z" fill="#1E2440"/>
<path opacity="0.8" d="M147.368 111.727L98.303 115.782L104.193 179.908L153.258 175.852L147.368 111.727Z" fill="white"/>
<g opacity="0.4">
<path d="M139.205 126.159L108.979 128.652C108.275 128.707 107.578 128.496 107.037 128.066C106.497 127.636 106.157 127.021 106.091 126.354C106.036 125.689 106.26 125.029 106.713 124.518C107.166 124.007 107.813 123.686 108.514 123.623L138.74 121.079C139.443 121.025 140.14 121.236 140.681 121.666C141.221 122.096 141.562 122.711 141.627 123.377C141.662 123.711 141.626 124.048 141.523 124.369C141.42 124.69 141.251 124.988 141.026 125.246C140.801 125.505 140.524 125.718 140.211 125.875C139.899 126.032 139.557 126.128 139.205 126.159Z" fill="#1E2440"/>
<path d="M140.179 136.76L109.953 139.304C109.25 139.359 108.552 139.148 108.012 138.717C107.471 138.287 107.131 137.672 107.065 137.006C107.008 136.339 107.231 135.677 107.684 135.165C108.138 134.652 108.786 134.329 109.488 134.267L139.714 131.723C140.418 131.668 141.115 131.879 141.656 132.309C142.196 132.739 142.536 133.354 142.602 134.021C142.659 134.688 142.437 135.35 141.983 135.862C141.53 136.375 140.882 136.698 140.179 136.76Z" fill="#1E2440"/>
<path d="M141.154 147.361L110.927 149.905C110.224 149.959 109.527 149.749 108.986 149.318C108.446 148.888 108.106 148.273 108.04 147.607C107.983 146.94 108.205 146.278 108.658 145.765C109.112 145.253 109.76 144.93 110.463 144.868L140.689 142.323C141.392 142.269 142.089 142.48 142.63 142.91C143.17 143.34 143.51 143.955 143.576 144.622C143.634 145.289 143.411 145.95 142.958 146.463C142.504 146.976 141.856 147.298 141.154 147.361Z" fill="#1E2440"/>
<path d="M142.146 157.962L111.92 160.506C111.217 160.56 110.519 160.349 109.979 159.919C109.438 159.489 109.098 158.874 109.032 158.208C108.975 157.541 109.197 156.879 109.651 156.366C110.104 155.854 110.753 155.531 111.455 155.469L141.681 152.975C142.384 152.921 143.082 153.132 143.622 153.562C144.163 153.992 144.503 154.607 144.569 155.273C144.611 155.932 144.382 156.581 143.93 157.082C143.478 157.584 142.839 157.899 142.146 157.962Z" fill="#1E2440"/>
<path d="M134.842 169.25L112.876 171.065C112.169 171.126 111.464 170.918 110.918 170.487C110.372 170.056 110.028 169.437 109.962 168.766C109.905 168.099 110.127 167.438 110.581 166.925C111.034 166.412 111.682 166.09 112.385 166.027L134.35 164.212C135.054 164.158 135.751 164.369 136.291 164.799C136.832 165.229 137.172 165.844 137.238 166.51C137.295 167.174 137.077 167.832 136.629 168.344C136.181 168.856 135.54 169.181 134.842 169.25Z" fill="#1E2440"/>
</g>
<path d="M207.154 108.611L157.96 110.861L161.228 175.155L210.421 172.905L207.154 108.611Z" fill="#1E2440"/>
<path opacity="0.8" d="M207.154 108.611L157.96 110.861L161.228 175.155L210.421 172.905L207.154 108.611Z" fill="white"/>
<g opacity="0.4">
<path d="M198.414 122.716L168.117 124.107C167.412 124.135 166.725 123.898 166.203 123.449C165.681 123 165.367 122.374 165.327 121.707C165.298 121.039 165.547 120.387 166.02 119.892C166.494 119.397 167.154 119.098 167.857 119.061L198.164 117.67C198.868 117.642 199.555 117.878 200.077 118.327C200.599 118.777 200.914 119.403 200.953 120.07C200.982 120.739 200.732 121.393 200.257 121.888C199.781 122.383 199.119 122.681 198.414 122.716Z" fill="#1E2440"/>
<path d="M198.96 133.351L168.653 134.733C167.949 134.761 167.262 134.525 166.74 134.076C166.218 133.626 165.903 133.001 165.864 132.333C165.834 131.664 166.085 131.011 166.56 130.515C167.035 130.02 167.697 129.722 168.403 129.687L198.7 128.296C199.406 128.269 200.094 128.506 200.617 128.957C201.139 129.408 201.452 130.036 201.49 130.705C201.519 131.373 201.27 132.025 200.796 132.52C200.323 133.015 199.663 133.313 198.96 133.351Z" fill="#1E2440"/>
<path d="M177.548 145.02L169.198 145.402C168.494 145.43 167.807 145.193 167.285 144.744C166.763 144.295 166.448 143.669 166.409 143.002C166.38 142.334 166.629 141.682 167.102 141.187C167.576 140.692 168.235 140.393 168.939 140.356L177.289 139.966C177.995 139.938 178.683 140.175 179.205 140.626C179.728 141.077 180.041 141.705 180.078 142.374C180.108 143.042 179.859 143.694 179.385 144.189C178.912 144.684 178.252 144.983 177.548 145.02Z" fill="#1E2440"/>
<path d="M193.738 144.24L185.389 144.622C184.684 144.649 183.997 144.413 183.475 143.964C182.953 143.515 182.639 142.889 182.599 142.222C182.57 141.554 182.819 140.902 183.292 140.407C183.766 139.911 184.426 139.613 185.129 139.576L193.479 139.194C194.183 139.166 194.871 139.402 195.393 139.852C195.915 140.301 196.229 140.927 196.268 141.594C196.298 142.262 196.049 142.914 195.575 143.409C195.102 143.904 194.442 144.203 193.738 144.24Z" fill="#1E2440"/>
<path d="M200.041 154.612L169.735 155.994C169.031 156.022 168.343 155.786 167.821 155.337C167.299 154.888 166.985 154.262 166.945 153.594C166.916 152.925 167.166 152.272 167.642 151.776C168.117 151.281 168.779 150.983 169.484 150.948L199.782 149.557C200.488 149.53 201.176 149.767 201.698 150.218C202.221 150.669 202.534 151.297 202.571 151.966C202.601 152.634 202.352 153.286 201.878 153.781C201.405 154.276 200.745 154.575 200.041 154.612Z" fill="#1E2440"/>
<path d="M192.299 165.62L170.28 166.629C169.576 166.657 168.889 166.421 168.367 165.972C167.845 165.522 167.53 164.897 167.491 164.229C167.462 163.561 167.711 162.909 168.184 162.414C168.657 161.919 169.317 161.62 170.021 161.583L192.04 160.574C192.744 160.546 193.431 160.782 193.953 161.231C194.475 161.681 194.79 162.307 194.829 162.974C194.859 163.642 194.61 164.294 194.136 164.789C193.663 165.284 193.003 165.583 192.299 165.62Z" fill="#1E2440"/>
</g>
<path d="M133.966 159.302L133.179 156.512C132.628 154.581 131.348 152.909 129.583 151.815C127.818 150.72 125.69 150.279 123.604 150.575L80.88 155.316C78.288 155.617 75.9009 156.805 74.1662 158.657C72.4315 160.508 71.4683 162.897 71.4573 165.374L73.88 261.927C73.8945 262.722 74.0882 263.505 74.4483 264.224C74.8084 264.942 75.3264 265.579 75.9675 266.091C76.6086 266.604 77.358 266.98 78.1653 267.195C78.9725 267.41 79.8189 267.459 80.6476 267.338L233.522 250.376C235.297 250.172 236.932 249.361 238.122 248.095C239.312 246.829 239.974 245.194 239.985 243.498L237.893 160.031C237.878 159.235 237.683 158.452 237.322 157.734C236.96 157.016 236.442 156.379 235.8 155.866C235.158 155.354 234.408 154.978 233.6 154.763C232.793 154.548 231.946 154.499 231.117 154.62L142.351 164.467C140.529 164.73 138.668 164.35 137.123 163.398C135.577 162.446 134.453 160.988 133.966 159.302Z" fill="#1E2440"/>
<path opacity="0.3" d="M133.966 159.302L133.179 156.512C132.628 154.581 131.348 152.909 129.583 151.815C127.818 150.72 125.69 150.279 123.604 150.575L80.88 155.316C78.288 155.617 75.9009 156.805 74.1662 158.657C72.4315 160.508 71.4683 162.897 71.4573 165.374L73.88 261.927C73.8945 262.722 74.0882 263.505 74.4483 264.224C74.8084 264.942 75.3264 265.579 75.9675 266.091C76.6086 266.604 77.358 266.98 78.1653 267.195C78.9725 267.41 79.8189 267.459 80.6476 267.338L233.522 250.376C235.297 250.172 236.932 249.361 238.122 248.095C239.312 246.829 239.974 245.194 239.985 243.498L237.893 160.031C237.878 159.235 237.683 158.452 237.322 157.734C236.96 157.016 236.442 156.379 235.8 155.866C235.158 155.354 234.408 154.978 233.6 154.763C232.793 154.548 231.946 154.499 231.117 154.62L142.351 164.467C140.529 164.73 138.668 164.35 137.123 163.398C135.577 162.446 134.453 160.988 133.966 159.302Z" fill="black"/>
<path d="M283.398 112.887C282.736 116.033 282.03 119.137 281.234 122.216C280.439 125.294 279.661 128.407 278.794 131.485L277.471 136.09L277.301 136.684C277.22 136.938 277.131 137.193 277.024 137.455C276.795 138.033 276.495 138.582 276.13 139.092C275.686 139.726 275.119 140.273 274.458 140.704C273.73 141.172 272.892 141.463 272.017 141.552C270.693 141.643 269.369 141.375 268.2 140.78C267.311 140.321 266.478 139.772 265.715 139.143C264.333 137.997 263.11 136.689 262.076 135.25L264.624 133.147C265.84 134.045 267.125 134.856 268.468 135.573C269.051 135.887 269.669 136.14 270.31 136.328C270.855 136.497 271.338 136.472 271.338 136.387C271.338 136.302 271.248 136.387 271.204 136.387C271.159 136.387 271.204 136.387 271.204 136.243C271.204 136.099 271.311 135.946 271.374 135.725L271.579 134.784L272.616 130.154L274.717 120.893C275.397 117.806 276.13 114.71 276.836 111.657L283.398 112.887Z" fill="#FFC3BD"/>
<path d="M280.43 103.193C272.804 108.731 273.117 119.171 273.117 119.171L286.75 122.266C286.75 122.266 290.943 111.767 289.245 107.926C287.474 103.923 284.73 100.072 280.43 103.193Z" fill="#263238"/>
<path d="M265.303 133.274L260.288 128.517L257.606 135.963C257.606 135.963 261.844 138.125 265.893 136.082L265.303 133.274Z" fill="#FFC3BD"/>
<path d="M253.342 127.779L252.421 133.665L257.579 135.954L260.288 128.517L253.342 127.779Z" fill="#FFC3BD"/>
<path d="M324.629 300.099L316.959 300.803L308.975 283.485L316.646 282.773L324.629 300.099Z" fill="#FFC3BD"/>
<path d="M374.049 274.487L368.283 279.618L355.848 266.651L361.614 261.52L374.049 274.487Z" fill="#FFC3BD"/>
<path d="M365.646 277.158L369.973 269.763C370.045 269.634 370.165 269.534 370.31 269.482C370.455 269.43 370.615 269.431 370.759 269.483L377.42 271.892C377.584 271.957 377.732 272.055 377.854 272.179C377.976 272.302 378.069 272.449 378.128 272.609C378.186 272.769 378.208 272.939 378.192 273.108C378.177 273.276 378.123 273.44 378.037 273.588C376.481 276.132 375.596 277.302 373.692 280.559C372.521 282.561 370.241 287.149 368.623 289.888C367.005 292.627 364.037 291.287 364.448 289.998C366.298 284.214 365.95 281 365.431 278.456C365.343 278.013 365.418 277.554 365.646 277.158Z" fill="#263238"/>
<path d="M315.94 298.564H325.362C325.532 298.564 325.696 298.617 325.831 298.715C325.965 298.814 326.061 298.951 326.104 299.106L328.152 306.171C328.202 306.338 328.21 306.513 328.176 306.684C328.142 306.854 328.066 307.014 327.955 307.152C327.844 307.29 327.7 307.401 327.536 307.476C327.371 307.552 327.19 307.59 327.007 307.587C323.682 307.587 322.108 307.587 317.969 307.587H305.31C301.859 307.587 301.144 304.288 302.565 303.983C308.957 302.643 312.632 300.794 314.607 299.03C314.974 298.721 315.449 298.555 315.94 298.564Z" fill="#263238"/>
<path opacity="0.2" d="M308.984 283.493L313.097 292.415H321.098L316.655 282.781L308.984 283.493Z" fill="black"/>
<path opacity="0.2" d="M361.614 261.52L355.848 266.659L362.267 273.342L368.033 268.203L361.614 261.52Z" fill="black"/>
<path d="M282.736 102.125C282.736 102.125 279.285 103.558 290.854 146.979L322.984 144.342C321.321 131.985 320.606 124.336 324.531 98.3594C319.954 97.8458 315.343 97.6502 310.736 97.7742C305.849 97.8436 300.973 98.2432 296.146 98.97C291.623 99.8055 287.147 100.858 282.736 102.125Z" fill="#263238"/>
<path d="M310.736 97.5283C310.736 97.5283 312.524 97.5283 314.706 97.5283C316.002 99.4195 311.8 107.705 304.872 113.124C303.817 110.112 301.878 107.446 299.284 105.441L310.736 97.5283Z" fill="white"/>
<path d="M296.146 98.8597C296.146 98.8597 295.333 98.97 293.393 99.394C292.096 101.285 289.906 109.367 293.724 113.489C294.685 110.363 296.612 107.583 299.257 105.509L296.146 98.8597Z" fill="white"/>
<path d="M307.867 82.3054C307.357 86.8341 307.178 95.0264 310.736 97.7742C310.736 97.7742 306.937 101.455 299.257 105.509C293.67 101.845 296.146 98.97 296.146 98.97C301.269 97.3586 300.795 93.6865 299.57 90.2942L307.867 82.3054Z" fill="#FFC3BD"/>
<path d="M299.123 105.534C299.123 105.534 303.835 100.666 306.275 101.599C308.716 102.532 306.83 104.203 306.615 105.772C306.4 107.34 307.563 111.513 304.3 110.427C301.036 109.342 299.123 105.534 299.123 105.534Z" fill="#1E2440"/>
<path d="M298.936 105.432C298.936 105.432 296.71 101.701 294.305 102.201C291.9 102.701 293.33 104.008 293.545 105.415C293.822 107.213 291.819 110.673 294.716 109.656C297.612 108.638 298.936 105.432 298.936 105.432Z" fill="#1E2440"/>
<g opacity="0.2">
<path d="M297.702 104.627C297.669 105.379 297.822 106.128 298.149 106.815C298.445 106.376 298.705 105.917 298.927 105.441C298.596 104.909 298.216 104.407 297.791 103.94C297.717 104.162 297.687 104.394 297.702 104.627Z" fill="black"/>
<path d="M300.84 103.957C299.829 104.805 299.132 105.534 299.132 105.534C299.392 106.043 299.691 106.533 300.026 107.001C300.566 106.487 300.885 105.801 300.92 105.076C301.006 104.703 300.978 104.315 300.84 103.957Z" fill="black"/>
</g>
<path d="M299.07 107.061C298.399 107.061 297.988 106.374 297.943 104.737C297.899 103.1 299.222 104.008 299.222 104.008C299.222 104.008 301.01 103.159 300.688 105.118C300.455 106.67 299.758 107.061 299.07 107.061Z" fill="#1E2440"/>
<path opacity="0.2" d="M304.487 85.5704L299.579 90.2942C299.874 91.0807 300.098 91.8892 300.25 92.7112C302.226 92.2787 305.086 90.3281 305.113 88.3267C305.081 87.3797 304.869 86.446 304.487 85.5704Z" fill="black"/>
<path d="M300.277 66.9977C300.277 66.9977 294.913 74.0451 294.019 77.1745C290.371 79.1929 289.638 69.262 291.569 63.1389C297.595 66.7263 300.277 66.9977 300.277 66.9977Z" fill="#263238"/>
<path d="M312.068 75.2324C310.075 82.4665 309.386 85.5704 304.72 88.598C297.684 93.1607 288.753 89.2595 288.422 81.6015C288.127 74.7151 291.435 64.0379 299.597 62.5368C301.396 62.1904 303.258 62.2876 305.006 62.8191C306.754 63.3505 308.329 64.2985 309.58 65.5722C310.831 66.846 311.717 68.403 312.153 70.0944C312.588 71.7857 312.559 73.5548 312.068 75.2324Z" fill="#FFC3BD"/>
<path d="M316.217 72.3405C316.217 72.3405 312.381 78.2346 311.863 80.8212C309.082 82.6107 307.911 74.7575 309.082 69.7963C310.361 65.3779 316.217 72.3405 316.217 72.3405Z" fill="#263238"/>
<path d="M314.688 68.2443C313.579 69.0415 312.408 66.0987 313.508 63.8428C311.389 63.9701 308.841 62.7743 309.387 60.8322C305.212 62.1637 303.665 58.1353 304.148 55.3452C304.729 51.9529 307.84 51.232 309.673 52.1225C309.673 50.6044 313.713 47.4411 315.251 49.9175C318.103 48.9592 322.698 49.256 322.6 52.5804C324.486 52.6313 330.056 54.6582 327.964 59.365C330.422 59.5007 331.754 62.4605 330.387 64.6994C330.925 64.9701 331.388 65.3599 331.734 65.8358C332.081 66.3117 332.301 66.8597 332.378 67.4336C332.454 68.0075 332.384 68.5903 332.172 69.1329C331.961 69.6755 331.615 70.1619 331.164 70.5511C332.3 72.79 328.858 76.1229 327.025 75.7243C325.63 77.7512 323.494 79.2778 322.099 77.5477C319.417 79.4219 316.333 77.0388 317.021 75.207C313.982 74.766 310.879 69.9574 314.688 68.2443Z" fill="#263238"/>
<path d="M319.229 61.1205C321.232 64.2923 321.062 67.9051 318.863 69.1348C316.664 70.3645 313.24 68.838 311.237 65.6662C309.235 62.4944 309.396 58.8816 311.604 57.6519C313.812 56.4222 317.227 57.9572 319.229 61.1205Z" fill="#1E2440"/>
<path d="M300.634 66.1496C300.518 67.057 297.881 66.8196 297.121 65.2167C296.03 66.3022 293.464 66.862 292.588 65.6832C291.104 68.3291 288.118 67.6337 287.349 66.3701C286.58 65.1065 286.071 62.7573 287.618 62.2909C286.724 61.5615 286.992 58.1268 289.334 58.5594C290.317 56.7275 293.008 54.6497 294.975 56.2696C296.048 55.4215 300.339 53.6575 302.074 56.8887C302.454 56.6421 302.888 56.4805 303.344 56.416C303.8 56.3516 304.265 56.3859 304.704 56.5165C305.144 56.6471 305.547 56.8705 305.882 57.17C306.218 57.4695 306.478 57.8372 306.642 58.2456C309.422 57.5586 310.629 59.5601 310.62 60.6456C312.596 61.1545 312.73 64.3941 311.514 65.0895C311.988 66.7263 311.738 68.4818 309.923 68.3292C309.574 70.5341 306.463 70.8734 305.73 69.6776C303.71 70.9073 299.588 68.7701 300.634 66.1496Z" fill="#263238"/>
<path d="M295.914 59.8908C298.176 56.9226 306.427 55.6505 313.57 60.1368C320.007 64.1482 319.587 73.4685 314.464 72.9681C309.342 72.4677 304.282 66.7772 304.282 66.7772L295.914 59.8908Z" fill="#263238"/>
<path d="M312.694 81.7626C311.981 83.0379 310.767 83.9949 309.315 84.4256C307.375 84.9768 306.374 83.3485 306.874 81.593C307.33 80.0156 308.877 77.8276 310.835 78.0481C311.262 78.1019 311.668 78.2562 312.016 78.4969C312.364 78.7376 312.643 79.0571 312.828 79.4262C313.013 79.7954 313.097 80.2025 313.074 80.6105C313.051 81.0186 312.92 81.4146 312.694 81.7626Z" fill="#FFC3BD"/>
<path d="M290.854 146.979C290.854 146.979 279.983 192.606 287.278 224.773C292.141 246.314 309.628 289.829 309.628 289.829L323.342 289.498C323.342 289.498 310.066 243.829 307.321 225.892C302.628 195.175 314.384 145.08 314.384 145.08L290.854 146.979Z" fill="#1E2440"/>
<path opacity="0.2" d="M303.388 156.198L310.218 166.451C308.153 178.608 306.843 190.87 306.293 203.173C296.683 186.805 301.278 164.857 303.388 156.198Z" fill="black"/>
<path d="M307.697 290.507L324.629 290.091L323.655 285.156L306.374 285.936L307.697 290.507Z" fill="#263238"/>
<path d="M297.881 146.496C297.881 146.496 304.255 194.878 318.085 221.296C329.251 242.633 359.048 273.028 359.048 273.028L366.665 265.582C366.665 265.582 346.541 232.575 338.245 218.404C317.888 183.633 334.526 157.131 322.984 144.367L297.881 146.496Z" fill="#1E2440"/>
<path d="M358.279 273.995L368.113 264.904L364.85 260.697L354.417 270.569L358.279 273.995Z" fill="#263238"/>
<path d="M323.306 142.518L325.005 145.131C325.139 145.326 324.888 145.563 324.522 145.597L290.818 148.362C290.532 148.362 290.282 148.268 290.246 148.099L289.709 145.393C289.665 145.207 289.906 145.029 290.219 145.003L322.761 142.332C322.861 142.314 322.964 142.322 323.06 142.355C323.156 142.388 323.241 142.444 323.306 142.518Z" fill="#1E2440"/>
<path opacity="0.5" d="M323.306 142.518L325.005 145.131C325.139 145.326 324.888 145.563 324.522 145.597L290.818 148.362C290.532 148.362 290.282 148.268 290.246 148.099L289.709 145.393C289.665 145.207 289.906 145.029 290.219 145.003L322.761 142.332C322.861 142.314 322.964 142.322 323.06 142.355C323.156 142.388 323.241 142.444 323.306 142.518Z" fill="white"/>
<path d="M319.247 146.326L320.141 146.258C320.311 146.258 320.436 146.148 320.419 146.046L319.685 142.535C319.685 142.425 319.507 142.357 319.328 142.374L318.434 142.442C318.255 142.442 318.13 142.552 318.157 142.654L318.89 146.165C318.917 146.267 319.078 146.343 319.247 146.326Z" fill="#1E2440"/>
<path d="M293.294 148.455L294.188 148.387C294.358 148.387 294.484 148.277 294.466 148.175L293.733 144.664C293.7 144.603 293.648 144.554 293.583 144.525C293.518 144.496 293.445 144.488 293.375 144.503L292.481 144.571C292.302 144.571 292.177 144.681 292.204 144.783L292.937 148.294C292.964 148.413 293.125 148.472 293.294 148.455Z" fill="#1E2440"/>
<path d="M306.275 147.395L307.169 147.319C307.348 147.319 307.473 147.208 307.446 147.107L306.713 143.596C306.713 143.494 306.535 143.417 306.365 143.434L305.471 143.511C305.301 143.511 305.176 143.621 305.194 143.723L305.927 147.234C305.945 147.335 306.097 147.403 306.275 147.395Z" fill="#1E2440"/>
<path d="M299.159 74.9865C299.034 75.5802 298.605 76.0042 298.194 75.9279C297.782 75.8515 297.55 75.3003 297.666 74.7066C297.782 74.113 298.229 73.689 298.641 73.7653C299.052 73.8416 299.284 74.3844 299.159 74.9865Z" fill="#263238"/>
<path d="M292.042 73.6454C292.166 73.0479 291.932 72.5013 291.52 72.4245C291.109 72.3478 290.674 72.7698 290.551 73.3673C290.427 73.9648 290.66 74.5114 291.072 74.5881C291.484 74.6649 291.918 74.2428 292.042 73.6454Z" fill="#263238"/>
<path d="M291.712 72.5101L290.282 71.8147C290.282 71.8147 290.827 73.0783 291.712 72.5101Z" fill="#263238"/>
<path d="M294.492 75.1476C293.655 76.4053 292.638 77.5469 291.471 78.5399C291.742 78.8232 292.075 79.0461 292.448 79.1927C292.82 79.3393 293.222 79.406 293.625 79.388L294.492 75.1476Z" fill="#ED847E"/>
<path d="M296.531 82.1866C297.851 82.1999 299.129 81.7395 300.107 80.8976C300.126 80.8842 300.141 80.867 300.152 80.8472C300.164 80.8274 300.17 80.8056 300.171 80.7832C300.172 80.7608 300.169 80.7384 300.16 80.7176C300.151 80.6968 300.137 80.6782 300.12 80.6629C300.102 80.6477 300.082 80.6363 300.059 80.6296C300.037 80.6228 300.013 80.6209 299.989 80.6238C299.966 80.6268 299.943 80.6346 299.923 80.6467C299.904 80.6589 299.887 80.675 299.874 80.694C299.272 81.1973 298.554 81.5586 297.777 81.7487C297.001 81.9388 296.187 81.9523 295.404 81.788C295.384 81.7844 295.364 81.7846 295.344 81.7886C295.324 81.7926 295.305 81.8004 295.288 81.8115C295.272 81.8226 295.257 81.8367 295.247 81.8531C295.236 81.8694 295.229 81.8877 295.225 81.9068C295.22 81.9258 295.219 81.9457 295.223 81.9651C295.227 81.9845 295.235 82.0029 295.247 82.0191C295.258 82.0352 295.274 82.0487 295.292 82.0586C295.31 82.0685 295.33 82.0746 295.351 82.0764C295.739 82.1536 296.134 82.1905 296.531 82.1866Z" fill="#263238"/>
<path d="M303.423 72.6713C303.48 72.6704 303.535 72.6558 303.584 72.6289C303.655 72.5884 303.707 72.5227 303.727 72.4464C303.747 72.3701 303.734 72.2893 303.692 72.2218C303.396 71.7453 302.984 71.3427 302.491 71.0476C301.998 70.7526 301.438 70.5736 300.858 70.5256C300.817 70.5245 300.776 70.5311 300.737 70.545C300.699 70.5588 300.664 70.5798 300.634 70.6065C300.604 70.6333 300.58 70.6654 300.563 70.701C300.546 70.7366 300.537 70.775 300.536 70.814C300.535 70.853 300.541 70.8918 300.556 70.9282C300.571 70.9647 300.593 70.998 300.621 71.0264C300.649 71.0547 300.683 71.0775 300.721 71.0935C300.758 71.1094 300.799 71.1182 300.84 71.1193C301.319 71.1693 301.779 71.327 302.182 71.5791C302.585 71.8313 302.918 72.1708 303.155 72.5695C303.188 72.6057 303.229 72.6338 303.276 72.6515C303.323 72.6692 303.373 72.676 303.423 72.6713Z" fill="#263238"/>
<path d="M290.085 70.2797C290.135 70.2906 290.187 70.2906 290.237 70.2797C290.652 70.0466 291.12 69.9097 291.601 69.8802C292.083 69.8507 292.565 69.9295 293.008 70.1101C293.081 70.1388 293.162 70.1406 293.236 70.1151C293.31 70.0896 293.371 70.0386 293.407 69.9723C293.443 69.9061 293.452 69.8293 293.431 69.7574C293.41 69.6855 293.361 69.6237 293.295 69.5843C292.759 69.3542 292.173 69.2502 291.586 69.2812C291 69.3122 290.429 69.4773 289.924 69.7624C289.854 69.8014 289.803 69.8649 289.781 69.9393C289.759 70.0137 289.769 70.0932 289.808 70.161C289.838 70.2028 289.88 70.2359 289.929 70.2568C289.978 70.2777 290.032 70.2856 290.085 70.2797Z" fill="#263238"/>
<path d="M325.899 105.297C326.507 105.856 326.927 106.297 327.401 106.798C327.874 107.298 328.295 107.79 328.724 108.29C329.573 109.299 330.386 110.334 331.146 111.394C332.658 113.532 333.996 115.774 335.152 118.102C336.304 120.442 337.235 122.874 337.932 125.37C338.281 126.617 338.593 127.915 338.826 129.161C339.269 130.962 339.052 132.853 338.209 134.521C337.718 135.397 337.039 136.166 336.215 136.777C335.501 137.298 334.716 137.726 333.882 138.049C332.447 138.574 330.943 138.911 329.412 139.05C326.695 139.297 323.959 139.263 321.25 138.948C316.064 138.376 310.946 137.345 305.962 135.87L306.785 132.791C309.217 133.173 311.72 133.529 314.187 133.775C316.655 134.021 319.14 134.241 321.581 134.292C323.945 134.373 326.312 134.248 328.652 133.919C329.66 133.764 330.64 133.478 331.567 133.071C332.134 132.867 332.602 132.471 332.881 131.96C332.956 131.764 332.992 131.557 332.988 131.349C333 131.197 333 131.044 332.988 130.891C332.988 130.722 332.925 130.569 332.845 130.255C332.595 129.161 332.264 128.084 331.906 127.016C331.179 124.885 330.282 122.81 329.224 120.808C328.162 118.794 326.942 116.858 325.577 115.015C324.906 114.083 324.2 113.175 323.467 112.302C323.1 111.861 322.716 111.454 322.34 111.021C321.965 110.589 321.536 110.173 321.241 109.868L325.899 105.297Z" fill="#FFC3BD"/>
<path d="M308.832 133.258L302.574 130.111L302.288 137.973C302.288 137.973 306.758 138.244 309.315 136.277L308.832 133.258Z" fill="#FFC3BD"/>
<path d="M297.854 175.551L303.021 122.283L291.98 114.261L258.277 111.318L252.421 171.582L297.854 175.551Z" fill="#1E2440"/>
<path opacity="0.8" d="M297.854 175.551L303.021 122.283L291.98 114.261L258.277 111.318L252.421 171.582L297.854 175.551Z" fill="white"/>
<path d="M303.021 122.283L291.98 114.261L294.877 123.861L303.021 122.283Z" fill="#1E2440"/>
<path d="M256.372 180.894C263.976 180.894 270.14 175.046 270.14 167.833C270.14 160.62 263.976 154.773 256.372 154.773C248.769 154.773 242.605 160.62 242.605 167.833C242.605 175.046 248.769 180.894 256.372 180.894Z" fill="#1E2440"/>
<path d="M263.174 175.996C267.932 172.431 268.742 165.881 264.983 161.368C261.224 156.855 254.321 156.087 249.563 159.653C244.806 163.218 243.996 169.767 247.754 174.28C251.513 178.793 258.417 179.562 263.174 175.996Z" fill="white"/>
<path d="M263.158 166.917L258.312 166.375L258.875 161.787L255.407 161.397L254.843 165.993L249.998 165.45L249.587 168.749L254.432 169.284L253.86 173.88L257.338 174.27L257.901 169.674L262.746 170.208L263.158 166.917Z" fill="#1E2440"/>
<path opacity="0.4" d="M294.779 133.325C294.734 133.792 294.592 134.245 294.363 134.659C294.133 135.073 293.819 135.441 293.44 135.74C293.061 136.039 292.623 136.265 292.151 136.403C291.68 136.542 291.184 136.591 290.693 136.548L266.108 134.402C265.116 134.314 264.202 133.857 263.565 133.13C262.929 132.404 262.621 131.468 262.711 130.527C262.756 130.061 262.897 129.607 263.127 129.193C263.356 128.779 263.67 128.411 264.049 128.112C264.429 127.813 264.867 127.587 265.338 127.449C265.809 127.31 266.305 127.261 266.796 127.304L291.381 129.45C291.873 129.492 292.351 129.626 292.787 129.844C293.224 130.062 293.611 130.36 293.927 130.719C294.242 131.079 294.48 131.495 294.626 131.942C294.772 132.389 294.824 132.859 294.779 133.325Z" fill="#1E2440"/>
<path opacity="0.4" d="M286.402 142.951C286.357 143.417 286.215 143.87 285.986 144.285C285.756 144.699 285.443 145.066 285.063 145.366C284.684 145.665 284.246 145.89 283.774 146.029C283.303 146.168 282.808 146.217 282.316 146.174L265.133 144.673C264.642 144.63 264.164 144.496 263.727 144.278C263.291 144.06 262.903 143.763 262.588 143.403C262.272 143.043 262.035 142.627 261.889 142.18C261.743 141.733 261.691 141.263 261.736 140.797C261.781 140.331 261.922 139.877 262.152 139.463C262.382 139.049 262.695 138.681 263.075 138.382C263.454 138.083 263.892 137.857 264.364 137.719C264.835 137.58 265.33 137.531 265.822 137.574L283.004 139.084C283.994 139.172 284.907 139.628 285.544 140.353C286.18 141.077 286.489 142.011 286.402 142.951Z" fill="#1E2440"/>
<path d="M298.748 130.578L299.686 136.455L302.279 137.973L302.565 130.111L298.748 130.578Z" fill="#FFC3BD"/>
<path d="M324.522 98.3763C328.464 99.0378 333.989 109.757 333.989 109.757L324.057 118.238C324.057 118.238 316.154 110.063 316.574 105.195C316.941 101.082 319.516 97.5283 324.522 98.3763Z" fill="#263238"/>
<path d="M364.108 281.136C364.211 281.134 364.313 281.12 364.412 281.093C365.36 280.788 365.977 279.134 366.263 278.176C366.269 278.148 366.267 278.12 366.257 278.093C366.248 278.066 366.231 278.042 366.209 278.023C366.185 278.005 366.155 277.995 366.124 277.995C366.093 277.995 366.063 278.005 366.039 278.023C365.753 278.159 363.232 279.44 363.152 280.381C363.14 280.484 363.159 280.587 363.206 280.68C363.254 280.773 363.328 280.852 363.42 280.907C363.615 281.056 363.858 281.137 364.108 281.136ZM365.896 278.439C365.458 279.762 364.895 280.635 364.358 280.805C364.237 280.841 364.108 280.845 363.984 280.818C363.86 280.792 363.745 280.734 363.652 280.652C363.604 280.626 363.565 280.588 363.54 280.541C363.514 280.494 363.504 280.442 363.509 280.389C363.509 279.813 364.984 278.905 365.851 278.439H365.896Z" fill="#1E2440"/>
<path d="M363.715 278.812C364.574 278.808 365.42 278.62 366.191 278.261C366.213 278.247 366.231 278.228 366.244 278.206C366.256 278.184 366.263 278.159 366.263 278.134C366.264 278.107 366.257 278.081 366.242 278.059C366.228 278.036 366.207 278.018 366.182 278.006C366.102 277.964 364.108 276.921 363.035 277.286C362.9 277.323 362.776 277.39 362.674 277.481C362.571 277.573 362.493 277.686 362.445 277.811C362.378 277.93 362.356 278.067 362.382 278.2C362.408 278.332 362.481 278.453 362.588 278.541C362.921 278.748 363.318 278.843 363.715 278.812ZM365.762 278.134C364.913 278.481 363.259 278.693 362.794 278.32C362.713 278.252 362.633 278.151 362.74 277.922C362.772 277.837 362.824 277.761 362.893 277.699C362.961 277.638 363.043 277.592 363.134 277.565C363.858 277.319 365.199 277.871 365.762 278.168V278.134Z" fill="#1E2440"/>
<path d="M311.764 300.005C312.629 299.986 313.489 299.881 314.33 299.692C314.36 299.682 314.385 299.663 314.403 299.639C314.421 299.615 314.431 299.586 314.431 299.556C314.431 299.526 314.421 299.497 314.403 299.473C314.385 299.449 314.36 299.43 314.33 299.42C313.946 299.242 310.522 297.724 309.664 298.301C309.585 298.349 309.522 298.418 309.482 298.499C309.443 298.58 309.428 298.67 309.44 298.759C309.442 298.925 309.485 299.088 309.566 299.235C309.647 299.383 309.763 299.51 309.905 299.607C310.464 299.924 311.116 300.064 311.764 300.005ZM313.794 299.497C312.784 299.675 310.906 299.912 310.128 299.361C310.029 299.286 309.947 299.193 309.888 299.086C309.83 298.979 309.796 298.862 309.789 298.742C309.781 298.704 309.785 298.666 309.801 298.631C309.817 298.596 309.844 298.567 309.878 298.547C310.352 298.233 312.372 298.903 313.794 299.497Z" fill="#1E2440"/>
<path d="M314.294 299.7C314.329 299.71 314.367 299.71 314.402 299.7C314.424 299.682 314.44 299.657 314.448 299.63C314.456 299.603 314.456 299.574 314.446 299.547C314.446 299.412 313.642 296.214 311.764 296.418C311.3 296.477 311.165 296.689 311.148 296.867C311.031 297.716 313.186 299.318 314.214 299.726L314.294 299.7ZM311.952 296.672C313.141 296.672 313.83 298.538 314.062 299.284C312.945 298.725 311.38 297.393 311.478 296.876C311.478 296.834 311.478 296.715 311.827 296.681L311.952 296.672Z" fill="#1E2440"/>
<path d="M298.81 73.8331L297.389 73.1377C297.389 73.1377 297.934 74.4013 298.81 73.8331Z" fill="#263238"/>
</svg>
