<svg width="389" height="336" viewBox="0 0 389 336" fill="none" xmlns="http://www.w3.org/2000/svg">
<path d="M380.592 309.741H349.989V309.967H380.592V309.741Z" fill="#EBEBEB"/>
<path d="M270.931 312.194H262.902V312.419H270.931V312.194Z" fill="#EBEBEB"/>
<path d="M349.065 301.373H331.333V301.598H349.065V301.373Z" fill="#EBEBEB"/>
<path d="M53.2646 302.888H13.3571V303.113H53.2646V302.888Z" fill="#EBEBEB"/>
<path d="M67.3464 302.888H61.4974V303.113H67.3464V302.888Z" fill="#EBEBEB"/>
<path d="M172.923 306.693H86.3623V306.919H172.923V306.693Z" fill="#EBEBEB"/>
<path d="M183.872 255.014H5.45686C4.05917 255.012 2.71956 254.468 1.73211 253.503C0.744661 252.537 0.190061 251.229 0.190063 249.865V5.10389C0.202231 3.74768 0.762198 2.45093 1.74834 1.49529C2.73448 0.539658 4.06714 0.00232325 5.45686 0H183.872C185.271 0 186.613 0.54248 187.603 1.5081C188.592 2.47372 189.148 3.78338 189.148 5.14898V249.865C189.148 251.231 188.592 252.54 187.603 253.506C186.613 254.472 185.271 255.014 183.872 255.014ZM5.45686 0.18035C4.12044 0.182739 2.83959 0.70252 1.89545 1.6256C0.951323 2.54869 0.421061 3.79965 0.421063 5.10389V249.865C0.421061 251.169 0.951323 252.42 1.89545 253.343C2.83959 254.266 4.12044 254.786 5.45686 254.789H183.872C185.209 254.786 186.491 254.267 187.437 253.344C188.382 252.421 188.915 251.17 188.917 249.865V5.10389C188.915 3.79882 188.382 2.54788 187.437 1.62505C186.491 0.702227 185.209 0.182734 183.872 0.18035H5.45686Z" fill="#EBEBEB"/>
<path d="M383.742 255.014H205.318C203.919 255.012 202.579 254.468 201.59 253.503C200.601 252.538 200.044 251.23 200.042 249.865V5.10389C200.057 3.74686 200.619 2.45012 201.606 1.49473C202.594 0.539343 203.927 0.00229791 205.318 0H383.742C385.131 0.00469314 386.461 0.543076 387.445 1.49846C388.429 2.45384 388.988 3.74924 389 5.10389V249.865C389 251.228 388.447 252.535 387.461 253.5C386.476 254.465 385.139 255.009 383.742 255.014ZM205.318 0.18035C203.981 0.182734 202.699 0.702227 201.753 1.62505C200.808 2.54788 200.275 3.79882 200.273 5.10389V249.865C200.275 251.17 200.808 252.421 201.753 253.344C202.699 254.267 203.981 254.786 205.318 254.789H383.742C385.08 254.786 386.362 254.267 387.307 253.344C388.253 252.421 388.785 251.17 388.787 249.865V5.10389C388.785 3.79882 388.253 2.54788 387.307 1.62505C386.362 0.702227 385.08 0.182734 383.742 0.18035H205.318Z" fill="#EBEBEB"/>
<path d="M378.134 75.3951H257.607V81.4368H378.134V75.3951Z" fill="#E0E0E0"/>
<path d="M268.464 53.1219H263.151V75.3951H268.464V53.1219Z" fill="#EBEBEB"/>
<path d="M294.142 53.1219H288.829V75.3951H294.142V53.1219Z" fill="#EBEBEB"/>
<path d="M323.293 52.5506L318.057 53.4314L321.934 75.3809L327.17 74.5001L323.293 52.5506Z" fill="#EBEBEB"/>
<path d="M275.043 56.0526H269.73V75.3951H275.043V56.0526Z" fill="#EBEBEB"/>
<path d="M287.249 56.0526H281.936V75.3951H287.249V56.0526Z" fill="#EBEBEB"/>
<path d="M318.055 56.0526H312.742V75.3951H318.055V56.0526Z" fill="#EBEBEB"/>
<path d="M301.115 55.3703L295.928 56.4952L300.228 75.377L305.415 74.2521L301.115 55.3703Z" fill="#EBEBEB"/>
<path d="M279.635 52.0128H276.984V75.3951H279.635V52.0128Z" fill="#EBEBEB"/>
<path d="M311.218 52.0128H308.566V75.3951H311.218V52.0128Z" fill="#EBEBEB"/>
<path d="M366.565 57.7659H340.693V75.1967H366.565V57.7659Z" fill="#EBEBEB"/>
<path d="M257.607 126.551L378.134 126.551V120.509L257.607 120.509V126.551Z" fill="#E0E0E0"/>
<path d="M367.268 120.518H372.581V98.2453H367.268V120.518Z" fill="#EBEBEB"/>
<path d="M341.599 120.518H346.912V98.2453H341.599V120.518Z" fill="#EBEBEB"/>
<path d="M308.579 119.624L313.815 120.505L317.692 98.5554L312.456 97.6747L308.579 119.624Z" fill="#EBEBEB"/>
<path d="M360.689 120.51H366.002V101.167H360.689V120.51Z" fill="#EBEBEB"/>
<path d="M348.492 120.51H353.805V101.167H348.492V120.51Z" fill="#EBEBEB"/>
<path d="M317.686 120.51H322.999V101.167H317.686V120.51Z" fill="#EBEBEB"/>
<path d="M330.339 119.366L335.526 120.491L339.826 101.609L334.639 100.484L330.339 119.366Z" fill="#EBEBEB"/>
<path d="M356.106 120.51H358.758V97.1272H356.106V120.51Z" fill="#EBEBEB"/>
<path d="M324.523 120.51H327.175V97.1272H324.523V120.51Z" fill="#EBEBEB"/>
<path d="M269.166 120.311H295.038V102.88H269.166V120.311Z" fill="#EBEBEB"/>
<path d="M13.8561 190.269V295.773H19.4001V201.09H117.344V295.773H123.812V190.269H13.8561Z" fill="#E0E0E0"/>
<path d="M74.84 190.269V295.773H80.384V201.09H178.328V295.773H184.796V190.269H74.84Z" fill="#F5F5F5"/>
<path d="M109.841 150.952C108.603 148.969 106.57 150.7 106.57 150.7C106.857 146.886 103.272 144.289 103.272 144.289C103.272 144.289 107.439 144.289 108.021 140.402C108.603 136.516 106.57 138.328 104.658 138.301C102.745 138.274 100.749 143.711 103.272 146.777C105.794 149.843 105.12 155.073 99.2984 160.096C97.9053 161.366 96.8602 162.957 96.2584 164.722C96.7019 160.105 96.9514 153.595 95.5561 149.257C93.1907 141.872 97.6998 139.888 99.0027 136.2C100.306 132.512 95.5561 129.383 95.5561 129.383C95.5561 129.383 100.028 127.399 97.8384 125.126C95.6486 122.854 91.1579 123.161 91.1579 126.136C91.1579 129.112 94.2071 130.239 94.2071 130.239C94.2071 130.239 97.6998 133.783 97.6998 135.65C97.6998 137.516 94.2071 141.466 94.2071 141.466C94.2071 141.466 95.8056 138.067 92.6086 137.922C89.4115 137.778 88.3859 141.89 89.698 143.739C91.0101 145.587 93.1907 144.018 93.1907 144.018C93.3243 146.171 93.6583 148.308 94.1886 150.402C94.512 151.466 94.3642 155.633 94.087 159.961C93.4789 158.398 92.508 156.993 91.2503 155.858C85.4383 150.835 84.7823 145.605 87.2771 142.539C89.7719 139.473 87.8038 134.036 85.8911 134.063C83.9784 134.09 81.9456 132.259 82.5277 136.164C83.1099 140.068 87.2771 140.05 87.2771 140.05C87.2771 140.05 83.692 142.647 83.9877 146.462C83.9877 146.462 81.9456 144.73 80.7075 146.714C78.5083 150.267 83.6181 152.467 84.4774 150.718C84.4774 150.718 95.3251 158.212 92.7102 168.996L93.3201 169.898C93.2369 170.8 93.1907 171.296 93.1907 171.296L94.0408 170.944L94.9648 172.333C94.9319 173.9 95.0152 175.467 95.2143 177.022L97.8015 173.28C95.1866 162.459 106.034 155.001 106.034 155.001C106.931 156.706 112.05 154.505 109.841 150.952Z" fill="#E0E0E0"/>
<path d="M103.271 190.269L99.7695 170.71L100.758 165.02H89.7349L90.7236 170.71L87.2308 190.269H103.271Z" fill="#EBEBEB"/>
<path d="M195.884 335.955C294.828 335.955 375.038 331.385 375.038 325.747C375.038 320.109 294.828 315.539 195.884 315.539C96.9399 315.539 16.7297 320.109 16.7297 325.747C16.7297 331.385 96.9399 335.955 195.884 335.955Z" fill="#F5F5F5"/>
<path d="M242.763 47.1434L214.299 32.1424L194.226 68.4187L222.69 83.4197L242.763 47.1434Z" fill="#1E2440"/>
<path opacity="0.6" d="M242.763 47.1434L214.299 32.1424L194.226 68.4187L222.69 83.4197L242.763 47.1434Z" fill="white"/>
<path d="M235.676 50.0553L215.708 39.5319L214.623 41.4917L234.591 52.0151L235.676 50.0553Z" fill="#1E2440"/>
<path d="M233.778 53.4895L213.81 42.9661L212.725 44.9259L232.693 55.4493L233.778 53.4895Z" fill="#1E2440"/>
<path d="M231.876 56.9114L211.908 46.388L210.824 48.3478L230.792 58.8712L231.876 56.9114Z" fill="#1E2440"/>
<path d="M229.97 60.3503L210.002 49.8269L208.917 51.7867L228.885 62.3101L229.97 60.3503Z" fill="#1E2440"/>
<path d="M228.076 63.7765L208.108 53.2531L207.024 55.2129L226.992 65.7363L228.076 63.7765Z" fill="#1E2440"/>
<path d="M226.179 67.2064L206.211 56.683L205.127 58.6428L225.095 69.1662L226.179 67.2064Z" fill="#1E2440"/>
<path d="M224.286 70.6416L204.318 60.1182L203.233 62.078L223.201 72.6014L224.286 70.6416Z" fill="#1E2440"/>
<path d="M215.335 70.3559L202.408 63.5431L201.324 65.5029L214.251 72.3157L215.335 70.3559Z" fill="#1E2440"/>
<path d="M167.138 47.4228C163.112 47.0207 159.297 45.4622 156.178 42.9444C153.059 40.4267 150.775 37.0628 149.614 33.2781C148.454 29.4935 148.47 25.458 149.66 21.6821C150.849 17.9062 153.16 14.5594 156.299 12.0649C159.437 9.57045 163.264 8.04035 167.294 7.66811C171.323 7.29587 175.376 8.0982 178.939 9.97366C182.501 11.8491 185.414 14.7135 187.309 18.2045C189.203 21.6955 189.994 25.6564 189.582 29.5863C189.023 34.8532 186.346 39.6887 182.138 43.0323C177.931 46.3759 172.537 47.9548 167.138 47.4228Z" fill="#1E2440"/>
<path opacity="0.3" d="M170.661 45.7022C180.944 44.93 188.638 36.1688 187.847 26.1335C187.056 16.0981 178.078 8.58883 167.795 9.361C157.512 10.1332 149.818 18.8944 150.609 28.9298C151.4 38.9651 160.378 46.4744 170.661 45.7022Z" fill="white"/>
<path d="M175.556 21.6419C173.403 20.154 170.4 15.0682 170.4 15.0411L168.46 33.4729C168.506 33.058 166.824 32.6342 165.688 32.5711C162.98 32.2916 160.698 33.536 160.513 35.2763C160.329 37.0167 162.361 38.7481 165.133 39.0186C167.905 39.2891 170.095 38.0447 170.289 36.2592C170.289 35.9887 170.095 35.7002 170.123 35.4567L171.611 21.2542C172.723 22.5032 174.088 23.5134 175.621 24.2209C177.663 25.1227 178.393 27.891 178.393 27.891C178.493 26.701 178.286 25.5055 177.79 24.4138C177.295 23.3221 176.527 22.3691 175.556 21.6419Z" fill="white"/>
<path opacity="0.5" d="M172.69 33.9327C179.911 30.2782 183.249 22.5811 180.146 16.7408C177.043 10.9006 168.673 9.12863 161.452 12.7831C154.231 16.4376 150.892 24.1347 153.996 29.975C157.099 35.8153 165.469 37.5872 172.69 33.9327Z" fill="white"/>
<path d="M129.16 1.6235L85.1841 5.1142L87.862 37.2456L131.838 33.7549L129.16 1.6235Z" fill="#1E2440"/>
<path d="M127.206 3.86924L87.6044 7.0127L89.9265 34.8748L129.528 31.7314L127.206 3.86924Z" fill="#1E2440"/>
<path opacity="0.5" d="M127.206 3.86924L87.6044 7.0127L89.9265 34.8748L129.528 31.7314L127.206 3.86924Z" fill="white"/>
<path d="M129.208 27.9541L129.522 31.7415L89.9198 34.8796L88.7925 21.3353L96.3785 13.7065L109.472 24.2931L115.515 19.2162L129.208 27.9541Z" fill="#1E2440"/>
<path opacity="0.3" d="M129.208 27.9541L129.522 31.7415L89.9198 34.8796L88.7925 21.3353L96.3785 13.7065L109.472 24.2931L115.515 19.2162L129.208 27.9541Z" fill="white"/>
<path d="M121.216 11.7227C121.267 12.3377 121.129 12.9536 120.822 13.4925C120.514 14.0315 120.049 14.4693 119.487 14.7507C118.924 15.032 118.289 15.1442 117.661 15.0731C117.033 15.0021 116.44 14.7509 115.959 14.3513C115.477 13.9518 115.127 13.4218 114.954 12.8284C114.781 12.235 114.792 11.6048 114.986 11.0175C115.18 10.4303 115.547 9.91222 116.043 9.52893C116.538 9.14564 117.139 8.91429 117.769 8.86414C118.188 8.83082 118.609 8.87835 119.009 9.004C119.409 9.12964 119.779 9.33095 120.099 9.59642C120.419 9.86189 120.683 10.1863 120.874 10.5512C121.066 10.916 121.182 11.3141 121.216 11.7227Z" fill="#1E2440"/>
<path opacity="0.3" d="M121.216 11.7227C121.267 12.3377 121.129 12.9536 120.822 13.4925C120.514 14.0315 120.049 14.4693 119.487 14.7507C118.924 15.032 118.289 15.1442 117.661 15.0731C117.033 15.0021 116.44 14.7509 115.959 14.3513C115.477 13.9518 115.127 13.4218 114.954 12.8284C114.781 12.235 114.792 11.6048 114.986 11.0175C115.18 10.4303 115.547 9.91222 116.043 9.52893C116.538 9.14564 117.139 8.91429 117.769 8.86414C118.188 8.83082 118.609 8.87835 119.009 9.004C119.409 9.12964 119.779 9.33095 120.099 9.59642C120.419 9.86189 120.683 10.1863 120.874 10.5512C121.066 10.916 121.182 11.3141 121.216 11.7227Z" fill="white"/>
<path d="M44.7084 39.5597L43.0083 38.5407C42.7068 38.3588 42.3658 38.2486 42.0128 38.2188C41.6597 38.1891 41.3044 38.2406 40.9755 38.3694L33.4264 41.4804C33.1091 41.6062 32.8307 41.8103 32.6185 42.0727C32.4063 42.3351 32.2676 42.6468 32.2159 42.9773L31.9387 44.7808C31.8918 45.1105 31.7558 45.4221 31.5447 45.6836C31.3336 45.945 31.055 46.147 30.7375 46.2687L26.2284 48.0721C25.9709 48.1742 25.7381 48.3279 25.5453 48.5233C25.3524 48.7187 25.2037 48.9514 25.1088 49.2063C25.0139 49.4613 24.9748 49.7329 24.9942 50.0035C25.0136 50.2741 25.0909 50.5378 25.2213 50.7774L37.2333 74.7999C37.4872 75.2978 37.9235 75.6844 38.4558 75.8831C38.988 76.0818 39.5773 76.0782 40.1069 75.873L75.8287 61.3188C76.088 61.2188 76.3227 61.0664 76.5174 60.8716C76.7121 60.6768 76.8623 60.444 76.9583 60.1885C77.0543 59.9331 77.0938 59.6607 77.0743 59.3892C77.0548 59.1178 76.9767 58.8535 76.8451 58.6136L64.8331 34.6001C64.5808 34.1006 64.1451 33.712 63.6128 33.5116C63.0804 33.3111 62.4902 33.3134 61.9595 33.518L46.7412 39.731C46.4123 39.8597 46.057 39.9113 45.7039 39.8815C45.3509 39.8517 45.0099 39.7415 44.7084 39.5597Z" fill="#1E2440"/>
<path d="M66.5241 34.4106L33.8053 47.7926C33.138 48.0742 32.5999 48.5852 32.2933 49.2286C31.9867 49.8719 31.9328 50.6028 32.1421 51.2823L39.3031 73.4022C39.4039 73.7192 39.5726 74.0117 39.798 74.2603C40.0233 74.5089 40.3002 74.708 40.6103 74.8444C40.9204 74.9808 41.2566 75.0514 41.5967 75.0515C41.9368 75.0516 42.2731 74.9812 42.5833 74.845L75.3113 61.4811C75.976 61.1963 76.5116 60.6848 76.8177 60.0425C77.1239 59.4001 77.1796 58.6709 76.9745 57.9913L69.8043 35.8715C69.7068 35.552 69.5403 35.2566 69.3161 35.0052C69.0918 34.7537 68.8151 34.552 68.5043 34.4137C68.1936 34.2753 67.8561 34.2034 67.5146 34.2029C67.173 34.2024 66.8353 34.2732 66.5241 34.4106Z" fill="#1E2440"/>
<path opacity="0.5" d="M66.5241 34.4106L33.8053 47.7926C33.138 48.0742 32.5999 48.5852 32.2933 49.2286C31.9867 49.8719 31.9328 50.6028 32.1421 51.2823L39.3031 73.4022C39.4039 73.7192 39.5726 74.0117 39.798 74.2603C40.0233 74.5089 40.3002 74.708 40.6103 74.8444C40.9204 74.9808 41.2566 75.0514 41.5967 75.0515C41.9368 75.0516 42.2731 74.9812 42.5833 74.845L75.3113 61.4811C75.976 61.1963 76.5116 60.6848 76.8177 60.0425C77.1239 59.4001 77.1796 58.6709 76.9745 57.9913L69.8043 35.8715C69.7068 35.552 69.5403 35.2566 69.3161 35.0052C69.0918 34.7537 68.8151 34.552 68.5043 34.4137C68.1936 34.2753 67.8561 34.2034 67.5146 34.2029C67.173 34.2024 66.8353 34.2732 66.5241 34.4106Z" fill="white"/>
<path d="M185.24 87.4695C185.645 85.6079 185.85 83.7098 185.849 81.8065C185.849 78.2752 185.137 74.7786 183.752 71.5161C182.367 68.2536 180.338 65.2893 177.779 62.7923C175.221 60.2954 172.183 58.3146 168.84 56.9633C165.497 55.6119 161.914 54.9164 158.296 54.9164C156.588 54.9181 154.884 55.0721 153.204 55.3763C152.502 55.25 151.791 55.3763 151.061 55.2951C148.464 49.7883 144.293 45.13 139.05 41.8796C133.807 38.6293 127.714 36.9251 121.502 36.9716H111.338C107.084 36.9515 102.868 37.7505 98.9309 39.3231C94.9939 40.8956 91.4135 43.2108 88.3947 46.1358C85.376 49.0609 82.9783 52.5385 81.3389 56.3694C79.6995 60.2002 78.8506 64.3091 78.8409 68.4606C78.8409 68.6951 78.8409 68.8123 78.8409 69.0468C72.1192 70.2053 66.0893 73.7877 61.9481 79.083C57.8068 84.3783 55.8567 90.9995 56.4849 97.6327C57.113 104.266 60.2735 110.426 65.339 114.891C70.4046 119.356 77.005 121.799 83.8305 121.736H183.623C188.279 121.943 192.828 120.336 196.271 117.269C199.713 114.202 201.766 109.927 201.978 105.383C202.19 100.839 200.543 96.3986 197.401 93.0392C194.258 89.6798 189.877 87.6763 185.221 87.4695H185.24Z" fill="#1E2440"/>
<path opacity="0.5" d="M185.24 87.4695C185.645 85.6079 185.85 83.7098 185.849 81.8065C185.849 78.2752 185.137 74.7786 183.752 71.5161C182.367 68.2536 180.338 65.2893 177.779 62.7923C175.221 60.2954 172.183 58.3146 168.84 56.9633C165.497 55.6119 161.914 54.9164 158.296 54.9164C156.588 54.9181 154.884 55.0721 153.204 55.3763C152.502 55.25 151.791 55.3763 151.061 55.2951C148.464 49.7883 144.293 45.13 139.05 41.8796C133.807 38.6293 127.714 36.9251 121.502 36.9716H111.338C107.084 36.9515 102.868 37.7505 98.9309 39.3231C94.9939 40.8956 91.4135 43.2108 88.3947 46.1358C85.376 49.0609 82.9783 52.5385 81.3389 56.3694C79.6995 60.2002 78.8506 64.3091 78.8409 68.4606C78.8409 68.6951 78.8409 68.8123 78.8409 69.0468C72.1192 70.2053 66.0893 73.7877 61.9481 79.083C57.8068 84.3783 55.8567 90.9995 56.4849 97.6327C57.113 104.266 60.2735 110.426 65.339 114.891C70.4046 119.356 77.005 121.799 83.8305 121.736H183.623C188.279 121.943 192.828 120.336 196.271 117.269C199.713 114.202 201.766 109.927 201.978 105.383C202.19 100.839 200.543 96.3986 197.401 93.0392C194.258 89.6798 189.877 87.6763 185.221 87.4695H185.24Z" fill="white"/>
<path opacity="0.4" d="M185.24 87.4695C185.646 85.6079 185.85 83.7098 185.849 81.8065C185.849 78.2752 185.137 74.7786 183.752 71.5161C182.367 68.2536 180.338 65.2893 177.779 62.7923C175.221 60.2954 172.183 58.3146 168.84 56.9633C165.497 55.6119 161.914 54.9164 158.296 54.9164C156.588 54.9181 154.884 55.0721 153.205 55.3763C152.502 55.25 151.791 55.3763 151.061 55.2951C148.464 49.7883 144.293 45.13 139.05 41.8796C133.807 38.6293 127.714 36.9251 121.502 36.9716C117.248 36.9515 113.032 37.7505 109.095 39.3231C105.158 40.8956 101.578 43.2108 98.5588 46.1358C95.5401 49.0609 93.1423 52.5385 91.5029 56.3694C89.8635 60.2002 89.0147 64.3091 89.005 68.4606C89.005 68.6951 89.005 68.8123 89.005 69.0468C82.2832 70.2053 76.2534 73.7877 72.1121 79.083C67.9708 84.3783 66.0208 90.9995 66.6489 97.6327C67.2771 104.266 70.4375 110.426 75.5031 114.891C80.5687 119.356 87.1691 121.799 93.9946 121.736H183.623C188.279 121.943 192.828 120.336 196.271 117.269C199.713 114.202 201.766 109.927 201.978 105.383C202.19 100.839 200.543 96.3986 197.401 93.0392C194.258 89.6798 189.877 87.6763 185.221 87.4695H185.24Z" fill="white"/>
<path d="M212.211 165.921H181.1C168.852 165.907 157.109 161.152 148.448 152.7C139.787 144.247 134.915 132.788 134.9 120.834V111.817H125.66V120.834C125.677 135.178 131.524 148.931 141.917 159.074C152.31 169.217 166.402 174.922 181.1 174.939H212.211V165.921Z" fill="#1E2440"/>
<path d="M130.169 105.811L122.158 113.62H138.171L130.169 105.811Z" fill="#1E2440"/>
<path d="M61.2388 281.643L55.6948 265.114C58.429 262.836 61.6492 261.182 65.1211 260.273C68.5929 259.364 72.2288 259.221 75.7641 259.856L80.3841 275.33L61.2388 281.643Z" fill="#1E2440"/>
<path opacity="0.7" d="M61.2388 281.643L55.6948 265.114C58.429 262.836 61.6492 261.182 65.1211 260.273C68.5929 259.364 72.2288 259.221 75.7641 259.856L80.3841 275.33L61.2388 281.643Z" fill="white"/>
<g opacity="0.2">
<path d="M58.3374 269.018C58.9992 268.297 59.7327 267.641 60.5273 267.061C61.3384 266.45 62.1972 265.901 63.096 265.42C63.5857 265.168 64.1032 264.897 64.6483 264.663C65.1935 264.428 65.7386 264.203 66.3208 264.032C66.8876 263.845 67.4644 263.688 68.0486 263.563L68.908 263.373L69.7673 263.274C70.0445 263.274 70.3217 263.193 70.5896 263.175H71.3843C71.8713 263.148 72.3599 263.163 72.8442 263.22C73.2877 263.265 73.6943 263.301 74.0546 263.364L74.9786 263.572L75.764 263.77C75.764 263.77 75.4591 263.77 74.9509 263.77L74.0269 263.725H72.8257C72.359 263.736 71.8932 263.772 71.4305 263.833C70.9121 263.879 70.3969 263.955 69.8874 264.059L69.0743 264.203L68.2612 264.41C67.7041 264.539 67.155 264.699 66.6164 264.888C66.0528 265.033 65.5261 265.276 64.9902 265.465C64.4543 265.655 63.9553 265.898 63.4656 266.124C62.9759 266.349 62.5416 266.575 62.0611 266.818C61.5806 267.061 61.2018 267.269 60.823 267.485C60.0653 267.918 59.437 268.288 58.975 268.576L58.3374 269.018Z" fill="black"/>
<path d="M58.8271 270.524C58.8271 270.524 59.0397 270.344 59.4462 270.064C59.8528 269.785 60.4257 269.379 61.1556 268.964C61.9844 268.476 62.8387 268.031 63.7151 267.63C64.6391 267.179 65.7387 266.782 66.8013 266.403C67.3464 266.25 67.8916 266.069 68.4275 265.925C68.9634 265.781 69.5086 265.655 70.0353 265.574C70.562 265.492 71.0701 265.375 71.5599 265.339C72.0496 265.303 72.4839 265.24 72.9366 265.231C73.6213 265.212 74.3065 265.236 74.9879 265.303L75.7641 265.393C75.7641 265.393 75.4776 265.438 74.9879 265.483C74.7477 265.483 74.452 265.483 74.1193 265.574L72.9921 265.745C72.5763 265.808 72.142 265.925 71.6707 266.006C71.1995 266.088 70.7467 266.241 70.2201 266.349C69.6934 266.457 69.2037 266.638 68.677 266.764C68.1503 266.89 67.6329 267.097 67.097 267.26C64.9995 267.945 62.9389 268.775 61.3959 269.415C60.6289 269.749 59.9729 270.001 59.5479 270.209L58.8271 270.524Z" fill="black"/>
<path d="M60.13 273.608C60.3108 273.432 60.5021 273.266 60.7029 273.112C61.0725 272.815 61.6269 272.391 62.2922 271.931C63.0725 271.407 63.884 270.928 64.7223 270.497C65.6813 269.995 66.6719 269.552 67.6883 269.172C68.7112 268.796 69.7613 268.494 70.8299 268.27C71.3242 268.169 71.824 268.097 72.3268 268.053C72.8073 268.053 73.2508 267.954 73.6758 267.963L74.8124 268.008C75.1542 268.008 75.4407 268.089 75.6809 268.117L76.4294 268.243C76.4294 268.243 76.1522 268.243 75.6717 268.288C75.4314 268.288 75.145 268.288 74.8216 268.342L73.7128 268.486C73.3155 268.531 72.8904 268.64 72.4284 268.712C71.9664 268.784 71.5044 268.946 71.0147 269.045C70.525 269.144 70.0353 269.343 69.5271 269.478C69.0189 269.613 68.5199 269.821 68.0117 269.992C67.5035 270.163 67.0046 270.362 66.5148 270.569C66.0251 270.777 65.5354 270.957 65.0826 271.173C64.1586 271.579 63.2993 271.994 62.5694 272.346C61.8394 272.697 61.2203 273.004 60.8045 273.247L60.13 273.608Z" fill="black"/>
<path d="M60.9061 275.709C61.5464 275.091 62.2422 274.529 62.9851 274.032C63.7472 273.518 64.5436 273.054 65.369 272.643C65.831 272.427 66.2931 272.21 66.8013 272.012C67.3095 271.814 67.8084 271.624 68.3351 271.48C68.8544 271.321 69.3818 271.189 69.9151 271.083C70.4295 270.968 70.9512 270.887 71.4767 270.84C71.9668 270.778 72.4609 270.751 72.9551 270.759C73.3932 270.744 73.8319 270.762 74.2672 270.813L75.376 270.957L76.2076 271.155C76.6603 271.273 76.9191 271.354 76.9191 271.354C76.9191 271.354 76.6418 271.354 76.1798 271.354H75.339H74.2579C73.8349 271.353 73.4121 271.377 72.9921 271.426C72.5208 271.465 72.052 271.528 71.5876 271.615C71.1071 271.678 70.6636 271.814 70.1092 271.922C69.5548 272.03 69.1113 272.183 68.6123 272.328C67.6271 272.62 66.6586 272.963 65.7109 273.356C64.7869 273.734 63.9646 274.122 63.2531 274.465C62.5416 274.807 61.9503 275.114 61.5437 275.366L60.9061 275.709Z" fill="black"/>
<path d="M61.9779 278.523C62.1495 278.347 62.3315 278.181 62.5231 278.027C62.8834 277.729 63.3916 277.305 64.0477 276.845C64.7962 276.321 65.5769 275.843 66.3854 275.412C66.8197 275.168 67.3094 274.934 67.7714 274.717C68.2334 274.501 68.7601 274.312 69.259 274.095C69.758 273.879 70.2847 273.752 70.7929 273.599C71.3011 273.446 71.8185 273.338 72.3267 273.247C72.8066 273.16 73.2908 273.097 73.7774 273.058C74.2486 273.058 74.7014 272.986 75.0987 273.004L76.2075 273.076C76.5309 273.076 76.8173 273.184 77.0483 273.22L77.7691 273.383H77.0299C76.7989 273.383 76.5124 273.383 76.1983 273.383L75.1264 273.482C74.7383 273.527 74.3133 273.626 73.879 273.68C73.4447 273.734 72.955 273.897 72.5023 273.987C72.0495 274.077 71.5783 274.275 71.0516 274.402C70.5249 274.528 70.0721 274.726 69.5824 274.907C69.0927 275.087 68.603 275.267 68.1317 275.475C67.6605 275.682 67.2077 275.863 66.7457 276.079C65.8217 276.485 65.0363 276.9 64.3249 277.251C63.6134 277.603 63.022 277.9 62.6247 278.153L61.9779 278.523Z" fill="black"/>
</g>
<path d="M58.8364 281.76L70.2201 273.338C70.3589 273.233 70.519 273.159 70.6895 273.121C70.86 273.082 71.037 273.079 71.2088 273.112L84.2095 275.52C84.4642 275.565 84.6981 275.687 84.8787 275.868C85.0593 276.05 85.1776 276.281 85.2172 276.531C85.2568 276.781 85.2158 277.036 85.0998 277.262C84.9838 277.488 84.7985 277.674 84.5698 277.792L73.8422 283.464C73.6673 283.552 73.475 283.601 73.2785 283.608L59.6034 283.951C59.34 283.955 59.0821 283.877 58.8667 283.729C58.6513 283.581 58.4894 283.371 58.4042 283.127C58.3191 282.884 58.315 282.621 58.3927 282.375C58.4703 282.129 58.6257 281.914 58.8364 281.76Z" fill="#1E2440"/>
<path d="M79.3584 286.756C79.3584 286.756 96.859 245.429 99.9451 242.868C103.031 240.307 122.583 251.407 122.583 251.407L105.175 295.025L79.3584 286.756Z" fill="#1E2440"/>
<path opacity="0.2" d="M84.385 286.458C84.385 286.458 101.146 246.98 103.641 245.275C106.136 243.571 120.421 250.839 120.421 250.839C120.421 250.839 105.535 241.966 100.971 243.472C96.4062 244.978 80.8461 285.556 80.8461 285.556L84.385 286.458Z" fill="black"/>
<path d="M119.654 282.698H45.3275V325.531H119.654V282.698Z" fill="#263238"/>
<path opacity="0.2" d="M119.654 282.698H45.3275V325.531H119.654V282.698Z" fill="white"/>
<path opacity="0.4" d="M119.654 282.698H73.5095V325.531H119.654V282.698Z" fill="white"/>
<path d="M73.5095 283.149L91.0101 269.397L130.049 271.985L119.654 283.149H73.5095Z" fill="#263238"/>
<path d="M73.5095 283.149L60.2871 268.27L32.3361 271.2L45.3275 282.698L73.5095 283.149Z" fill="#263238"/>
<path opacity="0.1" d="M73.5095 283.149L60.2871 268.27L32.3361 271.2L45.3275 282.698L73.5095 283.149Z" fill="white"/>
<path opacity="0.4" d="M73.5095 283.149L91.0101 269.397L130.049 271.985L119.654 283.149H73.5095Z" fill="white"/>
<path d="M105.582 302.41C103.246 302.41 100.963 303.086 99.021 304.352C97.079 305.618 95.5655 307.418 94.6717 309.524C93.7779 311.63 93.5441 313.947 93.9997 316.183C94.4554 318.418 95.58 320.471 97.2315 322.083C98.883 323.695 100.987 324.792 103.278 325.237C105.568 325.682 107.943 325.454 110.101 324.581C112.258 323.709 114.103 322.232 115.4 320.337C116.698 318.442 117.39 316.214 117.39 313.934C117.39 310.878 116.146 307.947 113.932 305.785C111.717 303.624 108.713 302.41 105.582 302.41ZM105.582 318.524C104.649 318.524 103.738 318.254 102.963 317.748C102.187 317.243 101.583 316.524 101.227 315.683C100.871 314.842 100.778 313.917 100.96 313.025C101.143 312.132 101.593 311.313 102.253 310.67C102.913 310.027 103.753 309.59 104.668 309.414C105.583 309.237 106.53 309.33 107.391 309.679C108.252 310.028 108.988 310.619 109.504 311.377C110.021 312.134 110.296 313.024 110.294 313.934C110.294 314.538 110.172 315.135 109.935 315.693C109.698 316.25 109.351 316.757 108.913 317.183C108.475 317.609 107.956 317.947 107.384 318.177C106.813 318.407 106.2 318.525 105.582 318.524Z" fill="#1E2440"/>
<path opacity="0.7" d="M116.226 308.93C116.013 308.503 115.772 308.091 115.505 307.694C115.159 307.158 114.764 306.653 114.323 306.188C112.305 304.005 109.501 302.668 106.496 302.455C106.189 302.422 105.881 302.407 105.572 302.41C103.779 302.413 102.01 302.814 100.399 303.583C98.7879 304.352 97.3775 305.469 96.2743 306.849C95.1711 308.228 94.4042 309.835 94.0317 311.547C93.6591 313.259 93.6906 315.031 94.1239 316.73C94.2334 317.172 94.3754 317.606 94.5489 318.028C94.7962 318.657 95.1057 319.261 95.4729 319.832C96.4309 321.392 97.7545 322.708 99.3351 323.672C100.916 324.637 102.708 325.221 104.565 325.377C104.907 325.377 105.249 325.422 105.591 325.422C107.588 325.421 109.551 324.925 111.299 323.982C113.046 323.038 114.52 321.678 115.583 320.029C116.646 318.379 117.264 316.493 117.378 314.547C117.492 312.602 117.099 310.66 116.235 308.902L116.226 308.93ZM105.581 318.524C105.434 318.533 105.286 318.533 105.138 318.524C104.284 318.448 103.468 318.144 102.779 317.646C102.09 317.149 101.554 316.476 101.229 315.702C101.12 315.439 101.033 315.167 100.971 314.89C100.94 314.717 100.918 314.542 100.906 314.367C100.897 314.232 100.897 314.096 100.906 313.961C100.905 313.358 101.026 312.76 101.261 312.202C101.497 311.644 101.843 311.137 102.28 310.71C102.717 310.283 103.236 309.944 103.807 309.713C104.378 309.481 104.991 309.362 105.609 309.362C105.72 309.353 105.831 309.353 105.942 309.362C106.912 309.422 107.839 309.775 108.594 310.372C108.78 310.524 108.953 310.69 109.111 310.868C109.247 311.011 109.371 311.165 109.481 311.328C110.032 312.094 110.326 313.008 110.322 313.943C110.32 314.548 110.197 315.147 109.957 315.705C109.718 316.264 109.368 316.77 108.928 317.196C108.487 317.622 107.965 317.958 107.391 318.186C106.816 318.414 106.201 318.529 105.581 318.524Z" fill="white"/>
<path opacity="0.2" d="M105.138 318.497L104.556 325.404C102.699 325.248 100.906 324.664 99.3259 323.699C97.7453 322.735 96.4217 321.419 95.4637 319.859L101.229 315.675C101.554 316.449 102.09 317.122 102.779 317.619C103.468 318.117 104.284 318.421 105.138 318.497Z" fill="white"/>
<path opacity="0.2" d="M114.323 306.188L108.566 310.363C107.811 309.766 106.884 309.413 105.914 309.353L106.496 302.455C109.501 302.668 112.305 304.005 114.323 306.188Z" fill="white"/>
<path opacity="0.2" d="M100.971 314.863L94.5582 318.028C94.3847 317.606 94.2426 317.172 94.1332 316.73L100.906 314.34C100.918 314.515 100.94 314.69 100.971 314.863Z" fill="white"/>
<path opacity="0.2" d="M116.226 308.93L109.453 311.319C109.343 311.156 109.22 311.002 109.083 310.859L115.505 307.694C115.772 308.091 116.013 308.503 116.226 308.93Z" fill="white"/>
<path d="M114.202 305.611C107.734 305.611 104.196 310.057 106.413 315.53C108.631 321.004 115.699 325.45 122.214 325.45C128.728 325.45 132.23 321.013 130.012 315.53C127.794 310.048 120.726 305.611 114.202 305.611ZM119.811 319.489C118.489 319.461 117.2 319.076 116.088 318.377C114.976 317.678 114.084 316.693 113.509 315.53C112.585 313.348 114.018 311.572 116.614 311.572C117.936 311.602 119.224 311.988 120.335 312.686C121.447 313.385 122.34 314.369 122.916 315.53C123.812 317.713 122.408 319.489 119.811 319.489Z" fill="#1E2440"/>
<path opacity="0.1" d="M127.111 311.22C126.75 310.859 126.372 310.499 125.965 310.156C125.425 309.69 124.854 309.259 124.256 308.866C121.566 307.015 118.416 305.903 115.136 305.647C114.812 305.647 114.507 305.647 114.212 305.647C107.744 305.647 104.205 310.084 106.422 315.566C106.765 316.416 107.209 317.225 107.744 317.974C108.026 318.366 108.335 318.74 108.668 319.092C109.141 319.655 109.657 320.183 110.211 320.67C113.247 323.397 117.116 325.076 121.225 325.45C121.576 325.45 121.927 325.45 122.269 325.45C128.792 325.45 132.285 321.004 130.077 315.53C129.38 313.922 128.373 312.458 127.111 311.22ZM119.802 319.489H119.349C117.466 319.308 115.721 318.442 114.461 317.063C114.264 316.843 114.084 316.608 113.925 316.36C113.833 316.215 113.75 316.064 113.676 315.909C113.613 315.795 113.557 315.678 113.509 315.557C112.585 313.366 114.018 311.599 116.614 311.599C116.725 311.59 116.836 311.59 116.947 311.599C118.004 311.677 119.03 311.985 119.95 312.5C120.19 312.631 120.421 312.775 120.643 312.933C120.828 313.053 121.004 313.185 121.169 313.33C121.94 313.922 122.544 314.694 122.925 315.575C123.812 317.713 122.408 319.489 119.802 319.489Z" fill="white"/>
<path opacity="0.2" d="M119.349 319.462L121.197 325.413C117.089 325.04 113.22 323.361 110.183 320.634L114.489 317.027C115.74 318.403 117.474 319.272 119.349 319.462Z" fill="white"/>
<path opacity="0.2" d="M124.256 308.866L119.95 312.473C119.03 311.958 118.004 311.65 116.947 311.572L115.099 305.629C118.394 305.884 121.558 307.003 124.256 308.866Z" fill="white"/>
<path opacity="0.2" d="M113.925 316.333L108.612 319.038C108.279 318.686 107.971 318.312 107.688 317.92L113.648 315.882C113.731 316.038 113.824 316.188 113.925 316.333Z" fill="white"/>
<path opacity="0.2" d="M127.111 311.22L121.169 313.285C121.004 313.14 120.828 313.007 120.643 312.888L125.965 310.183C126.371 310.499 126.75 310.859 127.111 311.22Z" fill="white"/>
<path d="M308.982 247.98L309.314 262.021L310.83 325.531H315.828L317.335 262.021L317.667 247.98H308.982Z" fill="#1E2440"/>
<path opacity="0.4" d="M308.982 247.98L309.314 262.021L310.83 325.531H315.828L317.335 262.021L317.667 247.98H308.982Z" fill="white"/>
<path opacity="0.2" d="M308.982 247.98L309.314 262.408H317.335L317.667 247.98H308.982Z" fill="black"/>
<path d="M281.834 325.305L286.454 248.972H294.004L287.536 325.305H281.834Z" fill="#1E2440"/>
<path opacity="0.5" d="M287.554 325.305H281.844L286.039 255.826L286.455 248.882H294.004L293.421 255.826L287.554 325.305Z" fill="white"/>
<path opacity="0.2" d="M294.004 248.882L293.421 256.096H286.039L286.454 248.882H294.004Z" fill="black"/>
<path d="M339.122 325.305L332.654 248.972H340.204L344.824 325.305H339.122Z" fill="#1E2440"/>
<path opacity="0.5" d="M339.104 325.305L333.237 255.826L332.654 248.882H340.204L340.619 255.826L344.814 325.305H339.104Z" fill="white"/>
<path opacity="0.2" d="M332.654 248.882L333.237 256.096H340.619L340.204 248.882H332.654Z" fill="black"/>
<path d="M344.241 251.606H282.407V245.591C282.407 244.395 282.894 243.248 283.761 242.403C284.627 241.557 285.802 241.082 287.027 241.082H339.621C340.847 241.082 342.022 241.557 342.888 242.403C343.755 243.248 344.241 244.395 344.241 245.591V251.624V251.606Z" fill="#1E2440"/>
<path d="M281.308 251.606H345.35C346.376 251.606 347.208 250.794 347.208 249.793V248.152C347.208 247.151 346.376 246.339 345.35 246.339H281.308C280.282 246.339 279.451 247.151 279.451 248.152V249.793C279.451 250.794 280.282 251.606 281.308 251.606Z" fill="#1E2440"/>
<path opacity="0.6" d="M281.308 251.606H345.35C346.376 251.606 347.208 250.794 347.208 249.793V248.152C347.208 247.151 346.376 246.339 345.35 246.339H281.308C280.282 246.339 279.451 247.151 279.451 248.152V249.793C279.451 250.794 280.282 251.606 281.308 251.606Z" fill="white"/>
<path d="M291.139 155.551C291.139 155.551 290.88 156.237 290.409 157.355C289.938 158.473 289.217 160.177 288.339 162.035C286.214 166.544 283.128 172.279 279.903 175.372C279.093 176.204 278.119 176.866 277.039 177.32C273.602 178.609 264.981 178.844 257.284 178.771C249.587 178.699 243.008 178.32 243.008 178.32V172.63L268.316 166.048C268.316 166.048 281.659 142.548 289.568 139.067L291.139 155.551Z" fill="#263238"/>
<path opacity="0.2" d="M290.409 157.364C289.929 158.536 289.217 160.186 288.34 162.044C286.214 166.553 283.128 172.288 279.903 175.381C276.623 163.586 288.755 152.359 288.755 152.359L290.409 157.364Z" fill="black"/>
<path d="M287.138 319.02L279.774 318.028L278.758 300.958L286.103 301.95L287.138 319.02Z" fill="#EBB376"/>
<path opacity="0.2" d="M286.103 301.95L278.758 300.967L279.34 310.724L286.685 311.355L286.103 301.95Z" fill="black"/>
<path d="M286.843 218.638L288.635 207.654L329.864 205.247C329.864 205.247 334.253 228.097 330.88 234.184C324.865 245.05 292.433 239.594 282.934 240.631C288.644 263.31 288.09 307.496 288.09 307.496L274.535 308.506C274.535 308.506 264.112 260.83 261.996 238.169C260.564 222.912 273.556 223.291 286.843 218.638Z" fill="#1E2440"/>
<path d="M289.679 308.145L273.389 309.191L271.994 302.383L289.892 301.571L289.679 308.145Z" fill="#1E2440"/>
<path d="M270.155 312.636L262.745 313.177L258.106 296.675L265.507 296.161L270.155 312.636Z" fill="#EBB376"/>
<path d="M261.747 313.42H261.617C261.617 313.312 261.239 311.283 260.342 310.805C260.227 310.75 260.101 310.721 259.973 310.721C259.844 310.721 259.718 310.75 259.603 310.805C259.462 310.848 259.34 310.936 259.258 311.056C259.175 311.176 259.137 311.32 259.15 311.463C259.329 312.061 259.715 312.58 260.241 312.933C259.566 312.708 258.832 312.727 258.171 312.987C258.082 313.053 258.011 313.139 257.966 313.239C257.921 313.338 257.902 313.447 257.912 313.555C257.9 313.726 257.938 313.896 258.022 314.046C258.105 314.196 258.231 314.32 258.383 314.403C258.847 314.579 259.361 314.579 259.825 314.403C260.467 314.217 261.087 313.963 261.673 313.646H261.737C261.737 313.646 261.737 313.646 261.737 313.592C261.758 313.568 261.769 313.538 261.771 313.507C261.773 313.477 261.764 313.446 261.747 313.42ZM259.52 311.4C259.52 311.301 259.52 311.175 259.769 311.085H259.853C259.918 311.063 259.988 311.055 260.056 311.063C260.125 311.071 260.191 311.094 260.25 311.13C260.786 311.409 261.174 312.509 261.331 313.168L261.165 313.123C260.435 312.699 259.585 311.887 259.52 311.4ZM258.55 314.051C258.458 313.991 258.384 313.908 258.334 313.812C258.284 313.716 258.26 313.609 258.263 313.501C258.258 313.449 258.267 313.396 258.288 313.347C258.309 313.298 258.342 313.255 258.383 313.222C258.808 312.915 260.157 313.177 261.155 313.465C259.926 314.06 258.984 314.277 258.55 314.051Z" fill="#1E2440"/>
<path opacity="0.2" d="M265.507 296.161L258.106 296.684L260.758 306.116L268.076 305.241L265.507 296.161Z" fill="black"/>
<path d="M255.593 304.953L268.64 301.184C268.64 301.184 260.85 258.278 252.932 243.4C253.523 243.21 254.309 242.967 255.279 242.687C257.025 242.173 259.344 241.533 262.07 240.794C281.031 235.663 319.46 226.041 319.46 226.041L301.904 210.053C301.904 210.053 231.975 220.459 230.525 238.44C229.85 247.079 255.593 304.953 255.593 304.953Z" fill="#1E2440"/>
<path d="M270.321 301.49L254.613 305.828L251.795 299.452L269.13 295.016L270.321 301.49Z" fill="#1E2440"/>
<path opacity="0.2" d="M255.297 242.714C257.044 242.2 259.363 241.56 262.089 240.821C261.543 236.456 261.534 231.451 263.687 228.899C267.965 223.814 278.97 220.829 285.235 219.747C290.474 218.845 308.076 217.042 308.076 217.042C308.076 217.042 285.235 214.904 261.876 221.55C250.345 224.851 252.59 235.861 255.297 242.714Z" fill="black"/>
<path d="M332.193 216.726C334.965 214.661 332.303 195.454 333.717 176.562C335.87 147.796 333.717 138.553 331.546 137.661C327.536 136.982 323.482 136.59 319.414 136.488C313.464 136.281 307.506 136.407 301.571 136.867C297.51 137.353 293.493 138.149 289.559 139.248C289.559 139.248 279.839 169.456 286.048 212.966L332.193 216.726Z" fill="#263238"/>
<path opacity="0.8" d="M334.484 161.755C334.364 165.985 334.105 170.89 333.68 176.553C332.266 195.445 334.909 214.652 332.156 216.717L286.002 212.957C283.246 194.071 283.231 174.901 285.956 156.011C289.707 150.294 296.988 143.775 300.333 140.916C301.443 142.103 302.95 142.867 304.583 143.071C308.178 143.757 312.28 142.169 315.671 140.15C318.351 142.756 323.433 148.031 325.66 152.476C325.892 152.937 326.099 153.41 326.279 153.892C327.693 157.752 332.008 152.99 334.207 146.786C334.584 151.767 334.677 156.765 334.484 161.755Z" fill="white"/>
<path d="M317.224 116.966C316.217 122.593 315.32 132.872 319.414 136.534C317.752 138.275 315.753 139.679 313.533 140.663C311.313 141.647 308.915 142.193 306.478 142.269C299.086 142.584 301.58 136.858 301.58 136.858C307.956 135.235 307.679 130.6 306.468 126.272L317.224 116.966Z" fill="#EBB376"/>
<path opacity="0.2" d="M312.835 120.78L306.468 126.317C306.767 127.322 306.974 128.351 307.087 129.392C309.527 129.004 312.826 126.308 313.038 123.801C313.16 122.79 313.091 121.766 312.835 120.78Z" fill="black"/>
<path d="M303.244 102.402C306.431 104.512 304.981 108.083 297.774 113.683C294.854 110.013 294.364 102.799 296.692 100.996C299.021 99.1922 300.472 100.572 303.244 102.402Z" fill="#263238"/>
<path d="M316.928 108.21C316.586 115.811 316.771 120.266 312.918 124.234C307.115 130.194 297.45 126.876 295.464 119.328C293.689 112.547 294.54 101.293 302.107 98.1101C303.77 97.4069 305.589 97.1307 307.392 97.3078C309.195 97.4849 310.921 98.1094 312.407 99.1217C313.892 100.134 315.088 101.501 315.879 103.091C316.671 104.682 317.032 106.444 316.928 108.21Z" fill="#EBB376"/>
<path d="M305.369 110.464C305.369 111.086 305.055 111.591 304.639 111.6C304.223 111.609 303.89 111.113 303.881 110.491C303.872 109.869 304.186 109.373 304.602 109.364C305.018 109.355 305.313 109.86 305.369 110.464Z" fill="#263238"/>
<path d="M298.171 110.599C298.171 111.212 297.857 111.717 297.441 111.726C297.025 111.735 296.683 111.249 296.674 110.617C296.665 109.986 296.988 109.49 297.404 109.49C297.82 109.49 298.162 110.013 298.171 110.599Z" fill="#263238"/>
<path d="M300.527 110.852C299.807 112.751 298.821 114.545 297.598 116.181C298.036 116.473 298.534 116.669 299.057 116.756C299.58 116.843 300.116 116.819 300.629 116.686L300.527 110.852Z" fill="#D58745"/>
<path d="M307.3 108.21C307.381 108.22 307.463 108.201 307.531 108.156C307.57 108.127 307.602 108.091 307.627 108.051C307.652 108.01 307.668 107.965 307.675 107.918C307.682 107.871 307.679 107.823 307.667 107.777C307.655 107.732 307.634 107.688 307.605 107.651C307.251 107.187 306.789 106.814 306.257 106.561C305.725 106.308 305.138 106.184 304.546 106.199C304.499 106.201 304.453 106.212 304.411 106.232C304.369 106.252 304.331 106.28 304.3 106.315C304.269 106.349 304.245 106.39 304.23 106.433C304.216 106.477 304.21 106.523 304.214 106.568C304.225 106.662 304.273 106.747 304.347 106.807C304.42 106.868 304.515 106.898 304.611 106.893C305.078 106.888 305.54 106.992 305.958 107.196C306.375 107.4 306.737 107.698 307.013 108.065C307.049 108.107 307.092 108.142 307.141 108.166C307.191 108.191 307.245 108.206 307.3 108.21Z" fill="#263238"/>
<path d="M294.854 108.282C294.925 108.282 294.995 108.263 295.055 108.226C295.116 108.189 295.164 108.137 295.196 108.074C295.377 107.655 295.659 107.284 296.017 106.992C296.376 106.7 296.8 106.496 297.256 106.397C297.353 106.382 297.441 106.329 297.499 106.252C297.558 106.175 297.584 106.078 297.57 105.982C297.556 105.888 297.505 105.803 297.427 105.745C297.349 105.688 297.251 105.663 297.154 105.676C296.576 105.794 296.035 106.045 295.577 106.409C295.119 106.773 294.757 107.239 294.521 107.768C294.48 107.854 294.475 107.952 294.508 108.042C294.541 108.131 294.609 108.205 294.697 108.246C294.744 108.272 294.799 108.284 294.854 108.282Z" fill="#263238"/>
<path d="M313.731 101.519C310.118 102.799 310.636 106.614 316.217 113.755C319.986 110.861 322.269 103.998 320.448 101.699C318.628 99.3996 316.928 100.41 313.731 101.519Z" fill="#263238"/>
<path d="M320.763 114.206C320.511 115.122 320.078 115.98 319.486 116.732C318.895 117.484 318.157 118.115 317.316 118.589C315.052 119.833 313.306 118.003 313.408 115.613C313.509 113.449 314.803 110.203 317.325 109.932C319.848 109.661 321.372 111.934 320.763 114.206Z" fill="#EBB376"/>
<path d="M306.468 117.94C305.921 118.756 305.154 119.41 304.251 119.828C303.348 120.247 302.344 120.414 301.349 120.311" stroke="#263238" stroke-width="0.53" stroke-linecap="round" stroke-linejoin="round"/>
<path d="M305.84 100.31C305.84 100.31 307.004 107.921 314.516 108.426C322.029 108.931 323.636 104.377 323.636 104.377C323.024 104.464 322.407 104.512 321.788 104.522C321.788 104.522 323.978 100.833 321.788 97.3075C319.598 93.7817 312.105 90.0124 306.552 91.8971C304.823 91.346 302.997 91.1497 301.188 91.3204C299.378 91.4911 297.624 92.0251 296.036 92.889C290.834 95.8377 291.758 102.267 291.758 102.267C291.758 102.267 291.527 98.3626 293.948 97.2715C293.948 97.2715 290.954 105.306 295.454 107.443C295.445 107.416 295.889 99.5168 305.84 100.31Z" fill="#263238"/>
<path d="M293.061 172.234C293.061 172.234 266.265 171.639 264.75 171.494C263.234 171.35 256.886 167.887 255.51 167.698C254.133 167.509 250.539 173.108 250.086 174.407C249.633 175.705 260.25 179.222 261.275 179.069C262.463 178.76 263.617 178.34 264.722 177.816L292.072 181.251L293.061 172.234Z" fill="#EBB376"/>
<path d="M215.288 177.644V180.034C215.288 180.746 216.545 181.251 217.275 181.251H274.369C275.108 181.251 276.272 180.746 276.272 180.034V177.644H215.288Z" fill="#263238"/>
<path opacity="0.6" d="M215.288 177.644V180.034C215.288 180.746 216.545 181.251 217.275 181.251H274.369C275.108 181.251 276.272 180.746 276.272 180.034V177.644H215.288Z" fill="white"/>
<path opacity="0.2" d="M215.288 177.644V180.034C215.288 180.746 216.545 181.251 217.275 181.251H254.928C255.667 181.251 256.868 180.746 256.868 180.034V177.644H215.288Z" fill="black"/>
<path d="M206.131 148.346L212.932 178.546C213.052 179.038 213.332 179.48 213.73 179.805C214.128 180.13 214.622 180.321 215.14 180.349H252.248C252.486 180.329 252.717 180.256 252.923 180.138C253.129 180.019 253.305 179.857 253.438 179.664C253.572 179.47 253.66 179.25 253.695 179.019C253.731 178.788 253.713 178.553 253.643 178.33L246.852 148.464C246.714 148.007 246.419 147.611 246.016 147.342C245.614 147.073 245.13 146.947 244.644 146.985H207.536C206.538 146.985 205.909 147.364 206.131 148.346Z" fill="#263238"/>
<path opacity="0.6" d="M206.131 148.346L212.932 178.546C213.052 179.038 213.332 179.48 213.73 179.805C214.128 180.13 214.622 180.321 215.14 180.349H252.248C252.486 180.329 252.717 180.256 252.923 180.138C253.129 180.019 253.305 179.857 253.438 179.664C253.572 179.47 253.66 179.25 253.695 179.019C253.731 178.788 253.713 178.553 253.643 178.33L246.852 148.464C246.714 148.007 246.419 147.611 246.016 147.342C245.614 147.073 245.13 146.947 244.644 146.985H207.536C206.538 146.985 205.909 147.364 206.131 148.346Z" fill="white"/>
<path opacity="0.4" d="M206.131 148.346L212.932 178.546C213.052 179.038 213.332 179.48 213.73 179.805C214.128 180.13 214.622 180.321 215.14 180.349H251.001C251.239 180.328 251.469 180.256 251.676 180.137C251.882 180.019 252.058 179.857 252.193 179.664C252.327 179.471 252.416 179.251 252.453 179.02C252.489 178.789 252.473 178.553 252.405 178.33L245.614 148.464C245.475 148.007 245.18 147.611 244.778 147.342C244.376 147.073 243.891 146.947 243.405 146.985H207.536C206.538 146.985 205.909 147.364 206.131 148.346Z" fill="white"/>
<path opacity="0.2" d="M227.975 167.725C226.247 167.725 224.473 165.921 224.02 163.685C223.567 161.449 224.611 159.609 226.376 159.609C226.693 159.616 227.005 159.677 227.3 159.79C227.46 160.587 227.811 161.336 228.323 161.977C228.835 162.618 229.494 163.132 230.248 163.478C230.267 163.537 230.283 163.597 230.294 163.658C230.756 165.921 229.712 167.725 227.975 167.725Z" fill="black"/>
<path opacity="0.2" d="M334.484 161.755C330.502 168.068 324.93 174.786 319.377 174.47C313.565 174.136 319.423 162.558 325.669 152.476C325.901 152.937 326.108 153.41 326.288 153.892C327.702 157.752 332.017 152.99 334.216 146.786C334.59 151.767 334.68 156.765 334.484 161.755Z" fill="black"/>
<path d="M331.546 137.661C345.249 142.476 321.197 178.69 313.722 182.423C306.247 186.157 286.602 181.855 286.602 181.855L287.822 170.665C287.822 170.665 303.373 171.693 306.468 170.926C309.564 170.16 316.919 154.695 321.151 147.436C323.499 143.209 327.13 139.794 331.546 137.661Z" fill="#263238"/>
<path opacity="0.2" d="M289.679 308.145L273.389 309.191L271.994 302.383L289.892 301.571L289.679 308.145Z" fill="white"/>
<path opacity="0.2" d="M270.321 301.49L254.613 305.828L251.795 299.452L269.13 295.016L270.321 301.49Z" fill="white"/>
<path d="M262.024 312.437L270.044 310.255C270.177 310.215 270.32 310.226 270.444 310.286C270.568 310.347 270.663 310.452 270.71 310.58L272.881 316.676C272.972 317.004 272.925 317.355 272.752 317.65C272.579 317.946 272.293 318.163 271.957 318.254C269.139 318.966 267.762 319.155 264.223 320.111C262.052 320.697 257.82 322.05 254.724 322.393C251.629 322.735 251.37 319.741 252.645 319.336C255.676 318.344 259.307 315.26 260.878 313.168C261.166 312.806 261.569 312.549 262.024 312.437Z" fill="#263238"/>
<path d="M279.044 318.046C279.044 317.92 278.915 315.873 278.12 315.224C278.002 315.138 277.867 315.077 277.724 315.045C277.581 315.012 277.433 315.009 277.288 315.034C277.139 315.048 276.997 315.108 276.884 315.205C276.771 315.302 276.693 315.432 276.66 315.575C276.693 316.196 276.952 316.784 277.39 317.235C276.772 316.881 276.046 316.75 275.339 316.865C275.238 316.912 275.151 316.983 275.085 317.071C275.019 317.159 274.976 317.262 274.96 317.37C274.917 317.531 274.92 317.7 274.968 317.859C275.017 318.018 275.11 318.161 275.237 318.272C275.654 318.531 276.155 318.627 276.642 318.542C277.301 318.489 277.952 318.362 278.582 318.163C278.592 318.168 278.603 318.171 278.614 318.171C278.626 318.171 278.637 318.168 278.647 318.163V318.109C278.647 318.109 278.822 318.109 278.832 318.046C278.841 317.983 278.989 318.046 278.989 318.046H279.044ZM277.002 315.611C277.002 315.512 277.067 315.386 277.307 315.341H277.39C277.46 315.335 277.53 315.344 277.595 315.367C277.661 315.39 277.72 315.428 277.769 315.476C278.24 315.855 278.37 317 278.397 317.685L278.249 317.604C277.606 317.104 277.164 316.398 277.002 315.611ZM275.487 318.001C275.415 317.922 275.365 317.828 275.341 317.725C275.317 317.623 275.319 317.516 275.348 317.415C275.354 317.362 275.374 317.311 275.406 317.269C275.439 317.226 275.483 317.192 275.533 317.171C276.004 316.955 277.27 317.487 278.166 317.965C276.836 318.317 275.856 318.317 275.487 318.037V318.001Z" fill="#1E2440"/>
<path d="M279.22 317.171L287.536 316.667C287.604 316.658 287.674 316.662 287.741 316.681C287.808 316.699 287.87 316.73 287.924 316.772C287.979 316.814 288.024 316.866 288.057 316.925C288.09 316.985 288.111 317.05 288.118 317.117L288.931 323.52C288.943 323.686 288.922 323.854 288.868 324.012C288.813 324.171 288.728 324.317 288.615 324.443C288.502 324.569 288.365 324.671 288.212 324.745C288.058 324.819 287.891 324.862 287.72 324.872C284.819 325.008 283.424 324.926 279.765 325.125C277.519 325.251 273.093 325.72 269.989 325.422C266.884 325.125 267.272 322.149 268.612 322.005C271.781 321.653 276.004 319.381 277.972 317.649C278.322 317.36 278.761 317.191 279.22 317.171Z" fill="#263238"/>
<path d="M242.186 325.531H247.841L248.774 187.338H241.262L242.186 325.531Z" fill="#1E2440"/>
<path opacity="0.4" d="M241.252 187.563L241.4 209.855L242.176 325.531H247.841L248.617 209.855L248.765 187.563H241.252Z" fill="white"/>
<path opacity="0.2" d="M241.252 187.563L241.4 210.107H248.617L248.765 187.563H241.252Z" fill="black"/>
<path d="M182.089 325.531H187.744L197.917 187.338H190.405L182.089 325.531Z" fill="#1E2440"/>
<path opacity="0.5" d="M182.079 325.531H187.744L197.418 194.2L197.917 187.563H190.405L189.998 194.2L182.079 325.531Z" fill="white"/>
<path opacity="0.2" d="M189.998 193.876H197.418L197.917 187.563H190.405L189.998 193.876Z" fill="black"/>
<path d="M302.283 325.531H307.937L299.621 187.338H292.109L302.283 325.531Z" fill="#1E2440"/>
<path opacity="0.5" d="M292.109 187.563L292.608 194.2L302.283 325.531H307.937L300.028 194.2L299.621 187.563H292.109Z" fill="white"/>
<path opacity="0.2" d="M299.621 187.563H292.109L292.608 193.876H300.028L299.621 187.563Z" fill="black"/>
<path d="M303.576 190.792L186.45 190.792C186.188 190.792 185.928 190.741 185.686 190.643C185.444 190.545 185.224 190.402 185.039 190.221C184.853 190.04 184.706 189.826 184.606 189.589C184.506 189.353 184.454 189.1 184.454 188.844V183.875H305.572V188.844C305.572 189.36 305.362 189.856 304.988 190.221C304.613 190.586 304.106 190.792 303.576 190.792Z" fill="#1E2440"/>
<path opacity="0.6" d="M303.576 190.792L186.45 190.792C186.188 190.792 185.928 190.741 185.686 190.643C185.444 190.545 185.224 190.402 185.039 190.221C184.853 190.04 184.706 189.826 184.606 189.589C184.506 189.353 184.454 189.1 184.454 188.844V183.875H305.572V188.844C305.572 189.36 305.362 189.856 304.988 190.221C304.613 190.586 304.106 190.792 303.576 190.792Z" fill="white"/>
<path opacity="0.2" d="M184.454 187.338L305.572 187.338V183.875L184.454 183.875V187.338Z" fill="black"/>
<path d="M180.943 184.786H309.083C309.613 184.784 310.121 184.576 310.495 184.21C310.869 183.843 311.079 183.347 311.079 182.829C311.079 182.313 310.869 181.817 310.495 181.452C310.12 181.087 309.613 180.881 309.083 180.881H180.943C180.414 180.881 179.906 181.087 179.532 181.452C179.157 181.817 178.947 182.313 178.947 182.829C178.947 183.347 179.157 183.843 179.531 184.21C179.905 184.576 180.413 184.784 180.943 184.786Z" fill="#1E2440"/>
<path opacity="0.6" d="M180.943 184.786H309.083C309.613 184.784 310.121 184.576 310.495 184.21C310.869 183.843 311.079 183.347 311.079 182.829C311.079 182.313 310.869 181.817 310.495 181.452C310.12 181.087 309.613 180.881 309.083 180.881H180.943C180.414 180.881 179.906 181.087 179.532 181.452C179.157 181.817 178.947 182.313 178.947 182.829C178.947 183.347 179.157 183.843 179.531 184.21C179.905 184.576 180.413 184.784 180.943 184.786Z" fill="white"/>
</svg>
