<svg width="436" height="319" viewBox="0 0 436 319" fill="none" xmlns="http://www.w3.org/2000/svg">
<path d="M436 280.295H0V280.509H436V280.295Z" fill="#EBEBEB"/>
<path d="M74.6258 288.445H45.7451V288.659H74.6258V288.445Z" fill="#EBEBEB"/>
<path d="M156.812 286.125H133.8V286.339H156.812V286.125Z" fill="#EBEBEB"/>
<path d="M118.496 293.496H78.4539V293.71H118.496V293.496Z" fill="#EBEBEB"/>
<path d="M392.313 294.96H373.478V295.174H392.313V294.96Z" fill="#EBEBEB"/>
<path d="M369.24 294.96H341.362V295.174H369.24V294.96Z" fill="#EBEBEB"/>
<path d="M289.792 291.339H241.727V291.553H289.792V291.339Z" fill="#EBEBEB"/>
<path d="M206.664 242.112H38.2895C36.9705 242.109 35.7062 241.593 34.7744 240.677C33.8425 239.76 33.3191 238.518 33.3191 237.223V4.84566C33.3306 3.55807 33.859 2.32692 34.7897 1.41964C35.7203 0.512354 36.978 0.0022057 38.2895 0H206.664C207.985 0 209.251 0.515033 210.185 1.4318C211.119 2.34856 211.643 3.59196 211.643 4.88846V237.223C211.643 238.52 211.119 239.763 210.185 240.68C209.251 241.597 207.985 242.112 206.664 242.112ZM38.2895 0.171225C37.0283 0.173493 35.8195 0.666976 34.9285 1.54336C34.0375 2.41974 33.5371 3.6074 33.5371 4.84566V237.223C33.5371 238.461 34.0375 239.649 34.9285 240.525C35.8195 241.402 37.0283 241.895 38.2895 241.898H206.664C207.926 241.895 209.136 241.402 210.028 240.526C210.92 239.65 211.423 238.462 211.425 237.223V4.84566C211.423 3.60662 210.92 2.41897 210.028 1.54283C209.136 0.666698 207.926 0.173488 206.664 0.171225H38.2895Z" fill="#EBEBEB"/>
<path d="M395.286 242.112H226.903C225.583 242.109 224.318 241.594 223.385 240.677C222.452 239.761 221.926 238.519 221.924 237.223V4.84566C221.938 3.55729 222.468 2.32615 223.4 1.4191C224.332 0.512055 225.591 0.00218165 226.903 0H395.286C396.596 0.00445569 397.852 0.515599 398.78 1.42264C399.709 2.32969 400.236 3.55955 400.248 4.84566V237.223C400.248 238.517 399.726 239.757 398.796 240.674C397.866 241.59 396.604 242.107 395.286 242.112ZM226.903 0.171225C225.641 0.173488 224.431 0.666698 223.539 1.54283C222.647 2.41897 222.144 3.60662 222.142 4.84566V237.223C222.144 238.462 222.647 239.65 223.539 240.526C224.431 241.402 225.641 241.895 226.903 241.898H395.286C396.548 241.895 397.758 241.402 398.65 240.526C399.543 239.65 400.045 238.462 400.047 237.223V4.84566C400.045 3.60662 399.543 2.41897 398.65 1.54283C397.758 0.666698 396.548 0.173488 395.286 0.171225H226.903Z" fill="#EBEBEB"/>
<path d="M252.287 26.0946H67.6062V137.947H252.287V26.0946Z" fill="#E6E6E6"/>
<path d="M257.031 26.0946H69.821V137.947H257.031V26.0946Z" fill="#F0F0F0"/>
<path d="M252.287 137.947H67.6062V146.602H252.287V137.947Z" fill="#E6E6E6"/>
<path d="M264.931 137.947H77.7213V146.602H264.931V137.947Z" fill="#F0F0F0"/>
<path d="M250.386 131.423V32.6097L76.4657 32.6097V131.423H250.386Z" fill="#FAFAFA"/>
<path d="M89.2318 131.423L128.219 32.6183H146.618L107.631 131.423H89.2318Z" fill="white"/>
<path d="M111.59 131.423L150.577 32.6183H157.745L118.758 131.423H111.59Z" fill="white"/>
<path d="M179.798 131.423L218.785 32.6183H225.961L186.974 131.423H179.798Z" fill="white"/>
<path d="M250.386 131.423V32.6097H249.54V131.423H250.386Z" fill="#E6E6E6"/>
<path d="M267.268 195.145H234.603V280.295H267.268V195.145Z" fill="#E6E6E6"/>
<path d="M261.059 280.286H267.268V260.792H254.554L261.059 280.286Z" fill="#F0F0F0"/>
<path d="M80.8955 195.145H48.2303V280.295H80.8955V195.145Z" fill="#E6E6E6"/>
<path d="M267.268 195.145H75.4803V277.213H267.268V195.145Z" fill="#F0F0F0"/>
<path d="M81.6803 280.286H75.4803V260.792H88.1854L81.6803 280.286Z" fill="#F0F0F0"/>
<path d="M81.8634 206.531V265.013C81.8634 266.152 82.8043 267.076 83.9649 267.076H136.616C137.777 267.076 138.718 266.152 138.718 265.013V206.531C138.718 205.392 137.777 204.468 136.616 204.468H83.9649C82.8043 204.468 81.8634 205.392 81.8634 206.531Z" fill="#FAFAFA"/>
<path d="M115.906 210.88H104.64C99.7568 210.88 95.048 208.029 91.7257 202.978H128.803C125.463 208.038 120.789 210.88 115.906 210.88Z" fill="#F0F0F0"/>
<path d="M142.947 206.523V265.004C142.947 266.144 143.888 267.068 145.049 267.068H197.7C198.861 267.068 199.801 266.144 199.801 265.004V206.523C199.801 205.383 198.861 204.459 197.7 204.459H145.049C143.888 204.459 142.947 205.383 142.947 206.523Z" fill="#FAFAFA"/>
<path d="M177.574 210.88H166.325C161.433 210.88 156.733 208.029 153.411 202.978H190.488C187.122 208.038 182.457 210.88 177.574 210.88Z" fill="#F0F0F0"/>
<path d="M204.039 206.531V265.013C204.039 266.152 204.98 267.076 206.141 267.076H258.792C259.953 267.076 260.894 266.152 260.894 265.013V206.531C260.894 205.392 259.953 204.468 258.792 204.468H206.141C204.98 204.468 204.039 205.392 204.039 206.531Z" fill="#FAFAFA"/>
<path d="M238.658 210.88H227.409C222.526 210.88 217.817 208.029 214.495 202.978H251.581C248.215 208.038 243.55 210.88 238.658 210.88Z" fill="#F0F0F0"/>
<path d="M402.402 186.789C402.359 186.594 402.249 186.42 402.09 186.297C401.931 186.173 401.733 186.108 401.53 186.113H378.806C378.603 186.108 378.405 186.173 378.246 186.297C378.086 186.42 377.976 186.594 377.934 186.789L366.24 280.295H367.984L379.529 187.833H400.841L412.395 280.295H414.139L402.402 186.789Z" fill="#F0F0F0"/>
<path d="M368.193 186.789C368.151 186.594 368.04 186.42 367.881 186.297C367.722 186.173 367.524 186.108 367.321 186.113H344.606C344.403 186.108 344.205 186.173 344.046 186.297C343.887 186.42 343.776 186.594 343.734 186.789L331.979 280.295H333.767L345.321 187.833H366.624L378.169 280.295H379.957L368.193 186.789Z" fill="#F0F0F0"/>
<path d="M384.552 186.96H345.399C337.917 186.96 333.784 181.978 331.665 173.759L330.627 169.059C330.272 167.636 330.251 166.152 330.568 164.72C330.885 163.289 331.531 161.947 332.456 160.798C333.381 159.648 334.561 158.721 335.907 158.088C337.252 157.454 338.727 157.13 340.219 157.141H364.766C369.85 157.141 371.193 158.331 374.698 165.848L384.552 186.96Z" fill="#F0F0F0"/>
<path d="M363.153 179.597H401.469C402.891 179.597 404.255 180.152 405.261 181.14C406.267 182.127 406.832 183.466 406.832 184.863V185.042C406.832 185.551 406.626 186.039 406.259 186.398C405.893 186.758 405.396 186.96 404.878 186.96H363.153V179.597Z" fill="#F0F0F0"/>
<path d="M351.416 186.789C351.373 186.594 351.263 186.42 351.104 186.297C350.945 186.173 350.747 186.108 350.544 186.113H327.794C327.591 186.108 327.393 186.173 327.234 186.297C327.074 186.42 326.964 186.594 326.922 186.789L315.176 280.295H316.963L328.509 187.833H349.82L361.366 280.295H363.11L351.416 186.789Z" fill="#F0F0F0"/>
<path d="M317.181 186.789C317.139 186.594 317.028 186.42 316.869 186.297C316.71 186.173 316.512 186.108 316.309 186.113H293.594C293.391 186.108 293.193 186.173 293.034 186.297C292.874 186.42 292.764 186.594 292.722 186.789L280.967 280.295H282.755L294.309 187.833H315.612L327.157 280.295H328.944L317.181 186.789Z" fill="#F0F0F0"/>
<path d="M333.496 186.96H294.344C286.862 186.96 282.72 181.978 280.61 173.759L279.572 169.059C279.216 167.636 279.196 166.152 279.513 164.72C279.83 163.289 280.475 161.947 281.4 160.798C282.326 159.648 283.506 158.721 284.851 158.088C286.197 157.454 287.672 157.13 289.164 157.141H313.702C318.794 157.141 320.129 158.331 323.643 165.848L333.496 186.96Z" fill="#F0F0F0"/>
<path d="M312.176 179.597H350.457C351.879 179.597 353.243 180.152 354.249 181.14C355.255 182.127 355.82 183.466 355.82 184.863V185.042C355.82 185.551 355.614 186.039 355.248 186.398C354.881 186.758 354.384 186.96 353.866 186.96H312.176V179.597Z" fill="#F0F0F0"/>
<path d="M374.262 21.4973H306.534V99.0449H374.262V21.4973Z" fill="#F0F0F0"/>
<path d="M379.957 21.4973H307.554V99.0449H379.957V21.4973Z" fill="#F5F5F5"/>
<path d="M373.73 92.9321V27.61L313.78 27.61V92.9321H373.73Z" fill="white"/>
<path d="M338.938 84.9103H348.582V55.5025H338.938V84.9103Z" fill="#E6E6E6"/>
<path d="M355.34 84.9103H364.984V71.1438H355.34V84.9103Z" fill="#E6E6E6"/>
<path d="M355.34 71.1438H364.984V62.7453H355.34V71.1438Z" fill="#F0F0F0"/>
<path d="M338.938 55.4939H348.582V37.5581H338.938V55.4939Z" fill="#F0F0F0"/>
<path d="M322.535 84.9103H332.18V60.8532H322.535V84.9103Z" fill="#E6E6E6"/>
<path d="M322.535 60.8532H332.18V49.8263H322.535V60.8532Z" fill="#F0F0F0"/>
<path d="M218 318.957C311.376 318.957 387.072 314.618 387.072 309.266C387.072 303.914 311.376 299.575 218 299.575C124.624 299.575 48.928 303.914 48.928 309.266C48.928 314.618 124.624 318.957 218 318.957Z" fill="#F5F5F5"/>
<path d="M214.835 301.321L222.552 301.39L226.668 283.83L218.942 283.762L214.835 301.321Z" fill="#FF8B7B"/>
<path d="M222.744 300.499L214.303 300.431C214.145 300.43 213.992 300.48 213.866 300.573C213.74 300.665 213.649 300.796 213.605 300.944L211.565 307.665C211.51 307.821 211.494 307.988 211.519 308.152C211.544 308.316 211.609 308.471 211.709 308.605C211.808 308.738 211.939 308.846 212.09 308.92C212.241 308.993 212.408 309.03 212.576 309.026C215.628 309.026 220.04 308.863 223.912 308.898C228.385 308.941 229.31 309.206 234.559 309.257C237.725 309.257 238.849 306.141 237.541 305.833C231.594 304.48 229.589 304.3 224.61 301.09C224.061 300.716 223.411 300.511 222.744 300.499Z" fill="#8090B7"/>
<path opacity="0.2" d="M226.659 283.83L224.549 292.88L216.823 292.82L218.933 283.762L226.659 283.83Z" fill="black"/>
<path d="M225.935 301.86C225.105 301.844 224.278 301.746 223.467 301.569C223.429 301.562 223.394 301.544 223.368 301.516C223.341 301.488 223.324 301.453 223.319 301.415C223.316 301.378 223.324 301.341 223.342 301.309C223.361 301.277 223.39 301.251 223.424 301.235C223.79 301.056 227.034 299.523 227.923 300.071C228.006 300.122 228.073 300.193 228.119 300.277C228.165 300.361 228.188 300.455 228.185 300.551C228.187 300.714 228.151 300.876 228.08 301.025C228.009 301.173 227.905 301.303 227.775 301.407C227.226 301.746 226.582 301.905 225.935 301.86ZM224.104 301.355C225.778 301.646 227.051 301.586 227.592 301.176C227.684 301.106 227.757 301.017 227.805 300.914C227.854 300.811 227.877 300.698 227.871 300.585C227.874 300.551 227.868 300.517 227.853 300.487C227.837 300.457 227.813 300.431 227.784 300.414C227.252 300.088 225.421 300.73 224.104 301.355Z" fill="#1E2440"/>
<path d="M223.502 301.578C223.461 301.577 223.421 301.562 223.389 301.535C223.363 301.515 223.343 301.488 223.331 301.458C223.319 301.428 223.315 301.396 223.319 301.364C223.319 301.227 223.93 297.939 225.769 298.162C226.258 298.222 226.389 298.462 226.423 298.65C226.546 299.506 224.566 301.15 223.572 301.561L223.502 301.578ZM225.613 298.513C224.505 298.513 223.947 300.285 223.755 301.081C224.775 300.516 226.136 299.232 226.057 298.718C226.057 298.718 226.057 298.573 225.726 298.539L225.613 298.513Z" fill="#1E2440"/>
<path d="M261.6 93.8568C261.713 98.4713 261.879 103.274 262.106 107.949C262.21 110.294 262.341 112.64 262.507 114.969C262.673 117.297 262.864 119.618 263.126 121.903C263.236 123.045 263.376 124.186 263.545 125.328L263.658 126.184C263.658 126.287 263.658 126.184 263.658 126.235C263.658 126.235 263.658 126.33 263.658 126.484C263.969 127.021 264.402 127.48 264.922 127.828C265.679 128.389 266.485 128.884 267.329 129.309C271.018 131.192 275.7 132.571 280.147 133.803L279.677 139.599C277.06 139.752 274.435 139.695 271.829 139.428C270.512 139.308 269.213 139.12 267.87 138.872C266.503 138.624 265.155 138.289 263.832 137.87C262.384 137.441 260.984 136.867 259.655 136.158C258.029 135.305 256.575 134.167 255.365 132.802C254.633 131.936 254.045 130.962 253.621 129.917C253.499 129.643 253.403 129.343 253.307 129.061L253.185 128.615L253.081 128.23L252.88 127.288C252.583 126.038 252.331 124.788 252.104 123.547C251.188 118.573 250.63 113.659 250.22 108.736C250.046 106.279 249.863 103.822 249.793 101.365C249.723 98.9079 249.627 96.4765 249.671 93.9338L261.6 93.8568Z" fill="#FF8B7B"/>
<path d="M246.872 94.4389C245.773 103.043 247.796 115.748 247.796 115.748C247.796 115.748 253.9 116.604 258.653 115.371C263.405 114.138 264.408 113.222 264.408 113.222C265.55 107.306 265.597 101.236 264.547 95.3036C262.638 85.5866 254.685 81.8967 249.183 87.8297C247.953 89.1738 247.238 91.6052 246.872 94.4389Z" fill="#1E2440"/>
<path opacity="0.2" d="M247.779 98.5911C247.307 100.046 246.911 101.523 246.593 103.017C246.766 107.276 247.168 111.522 247.796 115.739C251.159 116.171 254.568 116.107 257.911 115.551C258.051 113.907 258.138 112.126 258.129 110.354C258.112 102.118 253.203 97.2213 247.779 98.5911Z" fill="black"/>
<path d="M277.453 133.358L283.496 132.973L283.199 140.49C281.854 140.64 280.492 140.512 279.2 140.114C277.909 139.716 276.716 139.057 275.7 138.178L277.453 133.358Z" fill="#FF8B7B"/>
<path d="M289.652 136.449L288.527 139.548C288.379 139.966 288.09 140.323 287.708 140.558C287.326 140.793 286.874 140.893 286.426 140.841L283.199 140.481L283.496 132.964L288.161 133.863C288.442 133.92 288.708 134.034 288.94 134.2C289.172 134.365 289.365 134.578 289.506 134.823C289.648 135.068 289.734 135.34 289.759 135.62C289.784 135.901 289.748 136.183 289.652 136.449Z" fill="#FF8B7B"/>
<path d="M287.123 131.738L285.158 130.662C284.661 130.391 284.035 130.566 283.758 131.053L279.382 138.763C279.105 139.251 279.283 139.866 279.78 140.138L281.745 141.213C282.241 141.484 282.868 141.309 283.145 140.822L287.521 133.112C287.798 132.625 287.619 132.009 287.123 131.738Z" fill="#8090B7"/>
<path d="M283.402 140.149L279.822 138.191C279.553 138.043 279.213 138.138 279.063 138.403L277.314 141.484C277.164 141.748 277.26 142.082 277.53 142.229L281.11 144.188C281.379 144.335 281.719 144.24 281.869 143.976L283.618 140.895C283.768 140.63 283.671 140.297 283.402 140.149Z" fill="#8090B7"/>
<path d="M291.911 133.555C289.74 133.556 287.606 133.011 285.711 131.971C283.313 130.758 281.34 128.869 280.043 126.547C278.746 124.226 278.184 121.576 278.431 118.939C278.677 116.302 279.72 113.797 281.426 111.746C283.131 109.695 285.422 108.19 288.004 107.425C290.586 106.66 293.343 106.67 295.919 107.452C298.496 108.235 300.776 109.756 302.467 111.819C304.158 113.882 305.183 116.394 305.41 119.032C305.638 121.671 305.057 124.316 303.744 126.629C302.576 128.712 300.864 130.451 298.784 131.668C296.704 132.885 294.332 133.537 291.911 133.555ZM292.678 109.002C290.587 109.021 288.54 109.586 286.745 110.64C284.951 111.693 283.474 113.196 282.467 114.994C281.683 116.265 281.169 117.677 280.954 119.147C280.739 120.617 280.827 122.114 281.215 123.55C281.602 124.985 282.28 126.329 283.208 127.502C284.136 128.674 285.296 129.651 286.617 130.374C287.938 131.097 289.394 131.551 290.898 131.709C292.402 131.867 293.923 131.726 295.37 131.294C296.818 130.862 298.161 130.148 299.321 129.195C300.481 128.243 301.434 127.07 302.122 125.747C303.65 123.164 304.072 120.09 303.296 117.202C302.519 114.313 300.608 111.844 297.98 110.337C296.356 109.46 294.531 109.006 292.678 109.019V109.002Z" fill="#8090B7"/>
<path d="M245.407 150.07C245.407 150.07 249.366 192.876 248.215 216.291C247.02 240.571 229.475 288.513 229.475 288.513L215.523 288.222C215.523 288.222 225.115 235.46 224.854 211.3C224.592 184.948 222.124 145.49 222.124 145.49L245.407 150.07Z" fill="#8090B7"/>
<path opacity="0.2" d="M227.173 156.611C225.578 154.761 224.148 156.525 222.944 159.958C223.441 169.187 224.043 181.652 224.435 193.732C231.246 183.561 232.309 162.595 227.173 156.611Z" fill="black"/>
<path d="M213.806 288.796L230.217 289.121L231.969 283.762L214.835 283.728L213.806 288.796Z" fill="#1E2440"/>
<path opacity="0.4" d="M213.806 288.796L230.217 289.121L231.969 283.762L214.835 283.728L213.806 288.796Z" fill="white"/>
<path d="M157.021 271.494L162.863 276.459L176.057 264.422L170.206 259.457L157.021 271.494Z" fill="#FF8B7B"/>
<path d="M163.378 276.699L158.966 269.679C158.882 269.548 158.758 269.448 158.613 269.391C158.467 269.334 158.307 269.324 158.155 269.362L151.266 271.228C151.102 271.265 150.95 271.34 150.822 271.447C150.694 271.554 150.594 271.69 150.531 271.843C150.467 271.996 150.442 272.161 150.458 272.325C150.474 272.49 150.529 272.648 150.621 272.786C152.26 275.312 154.719 278.916 156.725 282.127C159.061 285.868 159.044 285.808 161.791 290.2C163.448 292.863 166.753 292.126 166.317 290.885C164.328 285.217 163.701 284.43 163.823 278.582C163.87 277.925 163.715 277.269 163.378 276.699Z" fill="#8090B7"/>
<path opacity="0.2" d="M176.048 264.422L169.255 270.629L163.404 265.664L170.206 259.457L176.048 264.422Z" fill="black"/>
<path d="M163.936 280.072C163.509 279.371 163.153 278.632 162.872 277.863C162.86 277.827 162.859 277.788 162.87 277.751C162.881 277.714 162.903 277.682 162.933 277.658C162.964 277.637 163 277.626 163.038 277.626C163.075 277.626 163.112 277.637 163.142 277.658C163.491 277.872 166.534 279.772 166.534 280.8C166.535 280.895 166.509 280.99 166.46 281.072C166.411 281.155 166.34 281.224 166.255 281.271C166.114 281.362 165.954 281.421 165.786 281.442C165.618 281.463 165.447 281.445 165.288 281.39C164.702 281.108 164.227 280.645 163.936 280.072ZM163.421 278.249C164.058 279.79 164.782 280.817 165.401 281.031C165.509 281.07 165.625 281.083 165.739 281.068C165.853 281.053 165.961 281.011 166.055 280.945C166.151 280.885 166.168 280.825 166.168 280.783C166.133 280.226 164.599 279.045 163.387 278.24L163.421 278.249Z" fill="#1E2440"/>
<path d="M162.855 277.889C162.846 277.852 162.846 277.814 162.855 277.778C162.859 277.746 162.871 277.715 162.891 277.69C162.911 277.664 162.938 277.644 162.968 277.632C163.099 277.581 166.229 276.339 167.032 277.975C167.241 278.411 167.101 278.651 166.953 278.779C166.282 279.336 163.814 278.548 162.933 277.923L162.855 277.889ZM166.613 278.035C166.029 277.11 164.206 277.589 163.43 277.838C164.459 278.386 166.29 278.831 166.692 278.505C166.692 278.505 166.805 278.403 166.692 278.129C166.671 278.093 166.645 278.061 166.613 278.035Z" fill="#1E2440"/>
<path d="M231.263 147.253C231.263 147.253 223.912 187.354 218.645 210.187C213.178 233.936 175.185 269.773 175.185 269.773L164.721 260.672C164.721 260.672 192.468 225.092 196.496 201.257C200.856 175.265 204.859 142.031 204.859 142.031L231.263 147.253Z" fill="#8090B7"/>
<path d="M162.645 260.724L174.566 271.211L178.62 267.864L166.037 255.989L162.645 260.724Z" fill="#1E2440"/>
<path opacity="0.4" d="M162.645 260.724L174.566 271.211L178.62 267.864L166.037 255.989L162.645 260.724Z" fill="white"/>
<path d="M258.164 85.6722C258.164 85.6722 262.524 109.909 245.407 150.07L204.92 142.048C205.897 135.884 215.925 106.861 215.837 76.8884C220.505 76.927 225.166 77.2616 229.789 77.8901C235.596 78.7031 241.349 79.8465 247.02 81.3146C250.844 82.4808 254.57 83.9377 258.164 85.6722Z" fill="#1E2440"/>
<path opacity="0.2" d="M250.744 109.926C250.194 117.768 244.849 123.881 238.893 123.487C236.922 123.328 235.06 122.53 233.6 121.218L235.292 117.982C236.357 118.945 237.72 119.53 239.163 119.643C243.523 119.934 247.43 115.465 247.822 109.729L250.744 109.926Z" fill="#8090B7"/>
<path opacity="0.5" d="M250.744 109.926L247.822 109.729C247.931 108.229 247.781 106.72 247.378 105.269C247.022 103.92 246.397 102.654 245.538 101.545L247.622 98.7195C248.797 100.253 249.654 101.998 250.142 103.856C250.677 105.834 250.88 107.884 250.744 109.926Z" fill="white"/>
<path opacity="0.4" d="M247.648 98.7196L245.564 101.545C244.947 100.743 244.173 100.071 243.288 99.5671C242.471 99.0902 241.557 98.7978 240.611 98.711L240.881 94.867C242.17 94.9627 243.42 95.3463 244.535 95.9885C245.746 96.6888 246.804 97.6169 247.648 98.7196Z" fill="#8090B7"/>
<path opacity="0.2" d="M240.873 94.9013L240.602 98.7452C236.242 98.4542 232.344 102.932 231.952 108.668C231.69 112.392 232.963 115.953 235.292 117.982L233.6 121.218C230.417 118.436 228.673 113.573 229.031 108.471C229.571 100.629 234.917 94.5074 240.873 94.9013Z" fill="white"/>
<path opacity="0.2" d="M214.564 96.545C214.189 99.5585 213.753 102.538 213.282 105.372C216.666 103.831 221.287 95.6717 220.79 91.1771L214.564 96.545Z" fill="black"/>
<path d="M235.318 59.1838C235.318 64.8428 234.324 75.0306 229.702 77.8901C229.702 77.8901 231.263 84.1826 243.192 88.4632C249.043 85.8948 246.933 81.306 246.933 81.306C241.047 78.6263 242.128 74.1574 244.081 70.1764L235.318 59.1838Z" fill="#FF8B7B"/>
<path opacity="0.2" d="M238.928 63.6527L244.108 70.1336C243.641 71.0672 243.256 72.0381 242.957 73.0358C240.672 72.2311 237.943 69.0463 238.195 66.5636C238.254 65.5571 238.502 64.5701 238.928 63.6527Z" fill="black"/>
<path d="M252.383 57.54C253.464 54.9716 253.621 52.0266 251.511 50.0661C251.642 48.3538 252.932 46.4104 254.72 44.878C257.292 43.4825 262.472 53.1995 252.383 57.54Z" fill="#263238"/>
<path d="M255.409 49.2271C255.177 49.2271 254.956 49.1369 254.792 48.9763C254.629 48.8158 254.537 48.598 254.537 48.371C254.537 48.1439 254.629 47.9261 254.792 47.7656C254.956 47.605 255.177 47.5148 255.409 47.5148C255.583 47.5148 259.559 47.2922 260.841 42.7205C260.872 42.612 260.923 42.5105 260.994 42.4217C261.064 42.3328 261.152 42.2585 261.251 42.2028C261.351 42.1472 261.461 42.1113 261.574 42.0973C261.688 42.0833 261.803 42.0915 261.914 42.1213C262.024 42.151 262.128 42.2019 262.218 42.271C262.309 42.34 262.385 42.4259 262.441 42.5237C262.498 42.6214 262.534 42.7292 262.549 42.8409C262.563 42.9525 262.555 43.0658 262.524 43.1743C262.15 44.7852 261.266 46.2385 259.999 47.3258C258.731 48.4131 257.146 49.0787 255.47 49.2271H255.409Z" fill="#263238"/>
<path d="M236.312 50.8623C235.257 58.3191 234.254 62.634 237.271 67.1714C241.806 74.0204 251.764 72.4451 255.06 65.4592C258.033 59.1581 259.254 48.0199 252.514 43.628C251.032 42.654 249.322 42.0678 247.545 41.9251C245.767 41.7824 243.983 42.0879 242.36 42.8126C240.736 43.5374 239.329 44.6573 238.271 46.066C237.212 47.4748 236.538 49.1258 236.312 50.8623Z" fill="#FF8B7B"/>
<path d="M236.094 57.463C236.974 57.4938 237.849 57.5998 238.71 57.7797C238.928 57.8302 239.154 57.8295 239.371 57.7779C239.589 57.7262 239.791 57.6249 239.96 57.4823C240.13 57.3396 240.264 57.1597 240.349 56.957C240.435 56.7543 240.471 56.5346 240.454 56.3158C240.314 54.4922 240.812 52.6344 242.521 51.8297C242.691 50.4604 242.343 49.0774 241.544 47.9429C241.479 47.7962 241.457 47.6346 241.48 47.4762C241.504 47.3179 241.572 47.1692 241.678 47.0471C241.783 46.925 241.921 46.8343 242.076 46.7853C242.231 46.7363 242.397 46.731 242.556 46.77C246.34 48.2083 252.052 50.4684 254.92 49.0045C258.644 47.1039 262.908 40.3234 257.284 39.8525C254.589 39.6385 254.894 38.1403 252.863 36.7705C250.831 35.4007 245.887 35.5805 242.111 37.4126C238.335 39.2447 232.519 35.8459 230.295 38.5512C228.656 40.5289 229.685 43.3284 229.685 43.3284C229.685 43.3284 226.45 43.7564 225.9 49.7579C225.49 54.2439 232.815 62.7367 235.1 63.6442C236.417 59.004 236.094 57.463 236.094 57.463Z" fill="#263238"/>
<path d="M230.757 45.4601C230.577 45.4594 230.401 45.4039 230.255 45.3012C230.108 45.1985 229.997 45.0536 229.938 44.8865C229.83 44.5672 229.655 44.274 229.423 44.0269C229.19 43.7797 228.907 43.5842 228.591 43.4536C228.276 43.3231 227.935 43.2603 227.593 43.2697C227.251 43.2792 226.914 43.3604 226.607 43.5082C226.391 43.5725 226.158 43.5521 225.957 43.4512C225.756 43.3503 225.602 43.1769 225.529 42.9673C225.455 42.7578 225.468 42.5284 225.563 42.3275C225.658 42.1266 225.829 41.9698 226.04 41.8901C226.588 41.6737 227.175 41.569 227.766 41.5823C228.356 41.5955 228.938 41.7265 229.475 41.9671C230.447 42.478 231.197 43.3176 231.586 44.33C231.661 44.5446 231.646 44.7796 231.544 44.9835C231.443 45.1874 231.263 45.3434 231.045 45.4173C230.952 45.4473 230.855 45.4618 230.757 45.4601Z" fill="#263238"/>
<path d="M247.308 55.1771C247.186 55.7764 247.404 56.3243 247.805 56.4014C248.206 56.4784 248.633 56.0589 248.755 55.4596C248.877 54.8603 248.651 54.3124 248.25 54.2354C247.849 54.1583 247.43 54.5778 247.308 55.1771Z" fill="#263238"/>
<path d="M254.214 56.5469C254.092 57.1462 254.319 57.6941 254.711 57.7712C255.104 57.8482 255.54 57.4287 255.662 56.8294C255.784 56.2302 255.557 55.6822 255.165 55.5966C254.772 55.511 254.336 55.9391 254.214 56.5469Z" fill="#263238"/>
<path d="M251.956 56.4099C252.309 58.3881 252.937 60.3093 253.822 62.1203C252.54 62.8908 250.796 62.1203 250.796 62.1203L251.956 56.4099Z" fill="#FF5652"/>
<path d="M248.677 63.3531C247.852 63.2118 247.074 62.8784 246.408 62.3809C245.742 61.8833 245.207 61.2361 244.849 60.4936C244.831 60.4504 244.831 60.4022 244.849 60.3591C244.867 60.3159 244.901 60.2813 244.945 60.2625C244.991 60.2454 245.042 60.2465 245.088 60.2657C245.133 60.2848 245.17 60.3205 245.189 60.3652C245.532 61.0478 246.034 61.6418 246.653 62.0997C247.272 62.5577 247.992 62.8667 248.755 63.0021C248.803 63.0123 248.844 63.0406 248.87 63.0807C248.896 63.1209 248.905 63.1696 248.895 63.2161C248.884 63.2626 248.856 63.3032 248.815 63.3289C248.774 63.3546 248.724 63.3633 248.677 63.3531Z" fill="#263238"/>
<path d="M248.895 51.7355C248.962 51.7828 249.009 51.8531 249.026 51.9324C249.05 52.0232 249.037 52.1197 248.99 52.2013C248.943 52.2828 248.865 52.3431 248.773 52.369C248.216 52.5339 247.627 52.5656 247.055 52.4613C246.483 52.3571 245.945 52.1199 245.485 51.7698C245.449 51.7383 245.42 51.7001 245.399 51.6575C245.378 51.6148 245.366 51.5686 245.363 51.5213C245.36 51.474 245.367 51.4266 245.382 51.3818C245.398 51.337 245.423 51.2958 245.455 51.2604C245.487 51.2249 245.526 51.1961 245.569 51.1754C245.613 51.1547 245.66 51.1427 245.708 51.1399C245.756 51.1371 245.804 51.1437 245.85 51.1592C245.896 51.1747 245.938 51.1989 245.974 51.2304C246.341 51.506 246.771 51.6905 247.226 51.768C247.682 51.8455 248.149 51.8138 248.59 51.6756C248.696 51.6554 248.805 51.6769 248.895 51.7355Z" fill="#263238"/>
<path d="M258.112 53.3964C258.041 53.4004 257.97 53.3829 257.909 53.3462C257.848 53.3094 257.8 53.2552 257.772 53.1909C257.585 52.7787 257.302 52.4152 256.946 52.1298C256.591 51.8443 256.171 51.6447 255.723 51.5472C255.627 51.5344 255.54 51.4849 255.481 51.4095C255.422 51.3341 255.396 51.2389 255.409 51.1448C255.424 51.05 255.476 50.9647 255.554 50.9072C255.632 50.8496 255.73 50.8243 255.827 50.8366C256.398 50.9485 256.933 51.1926 257.388 51.5485C257.843 51.9044 258.205 52.3618 258.443 52.8827C258.464 52.9254 258.476 52.9717 258.478 53.0189C258.481 53.0662 258.474 53.1134 258.457 53.1579C258.441 53.2025 258.416 53.2434 258.384 53.2785C258.352 53.3135 258.312 53.3419 258.269 53.3621C258.22 53.386 258.166 53.3978 258.112 53.3964Z" fill="#263238"/>
<path d="M221.915 90.1155C220.101 91.9733 218.139 93.9681 216.3 95.9457C214.46 97.9234 212.576 99.9267 210.78 101.939C207.186 105.904 203.81 110.053 200.665 114.369L199.566 115.936C199.339 116.248 199.143 116.58 198.982 116.929C198.612 117.746 198.365 118.611 198.249 119.498C198.018 121.731 198.159 123.987 198.668 126.175C199.843 131.221 201.638 136.108 204.013 140.73L199.156 144.051C198.11 142.861 197.229 141.748 196.348 140.541C195.467 139.334 194.604 138.118 193.872 136.843C192.269 134.251 190.931 131.509 189.878 128.658C188.707 125.536 188.116 122.234 188.134 118.907C188.156 117.01 188.473 115.128 189.076 113.325C189.406 112.371 189.823 111.448 190.323 110.568L191.482 108.599C192.241 107.306 193.052 106.099 193.854 104.858C194.656 103.617 195.52 102.444 196.392 101.279C198.092 98.9079 199.88 96.6563 201.746 94.4304C203.612 92.2044 205.495 90.0556 207.457 87.9495C209.419 85.8434 211.373 83.7973 213.561 81.7426L221.915 90.1155Z" fill="#FF8B7B"/>
<path d="M215.794 76.8884C208.408 77.1538 197.412 97.1614 197.412 97.1614C198.86 100.586 205.182 105.997 208.539 106.878C208.539 106.878 217.32 101.391 222.098 93.2746C227.104 84.7562 223.703 76.6059 215.794 76.8884Z" fill="#1E2440"/>
<path d="M202.086 139.103L210.248 140.601L203.734 147.827C203.734 147.827 198.153 145.404 198.145 142.442L202.086 139.103Z" fill="#FF8B7B"/>
<path d="M212.576 148.195L210.911 149.907C210.34 150.482 209.57 150.825 208.753 150.866C207.937 150.907 207.134 150.644 206.507 150.13L203.734 147.861L210.248 140.635L212.864 144.111C213.311 144.717 213.527 145.458 213.474 146.204C213.421 146.951 213.104 147.655 212.576 148.195Z" fill="#FF8B7B"/>
<path d="M231.952 56.0332C231.936 56.9716 232.109 57.9038 232.46 58.7764C232.812 59.6491 233.336 60.445 234.001 61.1186C235.789 62.9165 237.96 61.6409 238.518 59.3293C239.033 57.2489 238.71 53.8073 236.399 52.8827C234.088 51.9581 232.039 53.7132 231.952 56.0332Z" fill="#FF8B7B"/>
<path d="M80.2414 235.836H66.9172C64.8656 235.836 63.2025 237.469 63.2025 239.483V262.504C63.2025 264.519 64.8656 266.152 66.9172 266.152H80.2414C82.293 266.152 83.9561 264.519 83.9561 262.504V239.483C83.9561 237.469 82.293 235.836 80.2414 235.836Z" fill="#1E2440"/>
<path d="M104.317 219.707H90.9932C88.9416 219.707 87.2784 221.34 87.2784 223.354V262.504C87.2784 264.519 88.9416 266.152 90.9932 266.152H104.317C106.369 266.152 108.032 264.519 108.032 262.504V223.354C108.032 221.34 106.369 219.707 104.317 219.707Z" fill="#1E2440"/>
<path d="M128.384 226.71H115.06C113.009 226.71 111.346 228.343 111.346 230.357V262.513C111.346 264.527 113.009 266.16 115.06 266.16H128.384C130.436 266.16 132.099 264.527 132.099 262.513V230.357C132.099 228.343 130.436 226.71 128.384 226.71Z" fill="#1E2440"/>
<path d="M152.452 216.719H139.128C137.076 216.719 135.413 218.352 135.413 220.366V262.513C135.413 264.527 137.076 266.16 139.128 266.16H152.452C154.503 266.16 156.166 264.527 156.166 262.513V220.366C156.166 218.352 154.503 216.719 152.452 216.719Z" fill="#1E2440"/>
<path d="M176.519 206.163H163.195C161.143 206.163 159.48 207.796 159.48 209.81V262.513C159.48 264.527 161.143 266.16 163.195 266.16H176.519C178.57 266.16 180.234 264.527 180.234 262.513V209.81C180.234 207.796 178.57 206.163 176.519 206.163Z" fill="#1E2440"/>
<path d="M200.595 195.033H187.271C185.219 195.033 183.556 196.666 183.556 198.68V262.513C183.556 264.527 185.219 266.16 187.271 266.16H200.595C202.646 266.16 204.31 264.527 204.31 262.513V198.68C204.31 196.666 202.646 195.033 200.595 195.033Z" fill="#1E2440"/>
<path d="M224.662 211.865H211.338C209.286 211.865 207.623 213.498 207.623 215.512V262.504C207.623 264.519 209.286 266.152 211.338 266.152H224.662C226.714 266.152 228.377 264.519 228.377 262.504V215.512C228.377 213.498 226.714 211.865 224.662 211.865Z" fill="#1E2440"/>
<path d="M248.729 190.179H235.405C233.353 190.179 231.69 191.812 231.69 193.826V262.513C231.69 264.527 233.353 266.16 235.405 266.16H248.729C250.781 266.16 252.444 264.527 252.444 262.513V193.826C252.444 191.812 250.781 190.179 248.729 190.179Z" fill="#1E2440"/>
<path d="M272.796 183.613H259.472C257.421 183.613 255.758 185.246 255.758 187.26V262.504C255.758 264.519 257.421 266.152 259.472 266.152H272.796C274.848 266.152 276.511 264.519 276.511 262.504V187.26C276.511 185.246 274.848 183.613 272.796 183.613Z" fill="#1E2440"/>
<path d="M296.872 187.611H283.548C281.497 187.611 279.833 189.244 279.833 191.258V262.513C279.833 264.527 281.497 266.16 283.548 266.16H296.872C298.924 266.16 300.587 264.527 300.587 262.513V191.258C300.587 189.244 298.924 187.611 296.872 187.611Z" fill="#1E2440"/>
<path d="M320.939 164.247H307.615C305.564 164.247 303.901 165.88 303.901 167.894V262.504C303.901 264.519 305.564 266.152 307.615 266.152H320.939C322.991 266.152 324.654 264.519 324.654 262.504V167.894C324.654 165.88 322.991 164.247 320.939 164.247Z" fill="#1E2440"/>
<path d="M345.007 173.956H331.683C329.631 173.956 327.968 175.588 327.968 177.603V262.513C327.968 264.527 329.631 266.16 331.683 266.16H345.007C347.058 266.16 348.722 264.527 348.722 262.513V177.603C348.722 175.588 347.058 173.956 345.007 173.956Z" fill="#1E2440"/>
<path d="M369.074 150.318H355.75C353.698 150.318 352.035 151.951 352.035 153.965V262.513C352.035 264.527 353.698 266.16 355.75 266.16H369.074C371.126 266.16 372.789 264.527 372.789 262.513V153.965C372.789 151.951 371.126 150.318 369.074 150.318Z" fill="#1E2440"/>
<path d="M73.5881 249.346C73.5184 249.338 73.4514 249.315 73.3924 249.278C73.3334 249.241 73.284 249.191 73.248 249.132C73.1818 249.039 73.1547 248.925 73.1726 248.813C73.1905 248.701 73.2519 248.601 73.3439 248.532L74.399 247.779C74.4934 247.714 74.6097 247.688 74.7236 247.705C74.8375 247.723 74.9399 247.783 75.0094 247.873C75.0445 247.918 75.0699 247.97 75.0841 248.025C75.0983 248.08 75.101 248.137 75.092 248.193C75.083 248.249 75.0626 248.303 75.0319 248.351C75.0012 248.399 74.961 248.44 74.9135 248.473L73.8584 249.226C73.7841 249.294 73.6891 249.336 73.5881 249.346Z" fill="#263238"/>
<path d="M78.1835 246.058C78.1135 246.059 78.0442 246.044 77.9819 246.012C77.9195 245.981 77.866 245.935 77.826 245.879C77.7598 245.786 77.7327 245.672 77.7506 245.56C77.7685 245.448 77.8299 245.347 77.9219 245.279L80.0496 243.764C80.096 243.731 80.1485 243.707 80.2043 243.694C80.2601 243.68 80.318 243.678 80.3747 243.687C80.4313 243.696 80.4857 243.715 80.5347 243.745C80.5836 243.774 80.6262 243.813 80.66 243.858C80.6938 243.904 80.7181 243.955 80.7315 244.01C80.745 244.065 80.7474 244.122 80.7384 244.177C80.7295 244.233 80.7096 244.286 80.6796 244.334C80.6497 244.382 80.6104 244.424 80.5641 244.457L78.48 245.973C78.4388 246.006 78.3914 246.03 78.3405 246.045C78.2896 246.059 78.2362 246.064 78.1835 246.058ZM83.8428 242.009C83.7742 242.009 83.7067 241.992 83.646 241.961C83.5853 241.929 83.5332 241.884 83.494 241.829C83.4283 241.738 83.4015 241.625 83.4194 241.515C83.4373 241.404 83.4985 241.305 83.5899 241.238L85.7176 239.714C85.8106 239.65 85.9255 239.624 86.038 239.641C86.1504 239.659 86.2514 239.719 86.3193 239.809C86.3543 239.854 86.3797 239.905 86.3939 239.96C86.4081 240.015 86.4108 240.072 86.4018 240.128C86.3929 240.184 86.3724 240.238 86.3417 240.286C86.3111 240.334 86.2708 240.376 86.2233 240.408L84.1044 241.923C84.0299 241.981 83.9374 242.011 83.8428 242.009ZM89.5108 237.959C89.442 237.959 89.3742 237.943 89.3123 237.913C89.2504 237.884 89.1961 237.841 89.1533 237.788C89.087 237.696 89.06 237.581 89.0779 237.469C89.0958 237.358 89.1572 237.257 89.2492 237.189L91.3769 235.665C91.4705 235.598 91.5875 235.57 91.7019 235.588C91.8164 235.606 91.919 235.667 91.9873 235.759C92.0555 235.851 92.0837 235.966 92.0657 236.078C92.0477 236.191 91.985 236.291 91.8913 236.358L89.7637 237.882C89.6944 237.948 89.6059 237.99 89.5108 238.002V237.959ZM95.1701 233.91C95.0793 233.908 94.9914 233.879 94.9185 233.825C94.8457 233.772 94.7915 233.698 94.7637 233.613C94.7358 233.528 94.7357 233.437 94.7632 233.352C94.7907 233.267 94.8445 233.193 94.9172 233.139L97.0449 231.624C97.0907 231.591 97.1426 231.568 97.1976 231.555C97.2526 231.542 97.3097 231.54 97.3656 231.549C97.4214 231.558 97.475 231.577 97.5232 231.606C97.5714 231.635 97.6133 231.673 97.6466 231.718C97.6798 231.763 97.7036 231.814 97.7168 231.868C97.7299 231.922 97.7321 231.978 97.7232 232.033C97.7143 232.088 97.6945 232.141 97.6649 232.188C97.6353 232.235 97.5964 232.276 97.5506 232.309L95.4317 233.833C95.3544 233.884 95.2632 233.911 95.1701 233.91ZM100.838 229.869C100.768 229.868 100.7 229.851 100.638 229.82C100.576 229.789 100.522 229.744 100.481 229.689C100.447 229.643 100.423 229.591 100.41 229.536C100.398 229.481 100.396 229.424 100.406 229.368C100.415 229.312 100.436 229.259 100.467 229.211C100.498 229.164 100.538 229.122 100.585 229.09L102.704 227.575C102.751 227.541 102.803 227.518 102.859 227.504C102.915 227.491 102.973 227.489 103.029 227.498C103.086 227.506 103.14 227.526 103.189 227.555C103.238 227.585 103.281 227.623 103.315 227.669C103.348 227.714 103.373 227.766 103.386 227.821C103.4 227.875 103.402 227.932 103.393 227.988C103.384 228.044 103.364 228.097 103.334 228.145C103.304 228.193 103.265 228.235 103.219 228.268L101.091 229.783C101.017 229.836 100.929 229.866 100.838 229.869ZM106.506 225.82C106.436 225.821 106.367 225.805 106.304 225.773C106.242 225.742 106.189 225.696 106.149 225.64C106.082 225.547 106.055 225.433 106.073 225.321C106.091 225.209 106.152 225.109 106.244 225.04L108.372 223.525C108.465 223.461 108.58 223.434 108.693 223.452C108.805 223.47 108.906 223.53 108.974 223.619C109.009 223.664 109.034 223.716 109.048 223.771C109.063 223.826 109.065 223.883 109.056 223.939C109.047 223.995 109.027 224.049 108.996 224.097C108.966 224.145 108.925 224.186 108.878 224.219L106.759 225.734C106.687 225.79 106.598 225.82 106.506 225.82ZM112.165 221.77C112.097 221.771 112.029 221.754 111.968 221.723C111.907 221.692 111.855 221.646 111.817 221.59C111.781 221.545 111.756 221.494 111.742 221.439C111.728 221.384 111.725 221.327 111.734 221.271C111.743 221.215 111.763 221.161 111.794 221.113C111.825 221.065 111.865 221.023 111.912 220.991L114.031 219.476C114.125 219.409 114.242 219.381 114.356 219.399C114.471 219.416 114.574 219.478 114.642 219.57C114.71 219.662 114.738 219.777 114.72 219.889C114.702 220.001 114.64 220.102 114.546 220.169L112.418 221.684C112.342 221.729 112.253 221.747 112.165 221.736V221.77ZM117.833 217.721C117.742 217.721 117.653 217.692 117.578 217.64C117.504 217.587 117.449 217.513 117.42 217.428C117.391 217.343 117.39 217.251 117.417 217.165C117.444 217.079 117.499 217.004 117.572 216.95L119.699 215.426C119.793 215.359 119.91 215.332 120.024 215.349C120.139 215.367 120.242 215.428 120.31 215.52C120.378 215.612 120.406 215.727 120.388 215.84C120.37 215.952 120.308 216.053 120.214 216.12L118.086 217.635C118.014 217.691 117.925 217.721 117.833 217.721ZM123.493 213.671C123.402 213.669 123.314 213.64 123.241 213.587C123.168 213.534 123.114 213.459 123.086 213.374C123.058 213.29 123.058 213.198 123.086 213.113C123.113 213.029 123.167 212.954 123.24 212.901L125.359 211.385C125.405 211.351 125.457 211.326 125.513 211.312C125.569 211.298 125.627 211.295 125.684 211.304C125.741 211.313 125.796 211.333 125.845 211.363C125.894 211.393 125.936 211.433 125.969 211.479C126.035 211.571 126.062 211.684 126.044 211.794C126.026 211.904 125.965 212.004 125.873 212.07L123.746 213.594C123.671 213.645 123.583 213.672 123.493 213.671ZM129.161 209.622C129.069 209.622 128.98 209.593 128.906 209.541C128.831 209.488 128.776 209.414 128.747 209.329C128.718 209.244 128.717 209.152 128.744 209.066C128.772 208.98 128.826 208.905 128.899 208.851L131.027 207.336C131.073 207.301 131.125 207.277 131.181 207.263C131.237 207.249 131.295 207.246 131.352 207.255C131.409 207.264 131.464 207.284 131.513 207.314C131.562 207.344 131.604 207.383 131.637 207.43C131.703 207.523 131.73 207.637 131.712 207.749C131.695 207.861 131.633 207.961 131.541 208.029L129.414 209.545C129.339 209.594 129.251 209.621 129.161 209.622ZM134.82 205.581C134.751 205.58 134.684 205.563 134.624 205.532C134.563 205.501 134.511 205.456 134.471 205.401C134.436 205.356 134.411 205.304 134.396 205.249C134.382 205.194 134.38 205.137 134.389 205.081C134.398 205.025 134.418 204.972 134.449 204.924C134.479 204.876 134.52 204.834 134.567 204.802L136.686 203.286C136.732 203.253 136.785 203.229 136.841 203.216C136.896 203.203 136.954 203.2 137.011 203.209C137.068 203.218 137.122 203.237 137.171 203.267C137.22 203.296 137.263 203.335 137.296 203.381C137.363 203.473 137.39 203.587 137.372 203.699C137.354 203.811 137.292 203.912 137.2 203.98L135.082 205.47C135.007 205.531 134.916 205.57 134.82 205.581ZM140.488 201.531C140.418 201.532 140.349 201.517 140.286 201.485C140.224 201.454 140.17 201.408 140.13 201.352C140.064 201.259 140.037 201.145 140.055 201.033C140.073 200.921 140.134 200.82 140.226 200.752L142.354 199.237C142.4 199.204 142.453 199.18 142.509 199.167C142.564 199.153 142.622 199.151 142.679 199.16C142.736 199.169 142.79 199.188 142.839 199.218C142.888 199.247 142.931 199.286 142.964 199.331C142.998 199.377 143.022 199.428 143.036 199.483C143.049 199.538 143.052 199.595 143.043 199.65C143.034 199.706 143.014 199.759 142.984 199.807C142.954 199.855 142.915 199.897 142.868 199.93L140.741 201.446C140.669 201.502 140.58 201.532 140.488 201.531ZM146.147 197.482C146.079 197.482 146.011 197.465 145.95 197.434C145.89 197.403 145.838 197.357 145.798 197.302C145.764 197.258 145.738 197.207 145.724 197.153C145.71 197.098 145.707 197.042 145.716 196.986C145.725 196.931 145.746 196.878 145.776 196.831C145.807 196.784 145.847 196.743 145.894 196.711L148.013 195.187C148.107 195.12 148.224 195.093 148.338 195.11C148.453 195.128 148.555 195.19 148.624 195.282C148.692 195.374 148.72 195.488 148.702 195.601C148.684 195.713 148.621 195.814 148.528 195.881L146.409 197.396C146.334 197.452 146.242 197.483 146.147 197.482ZM151.815 193.432C151.746 193.433 151.678 193.418 151.616 193.388C151.554 193.359 151.5 193.315 151.458 193.261C151.391 193.169 151.364 193.054 151.382 192.943C151.4 192.831 151.462 192.73 151.554 192.662L153.681 191.138C153.775 191.071 153.892 191.043 154.006 191.061C154.121 191.079 154.223 191.14 154.292 191.232C154.36 191.324 154.388 191.439 154.37 191.551C154.352 191.664 154.289 191.765 154.196 191.831L152.068 193.355C151.993 193.405 151.905 193.432 151.815 193.432ZM157.474 189.383C157.407 189.382 157.34 189.367 157.28 189.337C157.22 189.307 157.167 189.264 157.126 189.212C157.092 189.166 157.067 189.115 157.054 189.06C157.04 189.005 157.038 188.948 157.047 188.893C157.056 188.837 157.076 188.783 157.106 188.735C157.136 188.687 157.175 188.646 157.222 188.612L159.341 187.097C159.386 187.056 159.439 187.025 159.497 187.006C159.555 186.987 159.617 186.98 159.678 186.986C159.739 186.991 159.798 187.01 159.851 187.039C159.904 187.069 159.951 187.109 159.987 187.158C160.023 187.206 160.049 187.262 160.062 187.32C160.075 187.379 160.075 187.44 160.063 187.499C160.051 187.558 160.026 187.613 159.99 187.662C159.954 187.711 159.908 187.752 159.855 187.782L157.736 189.306C157.658 189.356 157.567 189.383 157.474 189.383ZM163.142 185.342C163.073 185.341 163.004 185.324 162.942 185.293C162.88 185.262 162.826 185.217 162.785 185.162C162.719 185.07 162.692 184.955 162.71 184.844C162.727 184.732 162.789 184.631 162.881 184.563L165.009 183.048C165.055 183.014 165.107 182.99 165.163 182.977C165.219 182.964 165.277 182.962 165.334 182.97C165.39 182.979 165.445 182.999 165.494 183.028C165.543 183.058 165.585 183.096 165.619 183.142C165.685 183.234 165.712 183.349 165.694 183.461C165.676 183.572 165.615 183.673 165.523 183.741L163.395 185.256C163.322 185.309 163.234 185.339 163.142 185.342Z" fill="#263238"/>
<path d="M168.802 181.293C168.734 181.29 168.667 181.273 168.606 181.242C168.546 181.211 168.494 181.167 168.453 181.113C168.419 181.067 168.395 181.016 168.381 180.961C168.368 180.906 168.365 180.849 168.374 180.794C168.383 180.738 168.403 180.685 168.433 180.636C168.463 180.588 168.502 180.547 168.549 180.514L169.604 179.76C169.656 179.722 169.716 179.696 169.779 179.685C169.842 179.673 169.908 179.675 169.97 179.692L171.235 180.008C171.35 180.037 171.45 180.109 171.511 180.209C171.572 180.31 171.59 180.43 171.562 180.544C171.533 180.657 171.459 180.755 171.357 180.815C171.255 180.875 171.132 180.893 171.017 180.865L169.953 180.599L169.081 181.233C168.996 181.281 168.899 181.302 168.802 181.293Z" fill="#263238"/>
<path d="M266.1 204.922H266.03L263.553 204.297C263.438 204.268 263.338 204.196 263.277 204.096C263.216 203.995 263.197 203.875 263.226 203.762C263.255 203.648 263.329 203.55 263.431 203.49C263.533 203.43 263.656 203.412 263.771 203.441L266.178 204.048C266.252 204.049 266.324 204.069 266.388 204.105C266.452 204.141 266.506 204.192 266.544 204.254C266.576 204.299 266.597 204.349 266.608 204.403C266.618 204.456 266.617 204.511 266.605 204.565C266.593 204.618 266.569 204.668 266.536 204.711C266.503 204.755 266.462 204.792 266.413 204.819C266.318 204.876 266.211 204.911 266.1 204.922ZM259.42 203.209H259.307L256.76 202.567C256.703 202.553 256.649 202.528 256.602 202.494C256.554 202.459 256.514 202.416 256.484 202.366C256.454 202.317 256.434 202.261 256.425 202.204C256.416 202.147 256.419 202.088 256.433 202.032C256.448 201.976 256.473 201.923 256.508 201.877C256.543 201.83 256.588 201.791 256.638 201.761C256.689 201.731 256.745 201.711 256.803 201.703C256.862 201.694 256.921 201.697 256.978 201.711L259.525 202.353C259.64 202.367 259.746 202.425 259.818 202.515C259.89 202.605 259.922 202.719 259.908 202.833C259.894 202.946 259.835 203.05 259.744 203.12C259.652 203.191 259.536 203.223 259.42 203.209ZM270.006 202.738C269.927 202.74 269.85 202.719 269.782 202.68C269.715 202.641 269.659 202.584 269.622 202.516C269.568 202.417 269.555 202.301 269.586 202.192C269.617 202.084 269.689 201.991 269.788 201.934L272.064 200.65C272.166 200.594 272.286 200.579 272.399 200.61C272.511 200.64 272.607 200.713 272.666 200.812C272.722 200.911 272.736 201.028 272.705 201.137C272.674 201.246 272.6 201.339 272.5 201.394L270.224 202.679C270.158 202.72 270.084 202.747 270.006 202.756V202.738ZM252.627 201.489H252.514L249.968 200.846C249.852 200.818 249.752 200.746 249.691 200.645C249.63 200.545 249.612 200.425 249.641 200.311C249.669 200.198 249.743 200.1 249.845 200.04C249.947 199.98 250.07 199.962 250.186 199.99L252.732 200.632C252.847 200.646 252.953 200.704 253.025 200.794C253.097 200.884 253.129 200.998 253.115 201.112C253.102 201.225 253.042 201.329 252.951 201.399C252.859 201.47 252.743 201.502 252.627 201.489ZM245.834 199.776H245.721L243.175 199.134C243.064 199.104 242.969 199.033 242.91 198.935C242.852 198.838 242.834 198.722 242.861 198.612C242.875 198.557 242.9 198.506 242.934 198.461C242.969 198.416 243.012 198.378 243.061 198.349C243.111 198.321 243.166 198.302 243.222 198.294C243.279 198.286 243.337 198.29 243.393 198.304L245.939 198.946C246.055 198.959 246.16 199.018 246.232 199.108C246.304 199.197 246.336 199.312 246.323 199.425C246.309 199.539 246.249 199.642 246.158 199.713C246.066 199.784 245.95 199.816 245.834 199.802V199.776ZM276.093 199.323C276.014 199.324 275.937 199.304 275.869 199.264C275.801 199.225 275.746 199.168 275.709 199.1C275.652 199.001 275.638 198.884 275.669 198.775C275.7 198.666 275.774 198.574 275.875 198.518L278.151 197.234C278.201 197.205 278.256 197.186 278.314 197.179C278.372 197.171 278.43 197.175 278.486 197.19C278.542 197.206 278.595 197.232 278.64 197.267C278.686 197.302 278.724 197.346 278.752 197.396C278.806 197.496 278.819 197.612 278.789 197.72C278.758 197.829 278.685 197.921 278.587 197.978L276.302 199.263C276.239 199.302 276.167 199.326 276.093 199.331V199.323ZM239.041 198.056H238.937L236.39 197.413C236.335 197.399 236.283 197.375 236.237 197.341C236.191 197.307 236.152 197.265 236.123 197.216C236.094 197.168 236.075 197.114 236.067 197.058C236.059 197.003 236.062 196.946 236.077 196.891C236.09 196.836 236.114 196.784 236.148 196.738C236.182 196.693 236.226 196.654 236.275 196.625C236.325 196.597 236.38 196.578 236.438 196.571C236.495 196.563 236.553 196.568 236.608 196.583L239.155 197.225C239.212 197.232 239.267 197.251 239.317 197.279C239.367 197.307 239.411 197.345 239.446 197.39C239.482 197.435 239.507 197.486 239.523 197.541C239.538 197.595 239.541 197.653 239.534 197.709C239.527 197.765 239.508 197.819 239.479 197.868C239.45 197.917 239.412 197.961 239.366 197.995C239.32 198.03 239.268 198.055 239.213 198.07C239.157 198.085 239.099 198.088 239.041 198.081V198.056ZM232.248 196.343H232.144L229.598 195.701C229.482 195.673 229.383 195.6 229.321 195.5C229.26 195.4 229.242 195.28 229.271 195.166C229.299 195.053 229.373 194.955 229.475 194.895C229.578 194.835 229.7 194.817 229.816 194.845L232.362 195.487C232.419 195.494 232.474 195.513 232.524 195.541C232.574 195.569 232.618 195.607 232.654 195.652C232.689 195.697 232.715 195.748 232.73 195.803C232.745 195.858 232.749 195.915 232.741 195.971C232.734 196.027 232.715 196.081 232.686 196.13C232.657 196.18 232.619 196.223 232.573 196.257C232.528 196.292 232.475 196.317 232.42 196.332C232.364 196.347 232.306 196.351 232.248 196.343ZM282.17 195.907C282.093 195.906 282.018 195.885 281.952 195.846C281.886 195.807 281.832 195.751 281.796 195.684C281.738 195.586 281.723 195.47 281.752 195.361C281.781 195.252 281.853 195.159 281.952 195.102L284.237 193.818C284.287 193.789 284.342 193.771 284.399 193.763C284.456 193.756 284.513 193.76 284.569 193.775C284.624 193.79 284.676 193.816 284.721 193.852C284.766 193.887 284.803 193.931 284.83 193.98C284.86 194.028 284.879 194.082 284.887 194.138C284.895 194.193 284.892 194.25 284.877 194.304C284.862 194.358 284.837 194.409 284.802 194.454C284.767 194.498 284.723 194.535 284.673 194.563L282.388 195.847C282.322 195.883 282.247 195.904 282.17 195.907ZM225.49 194.622H225.386L222.84 193.98C222.724 193.952 222.625 193.88 222.563 193.779C222.502 193.679 222.484 193.559 222.513 193.445C222.541 193.332 222.615 193.234 222.717 193.174C222.82 193.114 222.942 193.096 223.058 193.124L225.604 193.766C225.719 193.781 225.824 193.84 225.896 193.931C225.967 194.022 225.998 194.137 225.983 194.25C225.968 194.364 225.908 194.467 225.815 194.536C225.723 194.606 225.606 194.637 225.49 194.622ZM218.706 192.91H218.593L216.047 192.268C215.931 192.24 215.832 192.167 215.77 192.067C215.709 191.967 215.691 191.847 215.72 191.733C215.749 191.619 215.822 191.522 215.924 191.462C216.027 191.401 216.149 191.384 216.265 191.412L218.811 192.054C218.868 192.061 218.924 192.079 218.974 192.106C219.024 192.134 219.068 192.171 219.104 192.216C219.14 192.26 219.166 192.311 219.181 192.366C219.197 192.42 219.201 192.477 219.195 192.534C219.188 192.59 219.17 192.644 219.141 192.693C219.113 192.743 219.075 192.786 219.03 192.821C218.985 192.856 218.933 192.882 218.877 192.897C218.822 192.913 218.764 192.917 218.706 192.91ZM288.292 192.491C288.215 192.49 288.139 192.469 288.073 192.43C288.007 192.391 287.953 192.335 287.917 192.268C287.887 192.22 287.868 192.167 287.86 192.111C287.852 192.055 287.855 191.999 287.87 191.944C287.885 191.89 287.91 191.839 287.945 191.795C287.98 191.75 288.024 191.713 288.074 191.686L290.359 190.402C290.408 190.373 290.463 190.355 290.52 190.347C290.577 190.34 290.635 190.344 290.69 190.359C290.746 190.374 290.797 190.4 290.842 190.436C290.887 190.471 290.924 190.515 290.952 190.564C290.981 190.613 291 190.666 291.008 190.722C291.017 190.777 291.013 190.834 290.998 190.888C290.984 190.942 290.958 190.993 290.923 191.038C290.888 191.082 290.844 191.119 290.795 191.147L288.51 192.431C288.432 192.47 288.345 192.488 288.257 192.482L288.292 192.491ZM211.896 191.181H211.783L209.236 190.539C209.121 190.51 209.021 190.438 208.96 190.338C208.899 190.237 208.88 190.117 208.909 190.004C208.938 189.89 209.012 189.793 209.114 189.732C209.216 189.672 209.339 189.654 209.454 189.683L212.001 190.325C212.116 190.338 212.222 190.396 212.294 190.486C212.366 190.576 212.398 190.691 212.384 190.804C212.37 190.918 212.311 191.021 212.22 191.092C212.128 191.162 212.012 191.194 211.896 191.181ZM205.103 189.469H204.99L202.444 188.826C202.332 188.796 202.238 188.725 202.179 188.628C202.121 188.53 202.103 188.414 202.13 188.304C202.144 188.25 202.169 188.198 202.203 188.153C202.238 188.108 202.281 188.07 202.33 188.042C202.38 188.013 202.434 187.994 202.491 187.986C202.548 187.979 202.606 187.982 202.662 187.996L205.208 188.638C205.323 188.652 205.429 188.71 205.501 188.8C205.573 188.89 205.605 189.004 205.591 189.118C205.578 189.231 205.518 189.335 205.427 189.405C205.335 189.476 205.219 189.508 205.103 189.494V189.469ZM294.361 189.066C294.284 189.066 294.208 189.045 294.142 189.006C294.076 188.967 294.022 188.91 293.986 188.844C293.957 188.795 293.937 188.742 293.929 188.686C293.921 188.631 293.924 188.574 293.939 188.52C293.954 188.466 293.979 188.415 294.014 188.37C294.049 188.326 294.093 188.289 294.143 188.261L296.428 186.977C296.477 186.949 296.532 186.93 296.589 186.923C296.646 186.916 296.704 186.92 296.759 186.935C296.815 186.95 296.866 186.976 296.911 187.011C296.956 187.046 296.993 187.09 297.021 187.14C297.05 187.188 297.069 187.242 297.078 187.297C297.086 187.353 297.082 187.409 297.068 187.464C297.053 187.518 297.027 187.569 296.992 187.613C296.957 187.658 296.914 187.695 296.864 187.722L294.579 189.006C294.506 189.043 294.425 189.06 294.344 189.058L294.361 189.066ZM198.293 187.739H198.188L195.633 187.097C195.523 187.067 195.428 186.995 195.371 186.898C195.314 186.8 195.299 186.684 195.328 186.575C195.341 186.521 195.365 186.47 195.399 186.425C195.433 186.38 195.475 186.342 195.524 186.313C195.572 186.284 195.626 186.265 195.683 186.257C195.739 186.249 195.796 186.253 195.851 186.267L198.406 186.909C198.463 186.916 198.519 186.934 198.569 186.963C198.619 186.991 198.663 187.029 198.698 187.074C198.733 187.118 198.759 187.17 198.774 187.224C198.789 187.279 198.793 187.336 198.785 187.393C198.778 187.449 198.759 187.503 198.731 187.552C198.702 187.601 198.663 187.644 198.618 187.679C198.572 187.713 198.52 187.739 198.464 187.754C198.408 187.768 198.35 187.772 198.293 187.765V187.739ZM191.5 186.027H191.395L188.849 185.385C188.733 185.357 188.634 185.284 188.573 185.184C188.511 185.083 188.493 184.963 188.522 184.85C188.551 184.736 188.625 184.639 188.727 184.578C188.829 184.518 188.951 184.5 189.067 184.529L191.613 185.171C191.729 185.186 191.834 185.245 191.905 185.336C191.976 185.426 192.008 185.541 191.993 185.655C191.978 185.768 191.917 185.871 191.825 185.941C191.732 186.011 191.616 186.042 191.5 186.027ZM300.43 185.642C300.353 185.641 300.277 185.62 300.211 185.581C300.145 185.542 300.091 185.486 300.055 185.419C300.026 185.371 300.006 185.318 299.998 185.262C299.99 185.206 299.994 185.15 300.008 185.095C300.023 185.041 300.048 184.99 300.083 184.946C300.119 184.901 300.162 184.864 300.212 184.837L302.497 183.553C302.547 183.521 302.603 183.501 302.661 183.491C302.72 183.482 302.78 183.484 302.837 183.498C302.895 183.513 302.948 183.538 302.996 183.573C303.043 183.609 303.082 183.653 303.111 183.704C303.14 183.754 303.158 183.81 303.165 183.868C303.171 183.926 303.165 183.985 303.148 184.04C303.13 184.096 303.101 184.147 303.063 184.191C303.024 184.236 302.977 184.272 302.924 184.298L300.648 185.582C300.58 185.614 300.506 185.632 300.43 185.633V185.642ZM184.707 184.306H184.602L182.056 183.664C181.941 183.636 181.841 183.563 181.78 183.463C181.718 183.363 181.7 183.243 181.729 183.129C181.758 183.015 181.832 182.918 181.934 182.858C182.036 182.797 182.159 182.78 182.274 182.808L184.82 183.45C184.878 183.457 184.933 183.476 184.983 183.504C185.033 183.532 185.077 183.57 185.112 183.615C185.147 183.66 185.173 183.711 185.188 183.766C185.203 183.82 185.207 183.878 185.2 183.934C185.192 183.99 185.174 184.044 185.145 184.093C185.116 184.142 185.078 184.186 185.032 184.22C184.986 184.255 184.934 184.28 184.878 184.295C184.822 184.31 184.764 184.313 184.707 184.306ZM177.923 182.594H177.81L175.263 181.952C175.148 181.923 175.048 181.851 174.987 181.751C174.926 181.65 174.907 181.53 174.936 181.417C174.965 181.303 175.039 181.206 175.141 181.145C175.243 181.085 175.366 181.067 175.481 181.096L178.028 181.738C178.143 181.751 178.249 181.81 178.32 181.899C178.392 181.989 178.425 182.104 178.411 182.217C178.397 182.331 178.338 182.434 178.246 182.505C178.155 182.576 178.038 182.608 177.923 182.594ZM306.517 182.226C306.438 182.227 306.361 182.207 306.293 182.168C306.225 182.128 306.17 182.071 306.133 182.003C306.079 181.904 306.066 181.788 306.097 181.679C306.128 181.571 306.2 181.478 306.299 181.421L308.583 180.137C308.633 180.108 308.688 180.09 308.745 180.082C308.802 180.075 308.86 180.079 308.915 180.094C308.97 180.11 309.022 180.136 309.067 180.171C309.112 180.206 309.149 180.25 309.176 180.3C309.233 180.398 309.247 180.515 309.216 180.624C309.185 180.733 309.111 180.826 309.011 180.882L306.735 182.166C306.666 182.196 306.592 182.21 306.517 182.209V182.226ZM312.621 178.801C312.542 178.802 312.465 178.782 312.397 178.743C312.329 178.704 312.274 178.647 312.237 178.579C312.181 178.48 312.166 178.363 312.197 178.254C312.228 178.145 312.302 178.052 312.403 177.997L314.679 176.712C314.728 176.684 314.783 176.666 314.84 176.659C314.897 176.652 314.955 176.655 315.011 176.67C315.066 176.685 315.118 176.71 315.164 176.745C315.209 176.779 315.247 176.822 315.276 176.871C315.305 176.92 315.323 176.974 315.33 177.03C315.338 177.085 315.334 177.142 315.319 177.197C315.304 177.251 315.278 177.302 315.243 177.347C315.208 177.392 315.164 177.429 315.115 177.457L312.83 178.741C312.76 178.775 312.681 178.79 312.603 178.784L312.621 178.801ZM318.725 175.377C318.648 175.376 318.572 175.355 318.506 175.316C318.44 175.277 318.386 175.221 318.35 175.154C318.293 175.056 318.277 174.94 318.306 174.831C318.336 174.722 318.408 174.629 318.507 174.572L320.791 173.288C320.841 173.259 320.896 173.241 320.953 173.233C321.01 173.226 321.068 173.23 321.123 173.245C321.178 173.261 321.23 173.287 321.275 173.322C321.32 173.357 321.357 173.401 321.384 173.451C321.414 173.499 321.433 173.552 321.441 173.608C321.449 173.663 321.446 173.72 321.431 173.774C321.417 173.829 321.391 173.879 321.356 173.924C321.321 173.968 321.277 174.005 321.227 174.033L318.943 175.317C318.861 175.355 318.771 175.37 318.681 175.36L318.725 175.377ZM324.829 171.952C324.752 171.952 324.676 171.931 324.61 171.892C324.544 171.853 324.49 171.797 324.454 171.73C324.424 171.682 324.405 171.628 324.397 171.573C324.389 171.517 324.392 171.46 324.407 171.406C324.421 171.352 324.447 171.301 324.482 171.256C324.517 171.212 324.561 171.175 324.611 171.148L326.895 169.863C326.945 169.835 327 169.816 327.057 169.809C327.114 169.802 327.172 169.806 327.227 169.821C327.282 169.836 327.334 169.862 327.379 169.897C327.424 169.933 327.461 169.976 327.488 170.026C327.518 170.074 327.537 170.128 327.545 170.183C327.553 170.239 327.55 170.295 327.535 170.35C327.521 170.404 327.495 170.455 327.46 170.499C327.425 170.544 327.381 170.581 327.331 170.608L325.047 171.892C324.96 171.934 324.863 171.949 324.768 171.935L324.829 171.952ZM330.933 168.528C330.856 168.527 330.78 168.506 330.714 168.467C330.648 168.428 330.594 168.372 330.558 168.305C330.528 168.257 330.509 168.204 330.501 168.148C330.493 168.092 330.496 168.036 330.511 167.982C330.525 167.927 330.551 167.876 330.586 167.832C330.621 167.788 330.665 167.751 330.715 167.723L332.999 166.439C333.049 166.411 333.104 166.393 333.161 166.385C333.218 166.378 333.276 166.382 333.331 166.397C333.387 166.411 333.439 166.437 333.484 166.471C333.53 166.505 333.568 166.548 333.597 166.597C333.625 166.646 333.644 166.7 333.651 166.756C333.659 166.812 333.655 166.869 333.64 166.923C333.625 166.978 333.599 167.029 333.564 167.073C333.529 167.118 333.485 167.156 333.435 167.184L331.151 168.468C331.059 168.513 330.955 168.528 330.854 168.511L330.933 168.528ZM337.037 165.103C336.96 165.103 336.884 165.082 336.818 165.043C336.752 165.004 336.698 164.948 336.662 164.881C336.632 164.833 336.613 164.779 336.605 164.724C336.597 164.668 336.6 164.611 336.615 164.557C336.629 164.503 336.655 164.452 336.69 164.407C336.725 164.363 336.769 164.326 336.819 164.299L339.103 163.014C339.153 162.983 339.209 162.962 339.268 162.953C339.326 162.943 339.386 162.946 339.444 162.96C339.501 162.974 339.555 163 339.602 163.035C339.649 163.07 339.689 163.115 339.718 163.165C339.747 163.216 339.765 163.272 339.771 163.33C339.778 163.388 339.772 163.446 339.754 163.502C339.737 163.557 339.708 163.609 339.67 163.653C339.631 163.697 339.584 163.733 339.531 163.759L337.255 165.043C337.157 165.09 337.047 165.105 336.941 165.086L337.037 165.103ZM343.141 161.679C343.062 161.679 342.985 161.658 342.918 161.619C342.85 161.58 342.795 161.524 342.757 161.456C342.703 161.357 342.69 161.241 342.721 161.132C342.752 161.024 342.824 160.931 342.923 160.874L345.207 159.59C345.257 159.561 345.312 159.543 345.369 159.535C345.426 159.528 345.484 159.532 345.539 159.547C345.594 159.563 345.646 159.589 345.691 159.624C345.736 159.659 345.773 159.703 345.8 159.753C345.857 159.851 345.871 159.968 345.84 160.077C345.809 160.186 345.735 160.279 345.635 160.335L343.359 161.619C343.256 161.669 343.14 161.684 343.027 161.662L343.141 161.679ZM349.245 158.254C349.166 158.256 349.089 158.235 349.021 158.196C348.953 158.157 348.898 158.1 348.861 158.032C348.805 157.933 348.79 157.816 348.821 157.707C348.852 157.598 348.926 157.505 349.027 157.45L351.303 156.165C351.353 156.137 351.408 156.118 351.466 156.111C351.524 156.103 351.582 156.107 351.638 156.122C351.694 156.137 351.747 156.163 351.793 156.199C351.838 156.234 351.876 156.278 351.904 156.328C351.959 156.427 351.972 156.543 351.941 156.652C351.91 156.76 351.837 156.853 351.739 156.91L349.454 158.194C349.403 158.223 349.347 158.242 349.288 158.249C349.23 158.257 349.171 158.253 349.114 158.237L349.245 158.254ZM355.349 154.83C355.272 154.829 355.196 154.809 355.13 154.769C355.064 154.73 355.01 154.674 354.974 154.607C354.917 154.508 354.903 154.392 354.934 154.283C354.965 154.173 355.039 154.081 355.139 154.025L357.415 152.741C357.465 152.712 357.52 152.694 357.577 152.686C357.634 152.679 357.692 152.683 357.747 152.698C357.802 152.714 357.854 152.74 357.899 152.775C357.944 152.81 357.981 152.854 358.008 152.904C358.038 152.952 358.057 153.005 358.065 153.061C358.073 153.116 358.07 153.173 358.055 153.227C358.041 153.282 358.015 153.332 357.98 153.377C357.945 153.421 357.901 153.458 357.851 153.486L355.567 154.77C355.51 154.802 355.448 154.822 355.384 154.829C355.319 154.836 355.254 154.831 355.192 154.813L355.349 154.83Z" fill="#263238"/>
<path d="M361.278 151.388C361.201 151.388 361.125 151.367 361.059 151.328C360.993 151.289 360.939 151.233 360.903 151.166C360.874 151.118 360.854 151.064 360.846 151.008C360.838 150.953 360.842 150.896 360.856 150.842C360.871 150.788 360.896 150.737 360.932 150.692C360.967 150.648 361.01 150.611 361.06 150.583L362.203 149.95C362.252 149.922 362.306 149.905 362.362 149.898C362.418 149.891 362.476 149.895 362.53 149.909C362.585 149.924 362.636 149.949 362.681 149.983C362.726 150.018 362.763 150.06 362.791 150.108C362.819 150.157 362.837 150.21 362.844 150.265C362.851 150.32 362.847 150.376 362.832 150.43C362.817 150.484 362.792 150.534 362.757 150.578C362.722 150.622 362.679 150.659 362.63 150.686L361.496 151.328C361.429 151.365 361.355 151.386 361.278 151.388Z" fill="#263238"/>
<path d="M77.1632 248.918C77.1632 249.614 76.9528 250.295 76.5586 250.874C76.1644 251.452 75.6042 251.903 74.9488 252.169C74.2934 252.435 73.5723 252.505 72.8769 252.368C72.1814 252.232 71.5429 251.896 71.042 251.403C70.5411 250.91 70.2005 250.282 70.0632 249.599C69.9259 248.916 69.9981 248.208 70.2707 247.565C70.5433 246.922 71.004 246.374 71.5945 245.988C72.185 245.602 72.8788 245.397 73.588 245.399C74.537 245.401 75.4464 245.773 76.1166 246.433C76.7868 247.092 77.1632 247.986 77.1632 248.918Z" fill="white"/>
<path d="M73.5881 252.856C72.7923 252.858 72.0139 252.627 71.3515 252.194C70.6891 251.761 70.1725 251.145 69.8671 250.423C69.5618 249.702 69.4814 248.908 69.6363 248.141C69.7911 247.375 70.1741 246.671 70.7369 246.118C71.2996 245.566 72.0167 245.19 72.7973 245.038C73.5779 244.886 74.3869 244.965 75.1218 245.265C75.8567 245.564 76.4844 246.071 76.9254 246.722C77.3665 247.372 77.601 248.136 77.5993 248.918C77.5947 249.961 77.1706 250.96 76.4194 251.697C75.6681 252.435 74.6505 252.851 73.5881 252.856ZM73.5881 245.827C72.9651 245.825 72.3556 246.005 71.8368 246.344C71.318 246.682 70.9132 247.164 70.6736 247.729C70.434 248.294 70.3704 248.915 70.4909 249.515C70.6113 250.115 70.9105 250.667 71.3504 251.1C71.7903 251.533 72.3511 251.828 72.962 251.948C73.5729 252.068 74.2063 252.008 74.782 251.774C75.3577 251.54 75.8499 251.144 76.1962 250.636C76.5424 250.127 76.7273 249.529 76.7273 248.918C76.7273 248.1 76.3968 247.315 75.8084 246.735C75.2199 246.156 74.4215 245.829 73.5881 245.827Z" fill="#263238"/>
<path d="M169.865 183.613C171.84 183.613 173.441 182.041 173.441 180.103C173.441 178.164 171.84 176.592 169.865 176.592C167.891 176.592 166.29 178.164 166.29 180.103C166.29 182.041 167.891 183.613 169.865 183.613Z" fill="white"/>
<path d="M169.866 184.066C169.07 184.068 168.292 183.838 167.63 183.405C166.968 182.973 166.451 182.357 166.145 181.636C165.84 180.915 165.759 180.121 165.913 179.355C166.067 178.589 166.449 177.885 167.011 177.332C167.573 176.779 168.289 176.402 169.069 176.249C169.849 176.096 170.658 176.174 171.393 176.473C172.128 176.771 172.757 177.277 173.199 177.926C173.641 178.575 173.877 179.339 173.877 180.12C173.874 181.164 173.451 182.166 172.7 182.905C171.948 183.644 170.929 184.062 169.866 184.066ZM169.866 177.038C169.242 177.036 168.632 177.216 168.113 177.555C167.594 177.894 167.19 178.377 166.95 178.942C166.711 179.507 166.648 180.129 166.769 180.729C166.89 181.329 167.19 181.881 167.631 182.314C168.072 182.746 168.633 183.041 169.245 183.16C169.856 183.279 170.49 183.217 171.066 182.982C171.641 182.747 172.133 182.35 172.478 181.84C172.823 181.33 173.006 180.732 173.005 180.12C173.006 179.714 172.926 179.312 172.768 178.936C172.611 178.561 172.38 178.22 172.089 177.932C171.797 177.644 171.451 177.415 171.07 177.259C170.688 177.103 170.279 177.022 169.866 177.021V177.038Z" fill="#263238"/>
<path d="M266.134 208.004C268.109 208.004 269.709 206.432 269.709 204.494C269.709 202.555 268.109 200.983 266.134 200.983C264.16 200.983 262.559 202.555 262.559 204.494C262.559 206.432 264.16 208.004 266.134 208.004Z" fill="white"/>
<path d="M266.143 208.44C265.347 208.442 264.569 208.212 263.906 207.779C263.244 207.346 262.727 206.729 262.422 206.008C262.117 205.286 262.036 204.492 262.191 203.726C262.346 202.959 262.729 202.255 263.292 201.703C263.855 201.15 264.572 200.774 265.352 200.622C266.133 200.47 266.942 200.549 267.677 200.849C268.412 201.149 269.039 201.656 269.48 202.306C269.921 202.957 270.156 203.721 270.154 204.502C270.15 205.545 269.726 206.544 268.974 207.282C268.223 208.019 267.205 208.436 266.143 208.44ZM266.143 201.411C265.52 201.41 264.911 201.59 264.392 201.928C263.873 202.267 263.468 202.749 263.229 203.313C262.989 203.878 262.925 204.5 263.046 205.1C263.166 205.7 263.465 206.251 263.905 206.684C264.345 207.118 264.906 207.413 265.517 207.533C266.128 207.653 266.761 207.592 267.337 207.358C267.913 207.125 268.405 206.728 268.751 206.22C269.097 205.712 269.282 205.114 269.282 204.502C269.282 203.684 268.952 202.899 268.363 202.32C267.775 201.74 266.976 201.414 266.143 201.411Z" fill="#263238"/>
<path d="M362.412 153.828C364.386 153.828 365.987 152.257 365.987 150.318C365.987 148.38 364.386 146.808 362.412 146.808C360.437 146.808 358.837 148.38 358.837 150.318C358.837 152.257 360.437 153.828 362.412 153.828Z" fill="white"/>
<path d="M362.412 154.256C361.619 154.255 360.844 154.022 360.186 153.588C359.527 153.155 359.015 152.539 358.712 151.819C358.41 151.099 358.332 150.308 358.488 149.545C358.643 148.781 359.026 148.08 359.587 147.53C360.149 146.98 360.863 146.606 361.641 146.455C362.419 146.304 363.225 146.382 363.958 146.681C364.69 146.979 365.316 147.484 365.756 148.131C366.197 148.778 366.432 149.54 366.432 150.318C366.43 151.363 366.005 152.365 365.251 153.103C364.498 153.842 363.477 154.256 362.412 154.256ZM362.412 147.236C361.791 147.238 361.185 147.42 360.67 147.76C360.155 148.099 359.754 148.581 359.518 149.145C359.282 149.708 359.221 150.327 359.343 150.925C359.465 151.522 359.765 152.07 360.204 152.5C360.643 152.931 361.203 153.223 361.811 153.342C362.42 153.46 363.051 153.398 363.624 153.165C364.197 152.931 364.687 152.536 365.031 152.029C365.376 151.523 365.56 150.927 365.56 150.318C365.555 149.502 365.221 148.721 364.631 148.147C364.041 147.572 363.243 147.251 362.412 147.253V147.236Z" fill="#263238"/>
</svg>
